<svg width="312" height="164" viewBox="0 0 205 160" fill="none" xmlns="http://www.w3.org/2000/svg">
<g clip-path="url(#clip0_3544_32894)">
<path d="M10.185 132.404C13.3407 141.866 17.9186 150.525 23.8695 158.382H34.8179C33.4753 156.867 32.1726 155.293 30.9122 153.658C33.5176 151.421 36.4331 149.746 39.4754 148.361C43.3699 146.587 47.369 145.04 51.3444 143.449C52.6614 142.922 52.6925 142.997 53.0977 144.402C54.4664 149.148 56.0249 153.821 57.8766 158.382H66.7113C64.2907 152.947 62.4222 147.28 60.957 141.447C60.7833 140.755 60.9389 140.503 61.6031 140.392C68.1434 139.3 74.6639 138.069 81.2267 137.143C85.1193 136.594 89.0785 136.52 93.0085 136.239C93.3757 136.213 93.746 136.235 94.2589 136.235C94.2085 143.633 94.2365 151.007 94.2471 158.382H102.987C102.983 151.617 102.989 144.851 102.986 138.086C102.986 137.507 102.986 136.928 102.986 136.179C104.823 136.301 106.503 136.41 108.182 136.523C115.084 136.985 121.933 137.865 128.715 139.234C130.779 139.651 132.831 140.134 134.875 140.641C136.257 140.983 136.398 141.255 136.015 142.606C134.486 147.992 132.717 153.283 130.479 158.383H139.282C141.273 153.522 142.968 148.499 144.524 143.386C146.296 144.043 147.845 144.591 149.375 145.189C154.797 147.307 159.967 149.917 164.786 153.201C165.935 153.984 165.954 154.045 165.128 155.085C164.231 156.211 163.311 157.31 162.367 158.382H173.286C175.988 154.823 178.436 151.076 180.613 147.131C184.291 140.465 187.087 133.43 189.007 126.048C190.624 119.827 191.559 113.508 191.94 107.098C191.951 106.901 192.031 106.708 192.079 106.513V97.1459C191.89 95.512 191.671 93.8805 191.516 92.2435C190.882 85.4889 189.377 78.9233 187.253 72.4943C184.098 62.9458 179.535 54.1102 173.522 46.0703C169.175 40.2587 164.109 35.0732 158.608 30.3541C150.715 23.5821 141.827 18.4583 132.126 14.7153C122.956 11.1768 113.479 9.15682 103.672 8.59618C91.5066 7.90082 79.6632 9.531 68.169 13.5441C57.1621 17.3869 47.0746 22.941 38.286 30.6466C30.0259 37.8889 22.8083 46.0329 17.4281 55.7341C11.4996 66.4257 7.60384 77.7839 5.91397 89.8756C5.02454 96.241 5.22807 102.664 5.46396 109.075C5.75961 117.113 7.65986 124.835 10.1838 132.404H10.185ZM183.719 103.657C183.223 112.967 181.808 122.106 178.588 130.903C176.691 136.085 174.248 141.011 171.619 145.851C171.29 146.455 170.939 146.566 170.379 146.253C168.424 145.157 166.478 144.044 164.51 142.97C159.131 140.036 153.583 137.473 147.758 135.555C146.879 135.265 146.617 134.8 146.736 133.963C147.138 131.154 147.646 128.355 147.905 125.533C148.571 118.296 149.162 111.051 149.683 103.803C149.764 102.677 150.081 102.264 151.15 102.262C152.429 102.26 153.708 102.157 154.988 102.152C159.071 102.137 163.154 102.147 167.238 102.147C167.238 102.138 167.238 102.129 167.238 102.121C172.256 102.121 177.273 102.121 182.291 102.121C183.78 102.121 183.801 102.122 183.72 103.657H183.719ZM167.207 52.0154C174.148 59.0413 183.625 84.1537 182.919 93.5818H149.456C148.804 82.9102 147.255 72.3876 144.733 61.9037C152.621 59.3506 159.965 55.8239 167.207 52.0148V52.0154ZM144.83 30.6971C151.197 34.679 156.78 39.5695 161.895 45.3095C155.92 48.2686 150.233 51.1161 144.155 53.0656C142.388 53.6325 142.234 53.5352 141.608 51.7766C138.507 43.0656 134.612 34.7545 129.223 27.206C128.059 25.5758 126.745 24.0529 125.5 22.4808C125.187 22.0854 124.876 21.6887 124.662 21.1549C131.857 23.3732 138.488 26.7296 144.83 30.6965V30.6971ZM102.979 69.5376C102.976 68.7057 103.166 68.3958 104.063 68.407C111.173 68.4937 118.188 67.5021 125.186 66.4064C128.39 65.905 131.565 65.2196 134.752 64.6122C136.629 64.2542 136.743 64.2293 137.06 66.0428C138.152 72.2735 139.213 78.5111 140.168 84.7643C140.569 87.3916 140.677 90.0645 140.912 92.7168C140.935 92.985 140.915 93.2575 140.915 93.603H103.053C103.031 93.1983 102.998 92.8609 102.998 92.5235C102.995 84.8615 103.006 77.2002 102.979 69.5383V69.5376ZM103.135 20.2481C103.138 19.3969 103.244 18.5456 103.32 17.4243C104.939 17.9731 106.407 18.3498 107.774 18.9553C112.915 21.2316 116.97 24.9004 120.5 29.1992C124.996 34.674 128.358 40.8168 131.043 47.3481C132.184 50.1233 133.27 52.9209 134.456 55.8969C132.903 56.243 131.541 56.571 130.169 56.8486C121.556 58.5922 112.87 59.7447 104.079 60.0441C103.321 60.0696 102.974 59.9306 102.979 59.0413C103.05 46.1108 103.082 33.1798 103.135 20.2494L103.135 20.2481ZM104.186 102.11C116.055 102.139 127.924 102.124 139.793 102.121C140.135 102.121 140.476 102.121 140.92 102.121C140.92 104.842 141.055 107.409 140.891 109.957C140.589 114.619 140.167 119.274 139.682 123.921C139.428 126.361 138.959 128.779 138.547 131.2C138.337 132.427 138.157 132.492 136.948 132.273C130.663 131.136 124.4 129.85 118.083 128.939C113.441 128.269 108.73 128.068 104.045 127.729C103.153 127.664 102.978 127.349 102.981 126.537C103.006 118.805 103.01 111.072 102.975 103.34C102.971 102.399 103.214 102.108 104.185 102.111L104.186 102.11ZM94.2552 126.58C94.2589 127.451 93.9875 127.677 93.1442 127.707C84.5685 128.009 76.0525 128.894 67.6125 130.463C65.0326 130.942 62.457 131.448 59.8927 132.004C59.1003 132.175 58.7829 131.889 58.6957 131.181C57.9955 125.517 57.2038 119.863 56.643 114.185C56.3032 110.744 56.3212 107.266 56.1849 103.804C56.165 103.292 56.1824 102.779 56.1824 102.12C59.5335 102.12 62.7128 102.119 65.8922 102.12C74.9247 102.123 83.9573 102.142 92.9898 102.109C93.9869 102.105 94.2645 102.379 94.2595 103.38C94.2191 111.113 94.2241 118.846 94.2558 126.579L94.2552 126.58ZM94.2365 93.6105H56.1781C56.5378 89.8961 56.7488 86.2348 57.276 82.6196C58.0652 77.2108 59.0748 71.8338 59.996 66.4444C60.0539 66.1045 60.1647 65.7734 60.2387 65.436C60.4043 64.6777 60.7964 64.4525 61.5919 64.6359C71.3215 66.8753 81.1844 68.0995 91.158 68.4631C94.2483 68.576 94.2465 68.5878 94.2452 71.6754C94.2421 78.5778 94.2396 85.4808 94.2371 92.3832C94.2371 92.7561 94.2371 93.1297 94.2371 93.6105H94.2365ZM88.2445 19.5172C89.5653 18.8468 90.962 18.3236 92.335 17.7617C93.1529 17.4268 93.7286 17.7162 93.8294 18.6036C93.9975 20.0804 94.1886 21.5659 94.1929 23.0483C94.2303 35.0825 94.2197 47.1168 94.2521 59.1516C94.2546 59.9717 93.9602 60.1289 93.217 60.1014C83.4195 59.7354 73.7241 58.5573 64.1394 56.4806C63.7429 56.3946 63.3595 56.2492 62.7072 56.0522C63.8936 53.0731 64.976 50.2343 66.1492 47.4336C68.8742 40.9266 72.1873 34.7526 76.66 29.2596C79.9022 25.2777 83.6324 21.859 88.2439 19.5179L88.2445 19.5172ZM36.265 44.2081C45.0448 34.7944 55.5015 27.844 67.348 22.9304C68.7204 22.361 70.0978 21.8041 71.4802 21.2609C71.8145 21.1293 72.1792 21.0751 72.5303 20.9853C72.5776 21.0533 72.6249 21.1212 72.6722 21.1892C71.9744 22.0754 71.2892 22.9722 70.5777 23.8471C65.8287 29.6831 62.1564 36.1714 59.0972 43.0176C57.7154 46.1102 56.5135 49.2833 55.1803 52.3983C54.561 53.8451 54.4378 53.958 52.9969 53.4385C49.5873 52.2075 46.2032 50.8991 42.8502 49.5196C40.7433 48.6528 38.6968 47.6338 36.6528 46.6228C35.1067 45.8576 35.0886 45.4691 36.2644 44.2088L36.265 44.2081ZM15.2048 85.6498C16.5723 78.5398 18.8503 71.7079 22.1193 65.257C24.0843 61.3793 26.3791 57.6661 28.5949 53.92C29.4178 52.5293 29.5167 52.6004 30.9919 53.2745C35.7328 55.4423 40.4626 57.6375 45.239 59.7254C47.1337 60.5536 49.1366 61.1342 51.0954 61.8127C51.8137 62.0615 52.1087 62.4288 51.9581 63.2739C51.0363 68.4525 50.0591 73.6255 49.3283 78.8329C48.6841 83.4228 48.3157 88.052 47.8831 92.6694C47.8134 93.4128 47.6441 93.6872 46.8611 93.686C36.3048 93.6648 25.748 93.6741 15.1911 93.6716C14.8886 93.6716 14.5868 93.6329 14.0608 93.5968C14.4424 90.8946 14.7044 88.2491 15.2042 85.6492L15.2048 85.6498ZM14.4741 102.104C19.8039 102.141 25.1343 102.122 30.4641 102.122V102.129C35.7938 102.129 41.1242 102.149 46.454 102.109C47.2974 102.103 47.486 102.364 47.5046 103.17C47.7219 112.636 48.663 122.036 50.1238 131.388C50.1985 131.867 50.2937 132.342 50.3939 132.817C50.7506 134.502 50.712 134.594 49.1267 135.151C41.7691 137.738 34.6872 140.922 27.9538 144.876C25.7866 146.149 25.7231 146.119 24.6233 144.077C20.0099 135.516 16.4353 126.567 14.9845 116.898C14.3023 112.351 13.9836 107.749 13.4733 103.175C13.3811 102.349 13.6301 102.1 14.4747 102.106L14.4741 102.104Z" fill="#F7F9F8"/>
<path d="M59.7514 21.2276C59.8149 21.2276 59.8796 21.2133 59.94 21.1827C60.7068 20.7979 61.4904 20.4194 62.2678 20.0583C62.4794 19.9598 62.5716 19.7084 62.4732 19.4958C62.3749 19.2837 62.1234 19.1914 61.9118 19.29C61.1263 19.6548 60.3358 20.0371 59.5615 20.4256C59.353 20.5304 59.2684 20.7848 59.373 20.9937C59.447 21.1422 59.5964 21.2276 59.7514 21.2276Z" fill="#99C6A2"/>
<path d="M55.1751 23.695C55.2466 23.695 55.3195 23.6769 55.3861 23.6383C56.1299 23.2086 56.8898 22.7839 57.6448 22.3767C57.8502 22.2657 57.9274 22.0093 57.8166 21.8029C57.7058 21.5971 57.45 21.5198 57.244 21.6308C56.4815 22.0418 55.7141 22.4702 54.9634 22.9043C54.7612 23.0209 54.6921 23.2797 54.8085 23.4824C54.8869 23.6183 55.0288 23.6944 55.1751 23.6944V23.695Z" fill="#99C6A2"/>
<path d="M50.7506 26.4287C50.8302 26.4287 50.9112 26.4062 50.9827 26.3588C51.7004 25.8855 52.4348 25.4171 53.1649 24.9656C53.3635 24.8428 53.4251 24.5821 53.3031 24.3831C53.1805 24.1842 52.9203 24.1225 52.7218 24.2453C51.9848 24.7006 51.2435 25.1739 50.5184 25.6516C50.3236 25.7801 50.2694 26.0426 50.3977 26.2378C50.4786 26.3613 50.6136 26.4287 50.7512 26.4287H50.7506Z" fill="#99C6A2"/>
<path d="M42.408 32.654C42.5039 32.654 42.6003 32.6216 42.6794 32.5549C43.3379 32.0011 44.0132 31.4498 44.6873 30.9153C44.8703 30.77 44.9014 30.5037 44.7564 30.3204C44.6114 30.137 44.3456 30.1059 44.1626 30.2512C43.4823 30.7906 42.8001 31.3475 42.1354 31.9063C41.9568 32.0566 41.9331 32.3235 42.0831 32.5025C42.1665 32.6023 42.2866 32.6534 42.4068 32.6534L42.408 32.654Z" fill="#99C6A2"/>
<path d="M46.49 29.4186C46.5778 29.4186 46.6661 29.3912 46.7421 29.335C47.4311 28.8212 48.1369 28.3098 48.8409 27.8159C49.032 27.6818 49.0786 27.418 48.9442 27.2259C48.8104 27.0345 48.5471 26.9877 48.3554 27.1224C47.6452 27.6207 46.9325 28.137 46.2367 28.6559C46.0493 28.7956 46.0107 29.0606 46.1502 29.2484C46.2329 29.36 46.3605 29.4186 46.4894 29.4186H46.49Z" fill="#99C6A2"/>
<path d="M9.66638 106.419C9.67011 106.419 9.67447 106.419 9.6782 106.419C9.91161 106.412 10.0952 106.217 10.089 105.984C10.0653 105.124 10.0529 104.25 10.0523 103.388C10.0523 103.154 9.86306 102.964 9.62965 102.964C9.39625 102.964 9.20703 103.154 9.20703 103.388C9.20703 104.258 9.2201 105.139 9.24375 106.007C9.24998 106.237 9.43795 106.419 9.66575 106.419H9.66638Z" fill="#99C6A2"/>
<path d="M84.3791 13.1984C84.4022 13.1984 84.4252 13.1965 84.4488 13.1928C85.296 13.0518 86.1574 12.9221 87.0095 12.8068C87.241 12.7756 87.4028 12.5623 87.3717 12.3303C87.3406 12.0983 87.1271 11.9355 86.8962 11.9673C86.036 12.084 85.1659 12.2149 84.3107 12.3571C84.0804 12.3952 83.9248 12.6134 83.9627 12.8442C83.997 13.0512 84.1762 13.1984 84.3791 13.1984Z" fill="#99C6A2"/>
<path d="M79.2736 14.2061C79.3047 14.2061 79.3365 14.2023 79.3682 14.1955C80.206 14.0034 81.0581 13.8219 81.9008 13.656C82.1299 13.6111 82.2786 13.3885 82.2338 13.159C82.189 12.9295 81.9668 12.7805 81.7377 12.8254C80.8863 12.9931 80.0261 13.1765 79.1802 13.3704C78.9524 13.4222 78.8105 13.6498 78.8622 13.8774C78.907 14.0739 79.0813 14.2067 79.2736 14.2067V14.2061Z" fill="#99C6A2"/>
<path d="M38.5197 36.1206C38.6236 36.1206 38.7276 36.0825 38.8097 36.0052C39.4359 35.414 40.0788 34.824 40.7205 34.2515C40.8948 34.0963 40.9104 33.8287 40.7554 33.6541C40.6004 33.4795 40.3334 33.4639 40.1591 33.6192C39.5112 34.1973 38.862 34.7929 38.2303 35.3891C38.0603 35.5493 38.0529 35.8175 38.2128 35.9877C38.2962 36.0763 38.4083 36.1206 38.5203 36.1206H38.5197Z" fill="#99C6A2"/>
<path d="M69.29 17.1357C69.3373 17.1357 69.3859 17.1276 69.4332 17.1108C70.2417 16.8196 71.0664 16.5371 71.883 16.2701C72.1052 16.1978 72.226 15.9589 72.1538 15.7363C72.0816 15.5137 71.8432 15.3921 71.621 15.465C70.7963 15.7344 69.9635 16.0201 69.1469 16.3138C68.9271 16.393 68.8132 16.6356 68.8923 16.8551C68.9545 17.0279 69.117 17.1357 69.29 17.1357Z" fill="#99C6A2"/>
<path d="M64.4615 19.0384C64.5169 19.0384 64.5736 19.0271 64.6277 19.0041C65.4157 18.6661 66.2199 18.3349 67.0166 18.0212C67.2338 17.9358 67.3402 17.6901 67.255 17.4724C67.1697 17.2548 66.9238 17.1481 66.7072 17.2336C65.9024 17.551 65.0908 17.8846 64.2953 18.2264C64.0806 18.3187 63.9816 18.5675 64.0731 18.782C64.1416 18.9423 64.2978 19.039 64.4615 19.039V19.0384Z" fill="#99C6A2"/>
<path d="M74.2367 15.5202C74.2759 15.5202 74.3157 15.5146 74.3556 15.5028C75.1803 15.2608 76.0199 15.0282 76.8515 14.8111C77.0774 14.7525 77.2125 14.5212 77.154 14.2948C77.0948 14.0684 76.8646 13.9331 76.6386 13.9917C75.799 14.2106 74.9506 14.4457 74.1184 14.6902C73.8944 14.7556 73.7662 14.9908 73.8315 15.2153C73.8857 15.3999 74.0537 15.5196 74.2367 15.5196V15.5202Z" fill="#99C6A2"/>
<path d="M11.281 85.6616C11.3084 85.6672 11.3351 85.6697 11.3619 85.6697C11.5598 85.6697 11.7372 85.5294 11.7764 85.3273C11.9408 84.4817 12.1188 83.6267 12.3067 82.7866C12.3578 82.5584 12.2146 82.332 11.9868 82.2809C11.759 82.2297 11.5331 82.3732 11.482 82.6014C11.2928 83.4495 11.1129 84.312 10.9474 85.1652C10.9026 85.3947 11.0526 85.6167 11.2816 85.6616H11.281Z" fill="#99C6A2"/>
<path d="M12.3928 80.5677C12.4277 80.5765 12.4626 80.5808 12.4968 80.5808C12.6854 80.5808 12.8578 80.453 12.9063 80.2615C13.1173 79.4259 13.3433 78.5827 13.5773 77.7545C13.6408 77.5294 13.5107 77.2955 13.286 77.2319C13.0613 77.1683 12.8279 77.2987 12.7644 77.5238C12.5279 78.3595 12.3001 79.2107 12.0872 80.0539C12.03 80.2803 12.1669 80.511 12.3928 80.5684V80.5677Z" fill="#99C6A2"/>
<path d="M10.4529 90.8097C10.4722 90.8122 10.4915 90.8134 10.5108 90.8134C10.7186 90.8134 10.8998 90.6594 10.929 90.4474C11.046 89.5942 11.1767 88.7305 11.3174 87.8811C11.3554 87.6504 11.1998 87.4327 10.9695 87.3941C10.7392 87.3554 10.5213 87.5119 10.4834 87.7427C10.3415 88.6002 10.2095 89.4714 10.0919 90.3326C10.0601 90.564 10.222 90.7779 10.4529 90.8097Z" fill="#99C6A2"/>
<path d="M9.65181 101.204C9.65554 101.204 9.65928 101.204 9.66301 101.204C9.89144 101.204 10.0788 101.022 10.085 100.792C10.108 99.9309 10.1429 99.0578 10.189 98.1978C10.2014 97.9646 10.0228 97.765 9.78998 97.7526C9.5572 97.7401 9.35802 97.9191 9.34558 98.1523C9.2989 99.0204 9.26342 99.901 9.24039 100.769C9.23416 101.003 9.4184 101.198 9.65181 101.204Z" fill="#99C6A2"/>
<path d="M9.91001 95.996C9.92183 95.9973 9.93304 95.9972 9.94486 95.9972C10.1627 95.9972 10.3476 95.8295 10.3656 95.6081C10.4353 94.75 10.5181 93.88 10.6115 93.0238C10.637 92.7912 10.4696 92.5822 10.2374 92.5567C10.0052 92.5317 9.79673 92.6989 9.77121 92.9315C9.67722 93.7952 9.5932 94.6726 9.52286 95.5389C9.50419 95.7721 9.67722 95.976 9.91001 95.9954V95.996Z" fill="#99C6A2"/>
<path d="M13.7899 75.5439C13.8322 75.557 13.8746 75.5632 13.9163 75.5632C14.0962 75.5632 14.263 75.4472 14.3196 75.2664C14.5767 74.445 14.8493 73.6156 15.13 72.8011C15.2059 72.5804 15.0889 72.339 14.8686 72.2629C14.6476 72.1869 14.4074 72.3041 14.3314 72.5249C14.0482 73.3468 13.7731 74.1837 13.5136 75.0132C13.4439 75.2364 13.5677 75.474 13.7899 75.5439Z" fill="#99C6A2"/>
<path d="M31.0901 43.6017C31.1691 43.6685 31.2662 43.7015 31.3621 43.7015C31.4822 43.7015 31.6017 43.6504 31.6851 43.5512C32.2397 42.892 32.8117 42.2316 33.3849 41.5887C33.5405 41.414 33.525 41.1465 33.3513 40.9906C33.177 40.8347 32.91 40.8497 32.7544 41.0243C32.1762 41.6735 31.5992 42.3395 31.039 43.0049C30.8884 43.1839 30.9114 43.4508 31.0894 43.6017H31.0901Z" fill="#99C6A2"/>
<path d="M34.8333 39.8079C34.9454 39.8079 35.0574 39.7637 35.1402 39.6757C35.7309 39.0496 36.339 38.4235 36.9483 37.8142C37.1133 37.6489 37.1139 37.3808 36.9483 37.2155C36.7834 37.0502 36.5157 37.0496 36.3508 37.2155C35.7358 37.8304 35.1221 38.4628 34.5259 39.0945C34.3653 39.2641 34.3727 39.5323 34.5427 39.6932C34.6242 39.7705 34.7288 39.8092 34.8327 39.8092L34.8333 39.8079Z" fill="#99C6A2"/>
<path d="M168.864 47.5911C168.947 47.7021 169.074 47.7601 169.203 47.7601C169.291 47.7601 169.38 47.7327 169.456 47.6753C169.643 47.535 169.681 47.2693 169.54 47.0829C169.019 46.3875 168.482 45.6915 167.945 45.0137C167.8 44.8309 167.534 44.8004 167.351 44.9463C167.168 45.0916 167.138 45.3585 167.284 45.5412C167.817 46.2129 168.349 46.9026 168.865 47.5911H168.864Z" fill="#99C6A2"/>
<path d="M165.644 43.537C165.728 43.6361 165.847 43.6873 165.967 43.6873C166.064 43.6873 166.16 43.6542 166.239 43.5875C166.418 43.4366 166.44 43.1696 166.29 42.9907C165.731 42.3271 165.156 41.6623 164.578 41.015C164.422 40.8404 164.155 40.8254 163.981 40.9813C163.807 41.1372 163.792 41.4048 163.947 41.5794C164.519 42.2211 165.09 42.8797 165.643 43.537H165.644Z" fill="#99C6A2"/>
<path d="M183.724 77.6124C183.959 78.4399 184.186 79.2831 184.399 80.1187C184.447 80.3102 184.619 80.4374 184.808 80.4374C184.842 80.4374 184.877 80.4331 184.912 80.4243C185.138 80.3663 185.275 80.1362 185.217 79.9092C185.002 79.0667 184.773 78.2154 184.536 77.3804C184.472 77.1552 184.239 77.0249 184.014 77.0891C183.789 77.1534 183.659 77.3872 183.723 77.6124H183.724Z" fill="#99C6A2"/>
<path d="M186.002 87.7362C186.144 88.5838 186.276 89.4475 186.395 90.3019C186.424 90.5139 186.605 90.6673 186.813 90.6673C186.832 90.6673 186.852 90.6661 186.871 90.663C187.102 90.6305 187.264 90.4166 187.232 90.1852C187.112 89.3228 186.979 88.4515 186.836 87.5965C186.797 87.3658 186.579 87.2099 186.349 87.2486C186.119 87.2872 185.964 87.5055 186.002 87.7362H186.002Z" fill="#99C6A2"/>
<path d="M182.98 75.1265C183.037 75.3074 183.204 75.4228 183.383 75.4228C183.425 75.4228 183.468 75.4165 183.51 75.4028C183.733 75.3323 183.857 75.0947 183.786 74.8715C183.525 74.042 183.248 73.2051 182.965 72.3844C182.888 72.1636 182.648 72.0464 182.427 72.1231C182.206 72.1998 182.089 72.4412 182.166 72.6619C182.447 73.4752 182.721 74.304 182.98 75.1259V75.1265Z" fill="#99C6A2"/>
<path d="M187.544 97.6047C187.311 97.6178 187.132 97.8173 187.145 98.0506C187.193 98.9106 187.229 99.783 187.254 100.645C187.26 100.874 187.448 101.056 187.676 101.056C187.679 101.056 187.684 101.056 187.687 101.056C187.921 101.05 188.104 100.855 188.098 100.621C188.074 99.7525 188.037 98.8719 187.989 98.0038C187.976 97.7706 187.776 97.5916 187.544 97.6047H187.544Z" fill="#99C6A2"/>
<path d="M187.089 92.4107C186.857 92.4362 186.69 92.6458 186.715 92.8784C186.81 93.7334 186.894 94.6027 186.966 95.4621C186.984 95.6829 187.169 95.8506 187.386 95.8506C187.398 95.8506 187.41 95.8506 187.422 95.8494C187.655 95.83 187.827 95.6255 187.808 95.3922C187.736 94.5254 187.651 93.6479 187.556 92.7855C187.53 92.5528 187.322 92.3857 187.09 92.4113L187.089 92.4107Z" fill="#99C6A2"/>
<path d="M162.199 39.671C162.282 39.759 162.394 39.8033 162.506 39.8033C162.61 39.8033 162.714 39.7646 162.796 39.6873C162.965 39.5264 162.973 39.2588 162.813 39.0886C162.217 38.4575 161.604 37.8263 160.991 37.2133C160.826 37.048 160.558 37.048 160.393 37.2133C160.228 37.3786 160.228 37.6467 160.393 37.812C161.001 38.4194 161.608 39.0449 162.198 39.6698L162.199 39.671Z" fill="#99C6A2"/>
<path d="M185.005 82.6427C185.194 83.4828 185.373 84.3378 185.539 85.1828C185.579 85.3849 185.755 85.5245 185.953 85.5245C185.979 85.5245 186.007 85.5221 186.034 85.5164C186.263 85.4715 186.413 85.2489 186.368 85.0194C186.201 84.1669 186.02 83.3044 185.829 82.4563C185.778 82.228 185.551 82.0852 185.324 82.1364C185.096 82.1875 184.953 82.4145 185.005 82.6421V82.6427Z" fill="#99C6A2"/>
<path d="M120.403 14.7888C121.239 15.0058 122.081 15.2384 122.909 15.4804C122.948 15.4922 122.988 15.4972 123.027 15.4972C123.21 15.4972 123.378 15.3775 123.432 15.1923C123.497 14.9678 123.368 14.7327 123.144 14.6672C122.309 14.4227 121.458 14.1882 120.614 13.9687C120.388 13.9101 120.158 14.046 120.1 14.2724C120.041 14.4988 120.177 14.7295 120.403 14.7888H120.403Z" fill="#99C6A2"/>
<path d="M130.279 18.0022C131.08 18.3178 131.888 18.6496 132.68 18.9888C132.734 19.0119 132.791 19.0231 132.846 19.0231C133.011 19.0231 133.166 18.9271 133.235 18.7662C133.327 18.551 133.228 18.3022 133.013 18.2105C132.213 17.8675 131.398 17.5326 130.589 17.2139C130.372 17.1285 130.126 17.2358 130.041 17.4534C129.956 17.6711 130.063 17.9168 130.28 18.0022H130.279Z" fill="#99C6A2"/>
<path d="M125.392 16.2467C126.212 16.5136 127.038 16.7961 127.849 17.0879C127.896 17.1048 127.944 17.1129 127.992 17.1129C128.165 17.1129 128.328 17.005 128.389 16.8322C128.468 16.6121 128.354 16.3695 128.134 16.2909C127.315 15.9966 126.48 15.711 125.653 15.4415C125.431 15.3698 125.192 15.4908 125.12 15.7135C125.048 15.9361 125.17 16.1749 125.392 16.2467Z" fill="#99C6A2"/>
<path d="M115.353 13.6381C116.197 13.804 117.049 13.9842 117.887 14.175C117.918 14.1825 117.949 14.1856 117.981 14.1856C118.173 14.1856 118.348 14.0522 118.392 13.8557C118.444 13.6275 118.301 13.4011 118.074 13.3493C117.228 13.1566 116.368 12.9745 115.516 12.8068C115.287 12.7619 115.064 12.9116 115.02 13.1411C114.975 13.3706 115.124 13.5932 115.353 13.6381Z" fill="#99C6A2"/>
<path d="M156.627 34.2555C157.268 34.8267 157.91 35.416 158.536 36.0072C158.618 36.0846 158.722 36.1226 158.826 36.1226C158.938 36.1226 159.051 36.0777 159.134 35.9898C159.294 35.8195 159.286 35.552 159.116 35.3911C158.485 34.7943 157.837 34.1993 157.189 33.6231C157.015 33.4678 156.748 33.4834 156.593 33.658C156.438 33.8326 156.454 34.1002 156.628 34.2555H156.627Z" fill="#99C6A2"/>
<path d="M110.243 12.7944C111.095 12.9092 111.957 13.0376 112.804 13.1779C112.827 13.1817 112.85 13.1836 112.873 13.1836C113.076 13.1836 113.256 13.0364 113.29 12.8287C113.328 12.598 113.172 12.3803 112.942 12.3423C112.086 12.2007 111.216 12.0704 110.356 11.955C110.124 11.9238 109.912 12.0866 109.881 12.3186C109.85 12.5506 110.012 12.7632 110.244 12.7944H110.243Z" fill="#99C6A2"/>
<path d="M152.661 30.9201C153.334 31.4539 154.01 32.0052 154.668 32.559C154.747 32.6257 154.844 32.6581 154.94 32.6581C155.06 32.6581 155.18 32.607 155.263 32.5072C155.413 32.3282 155.39 32.0613 155.211 31.911C154.546 31.3516 153.865 30.7954 153.185 30.2565C153.002 30.1112 152.736 30.1424 152.591 30.3258C152.446 30.5091 152.477 30.7754 152.66 30.9207L152.661 30.9201Z" fill="#99C6A2"/>
<path d="M148.507 27.8194C149.211 28.3133 149.917 28.8247 150.606 29.3398C150.682 29.3965 150.77 29.424 150.858 29.424C150.987 29.424 151.115 29.3654 151.197 29.2537C151.337 29.066 151.298 28.801 151.111 28.6613C150.415 28.1418 149.702 27.6254 148.992 27.1265C148.8 26.9924 148.537 27.0386 148.403 27.23C148.269 27.4215 148.315 27.6853 148.506 27.82L148.507 27.8194Z" fill="#99C6A2"/>
<path d="M135.049 20.0464C135.829 20.4088 136.615 20.7886 137.385 21.1746C137.446 21.2051 137.511 21.2195 137.574 21.2195C137.729 21.2195 137.878 21.1334 137.952 20.9856C138.057 20.7767 137.972 20.5223 137.764 20.4175C136.986 20.0277 136.193 19.6448 135.405 19.2787C135.193 19.1802 134.942 19.2725 134.844 19.4845C134.746 19.6966 134.838 19.9485 135.049 20.0464H135.049Z" fill="#99C6A2"/>
<path d="M144.178 24.9666C144.909 25.4187 145.645 25.8877 146.363 26.3617C146.435 26.4091 146.515 26.4315 146.595 26.4315C146.732 26.4315 146.867 26.3642 146.948 26.2407C147.076 26.0455 147.022 25.7829 146.827 25.6545C146.102 25.1761 145.36 24.7022 144.621 24.2463C144.422 24.1234 144.162 24.1852 144.04 24.3841C143.917 24.5831 143.979 24.8437 144.178 24.9666Z" fill="#99C6A2"/>
<path d="M139.687 22.3718C140.445 22.7803 141.207 23.2056 141.952 23.6359C142.019 23.6746 142.091 23.6926 142.163 23.6926C142.309 23.6926 142.451 23.6166 142.529 23.4806C142.646 23.2779 142.577 23.0191 142.374 22.9025C141.622 22.4678 140.852 22.0381 140.088 21.6259C139.883 21.5149 139.626 21.5922 139.515 21.798C139.405 22.0038 139.482 22.2608 139.687 22.3718Z" fill="#99C6A2"/>
<path d="M186.503 118.496C186.273 118.457 186.055 118.614 186.017 118.844C185.876 119.694 185.722 120.553 185.557 121.398C185.512 121.628 185.661 121.851 185.89 121.895C185.918 121.901 185.945 121.903 185.972 121.903C186.17 121.903 186.347 121.763 186.386 121.561C186.552 120.708 186.708 119.841 186.851 118.983C186.889 118.752 186.734 118.534 186.503 118.496Z" fill="#99C6A2"/>
<path d="M185.532 123.618C185.304 123.567 185.078 123.711 185.027 123.939C184.839 124.779 184.637 125.628 184.425 126.463C184.368 126.69 184.505 126.921 184.731 126.978C184.766 126.987 184.8 126.991 184.835 126.991C185.024 126.991 185.196 126.863 185.244 126.672C185.458 125.829 185.662 124.972 185.852 124.124C185.903 123.896 185.76 123.67 185.532 123.618Z" fill="#99C6A2"/>
<path d="M187.191 113.327C186.959 113.302 186.751 113.469 186.725 113.702C186.631 114.559 186.524 115.426 186.406 116.278C186.375 116.51 186.536 116.724 186.767 116.755C186.787 116.758 186.807 116.76 186.826 116.76C187.034 116.76 187.215 116.606 187.244 116.394C187.362 115.534 187.471 114.66 187.565 113.795C187.591 113.562 187.423 113.353 187.191 113.328V113.327Z" fill="#99C6A2"/>
<path d="M187.593 108.128C187.361 108.117 187.161 108.294 187.148 108.528C187.102 109.39 187.042 110.261 186.972 111.118C186.953 111.351 187.126 111.555 187.359 111.574C187.371 111.575 187.382 111.575 187.394 111.575C187.611 111.575 187.796 111.408 187.814 111.187C187.885 110.322 187.945 109.443 187.992 108.574C188.005 108.341 187.826 108.141 187.593 108.128Z" fill="#99C6A2"/>
<path d="M184.273 128.679C184.049 128.615 183.815 128.745 183.752 128.971C183.517 129.798 183.267 130.635 183.01 131.458C182.94 131.681 183.063 131.918 183.286 131.988C183.328 132.001 183.371 132.008 183.413 132.008C183.593 132.008 183.759 131.892 183.816 131.711C184.076 130.881 184.328 130.036 184.565 129.201C184.628 128.976 184.498 128.742 184.273 128.678V128.679Z" fill="#99C6A2"/>
<path d="M188.134 103.24C188.134 103.006 187.945 102.817 187.712 102.817C187.478 102.817 187.289 103.006 187.289 103.24V103.338C187.289 104.2 187.277 105.073 187.254 105.934C187.248 106.168 187.431 106.362 187.665 106.368C187.669 106.368 187.672 106.368 187.677 106.368C187.904 106.368 188.092 106.186 188.099 105.956C188.122 105.088 188.134 104.207 188.134 103.337V103.24V103.24Z" fill="#99C6A2"/>
<path d="M181.679 70.4956C181.729 70.4956 181.779 70.4868 181.828 70.4681C182.047 70.3852 182.156 70.1407 182.074 69.9224C181.767 69.1092 181.444 68.2892 181.114 67.4859C181.025 67.2695 180.779 67.166 180.563 67.2552C180.347 67.3443 180.244 67.5913 180.332 67.8077C180.659 68.6035 180.979 69.4161 181.284 70.2218C181.348 70.3914 181.508 70.4956 181.679 70.4956Z" fill="#99C6A2"/>
<path d="M182.734 133.661C182.513 133.584 182.273 133.702 182.197 133.923C181.917 134.735 181.621 135.556 181.316 136.364C181.234 136.583 181.344 136.827 181.563 136.91C181.612 136.928 181.662 136.937 181.711 136.937C181.882 136.937 182.043 136.832 182.107 136.663C182.414 135.848 182.712 135.02 182.995 134.199C183.071 133.979 182.954 133.737 182.734 133.661L182.734 133.661Z" fill="#99C6A2"/>
<path d="M12.9319 126.512C12.7203 125.678 12.5174 124.829 12.3288 123.988C12.2777 123.759 12.0518 123.616 11.824 123.668C11.5962 123.719 11.453 123.946 11.5047 124.173C11.6951 125.022 11.8999 125.879 12.1134 126.721C12.162 126.912 12.3337 127.04 12.5223 127.04C12.5566 127.04 12.5921 127.036 12.6269 127.027C12.8528 126.97 12.9898 126.739 12.9325 126.513L12.9319 126.512Z" fill="#99C6A2"/>
<path d="M19.0946 143.57C18.9938 143.359 18.7417 143.269 18.5314 143.37C18.321 143.471 18.232 143.724 18.3322 143.935C18.705 144.716 19.094 145.503 19.4893 146.274C19.5639 146.42 19.7121 146.505 19.8658 146.505C19.9306 146.505 19.9965 146.49 20.0581 146.458C20.266 146.351 20.3476 146.096 20.2411 145.888C19.8496 145.124 19.4644 144.344 19.0946 143.57Z" fill="#99C6A2"/>
<path d="M11.7953 121.448C11.6303 120.603 11.4747 119.745 11.3334 118.894C11.2948 118.663 11.077 118.507 10.8473 118.546C10.617 118.585 10.4614 118.802 10.5 119.033C10.6432 119.891 10.8 120.759 10.9662 121.61C11.0054 121.813 11.1822 121.953 11.3807 121.953C11.4075 121.953 11.4349 121.95 11.4623 121.945C11.6913 121.9 11.8407 121.677 11.7959 121.448H11.7953Z" fill="#99C6A2"/>
<path d="M16.9934 138.825C16.905 138.609 16.6579 138.506 16.4419 138.594C16.226 138.683 16.1226 138.93 16.2116 139.147C16.5409 139.951 16.887 140.761 17.2386 141.556C17.3083 141.714 17.4633 141.808 17.6252 141.808C17.6824 141.808 17.7409 141.796 17.7963 141.772C18.0098 141.677 18.1057 141.427 18.0111 141.213C17.6625 140.426 17.3202 139.623 16.9934 138.826V138.825Z" fill="#99C6A2"/>
<path d="M9.98704 111.624C10.2198 111.605 10.3929 111.4 10.3736 111.168C10.3026 110.31 10.2429 109.438 10.1962 108.578C10.1831 108.344 9.98393 108.165 9.75115 108.178C9.51836 108.191 9.33973 108.391 9.35218 108.624C9.4001 109.492 9.46048 110.371 9.53143 111.237C9.54948 111.458 9.73434 111.625 9.95219 111.625C9.96401 111.625 9.97584 111.625 9.98767 111.624H9.98704Z" fill="#99C6A2"/>
<path d="M10.5811 116.805C10.812 116.773 10.9738 116.559 10.9414 116.327C10.8238 115.475 10.7161 114.608 10.6215 113.751C10.596 113.518 10.3875 113.351 10.1553 113.377C9.92316 113.402 9.75636 113.612 9.78187 113.844C9.8771 114.709 9.98541 115.583 10.1043 116.443C10.1335 116.655 10.3147 116.808 10.5226 116.808C10.5418 116.808 10.5611 116.807 10.5811 116.804V116.805Z" fill="#99C6A2"/>
<path d="M14.3484 131.505C14.0901 130.684 13.8405 129.848 13.6046 129.018C13.5405 128.793 13.3071 128.663 13.0824 128.727C12.8577 128.791 12.7276 129.025 12.7917 129.25C13.0295 130.087 13.2816 130.931 13.5424 131.76C13.599 131.941 13.7658 132.056 13.9451 132.056C13.9874 132.056 14.0297 132.05 14.0721 132.036C14.2949 131.966 14.4181 131.728 14.3484 131.505V131.505Z" fill="#99C6A2"/>
<path d="M15.1619 133.969C15.0853 133.749 14.8451 133.631 14.6241 133.708C14.4038 133.785 14.2867 134.025 14.3633 134.247C14.6471 135.069 14.9465 135.898 15.2534 136.71C15.3175 136.88 15.4781 136.984 15.6486 136.984C15.6984 136.984 15.7488 136.975 15.798 136.957C16.0164 136.874 16.1266 136.63 16.0438 136.411C15.7401 135.606 15.4432 134.784 15.1619 133.97V133.969Z" fill="#99C6A2"/>
<path d="M170.22 82.4356C167.822 82.4356 166.338 80.1469 166.309 76.4014C166.338 80.1469 164.89 82.4356 162.492 82.4356C164.89 82.4356 166.338 84.7244 166.309 88.4699C166.338 84.7244 167.821 82.4356 170.22 82.4356Z" fill="#F6C55A"/>
<path d="M42.9408 72.7818C40.5427 72.7818 39.0588 70.4931 39.0296 66.7476C39.0588 70.4931 37.6111 72.7818 35.2129 72.7818C37.6111 72.7818 39.0588 75.0706 39.0296 78.8161C39.0588 75.0706 40.542 72.7818 42.9408 72.7818Z" fill="#F6C55A"/>
<path d="M85.0737 38.5001C82.6755 38.5001 81.1916 36.2114 81.1624 32.4658C81.1916 36.2114 79.7439 38.5001 77.3457 38.5001C79.7439 38.5001 81.1916 40.7888 81.1624 44.5344C81.1916 40.7888 82.6749 38.5001 85.0737 38.5001Z" fill="#F6C55A"/>
<path d="M125.135 75.8561C125.135 75.8561 122.67 88.9817 129.203 94.3225L140.576 99.7213L113.152 105.132L103.371 99.6496L109.875 96.3524C111.822 95.3658 113.252 93.5885 113.773 91.4663C114.14 89.9708 114.507 88.1984 114.65 86.6237C114.894 83.9434 111.891 77.2131 111.891 77.2131L125.136 75.8555L125.135 75.8561Z" fill="#F9D9B7"/>
<path d="M112.112 101.954C112.199 102.014 112.29 102.072 112.384 102.128C113.322 102.678 114.422 102.884 115.506 102.966C118.942 103.225 122.164 102.783 125.063 100.759C127.272 99.2165 128.226 97.7622 130.344 94.9702C131.918 107.066 133.828 119.37 134.879 131.523C134.982 132.708 135.083 133.901 135.39 135.049C135.641 135.987 136.026 136.883 136.41 137.775C137.584 140.505 140.734 156.257 141.908 158.987C131.429 156.233 109.323 158.468 109.14 158.317C108.906 158.124 106.77 140.921 106.7 140.626C104.86 132.821 104.167 124.79 104.109 116.784C104.081 112.815 104.209 108.847 104.429 104.884C104.566 102.409 108.404 95.3431 109.516 96.359C110.367 97.1373 110.424 98.5249 110.599 99.5545C110.772 100.564 111.281 101.378 112.112 101.954V101.954Z" fill="white"/>
<path d="M125.272 151.399C125.638 153.749 125.795 156.16 125.927 158.568H146.65C146.761 156.722 146.561 154.829 146.262 153C145.015 145.387 142.339 138.1 140.663 130.575C138.986 123.05 138.359 114.954 141.143 107.766C142.764 103.582 145.706 100.134 149.204 97.3927C147.243 96.0887 145.132 96.1037 142.924 95.6198C141.601 95.3304 140.314 94.9069 139.001 94.5752C137.742 94.2565 136.452 94.0756 135.178 93.8667C134.455 93.7482 130.224 93.2836 130.079 94.4947C129.8 96.8221 129.339 97.8617 128.445 100.023C127.177 103.09 125.891 106.19 123.951 108.866C122.011 111.543 119.322 113.797 116.141 114.528C120.402 122.246 122.916 130.967 123.43 139.819C123.659 143.761 124.668 147.52 125.272 151.399L125.272 151.399Z" fill="#FFD86C"/>
<path d="M107.376 115.535C107.794 117.469 108.291 119.414 108.632 121.454C109.643 127.488 109.302 133.392 110.964 139.335C112.718 145.606 112.859 152.06 114.992 158.232C109.165 156.193 104.482 154.367 98.437 153.092C98.2186 153.046 97.9827 152.991 97.842 152.819C97.7443 152.7 97.7094 152.544 97.6777 152.395C96.1341 145.098 94.5874 137.77 93.9718 130.324C93.5816 125.605 94.3303 120.882 94.1567 116.159C93.9743 111.192 93.1552 108.019 93.5909 102.982C93.8 100.567 103.98 96.1092 107.593 95.7924C109.028 95.667 109.769 95.3988 109.717 96.4659C109.648 97.8753 108.33 100.566 107.916 101.94C107.466 103.437 107.078 104.955 106.818 106.496C106.281 109.681 106.739 112.596 107.375 115.535H107.376Z" fill="#FFD86C"/>
<path d="M104.346 124.024C104.709 124.95 104.938 125.923 105.192 126.884C106.214 130.74 107.66 134.468 109.102 138.187C109.59 139.442 110.076 140.697 110.564 141.952C111.247 143.713 111.961 145.485 113.024 147.039C112.346 144.473 111.68 141.903 110.962 139.335C109.3 133.392 109.641 127.487 108.631 121.454C108.289 119.413 107.793 117.469 107.375 115.535C106.738 112.596 106.281 109.682 106.818 106.497C107.077 104.955 107.465 103.437 107.915 101.941C108.329 100.568 109.647 97.8759 109.716 96.4665C109.737 96.0468 109.63 95.8379 109.41 95.7412C108.229 96.8245 106.273 100.377 105.787 101.12C104.098 103.708 102.408 106.296 100.718 108.883C100.213 109.656 99.7026 110.44 99.4194 111.319C98.7005 113.548 99.557 115.988 100.751 118.002C101.946 120.017 103.493 121.842 104.346 124.024Z" fill="#FFC639"/>
<path d="M72.7638 145.148C72.3356 145.416 71.8911 145.695 71.6223 146.123C71.0677 147.006 71.4536 148.183 72.0362 149.047C72.6188 149.912 73.398 150.679 73.6931 151.68C73.7777 151.968 73.8256 152.279 74.0148 152.511C74.2327 152.778 74.5937 152.882 74.9366 152.912C77.1338 153.11 78.6071 152.501 80.3007 151.085C82.7735 149.018 86.1582 146.641 88.8284 144.837C90.1803 143.924 91.4774 142.591 91.4843 140.958C91.4899 139.698 90.7231 138.579 89.9631 137.574C89.0052 136.307 88.0498 134.947 86.3705 135.468C84.8904 135.927 83.2117 137.898 81.9793 138.824C78.9992 141.063 75.9238 143.173 72.7632 145.148H72.7638Z" fill="#F9D9B7"/>
<path d="M87.5902 139.417C88.3863 141.271 88.2705 143.354 88.0297 145.378C87.9867 145.741 88.3813 146.014 88.6994 145.836C93.7422 143.007 96.7952 137.317 97.7898 131.571C98.8342 125.534 97.9516 119.349 97.0678 113.286C96.6968 110.739 96.3253 108.191 95.9543 105.644C95.8491 104.923 94.7294 103.13 94.115 102.379C93.9974 102.235 93.759 102.297 93.7117 102.478C92.2696 107.987 91.4909 113.164 90.7913 118.803C90.3581 122.291 89.7662 125.782 88.6701 129.129C88.207 130.544 85.901 135.067 84.5043 136.237C84.3536 136.364 84.3954 136.589 84.5734 136.672C85.84 137.263 87.0394 138.134 87.5896 139.416L87.5902 139.417Z" fill="#FFD86C"/>
<path d="M149.278 151.6C148.118 152.021 146.957 152.443 145.797 152.864C144.316 153.403 142.831 153.942 141.298 154.306C138.936 154.866 136.498 155.002 134.076 155.135C129.592 155.381 125.109 155.628 120.625 155.875C119.666 155.928 118.675 155.976 117.772 155.648C117.093 155.403 116.508 154.959 115.916 154.544C113.425 152.799 110.6 151.447 107.586 151.05C104.573 150.652 101.358 151.28 98.9528 153.143C98.4953 153.497 98.0067 153.915 97.4285 153.888C96.5409 153.846 96.0529 152.708 96.3218 151.86C96.5907 151.011 97.3351 150.417 98.0416 149.876C99.5211 148.742 101.001 147.608 102.481 146.475C103.986 145.321 105.526 144.148 107.318 143.53C108.727 143.044 110.235 142.922 111.725 142.875C112.309 142.857 112.906 142.851 113.465 143.021C114.472 143.327 115.219 144.15 115.98 144.878C117.025 145.878 118.21 146.768 119.569 147.26C121.235 147.863 123.053 147.835 124.825 147.8C127.954 147.737 131.104 147.673 134.172 147.052C136.271 146.627 138.315 145.944 140.428 145.605C141.993 145.353 143.581 145.292 145.165 145.232C145.517 145.218 145.896 145.212 146.185 145.414C146.583 145.693 146.653 146.245 146.687 146.731C146.811 148.52 146.934 150.307 147.058 152.096C147.419 152.024 147.686 151.974 148.033 151.849C148.398 151.717 148.894 151.54 149.278 151.602V151.6Z" fill="#F9D9B7"/>
<path d="M152.791 104.127C153.464 106.085 154.014 108.073 154.564 109.727C156.464 115.449 157.303 121.327 158.792 127.136C160.148 132.424 164.168 140.681 161.94 146.119C161.183 147.965 159.574 149.335 157.851 150.337C155.827 151.514 153.604 152.581 151.425 153.439C148.482 154.599 140.821 156.209 138.313 155.26C138.689 150.863 137.451 148.082 133.352 147.213C137.393 144.516 141.37 142.43 146.107 141.362C146.205 140.292 145.624 139.293 145.091 138.362C141.003 131.221 138.521 123.164 137.879 114.957C137.681 112.429 137.665 109.828 138.482 107.427C139.717 103.793 142.684 101.102 145.762 98.9882C147.553 97.7584 148.053 96.0004 149.562 97.7609C150.97 99.4035 151.972 101.743 152.792 104.127H152.791Z" fill="#FFD86C"/>
<path d="M139.41 125.19C138.843 122.523 138.45 119.819 138.289 117.08C138.116 114.344 138.246 111.569 138.764 108.848C139.318 106.146 140.152 103.468 141.609 101.078C142.344 99.8974 143.229 98.7779 144.36 97.9342C145.496 97.1166 146.902 96.617 148.27 96.7567C146.906 96.8702 145.652 97.4552 144.695 98.3532C143.709 99.2201 142.951 100.325 142.339 101.496C141.128 103.851 140.348 106.441 139.837 109.058C139.311 111.675 139.154 114.363 139.126 117.058C139.111 119.756 139.291 122.467 139.411 125.191L139.41 125.19Z" fill="#FFC639"/>
<path d="M132.771 146.909C133.632 145.073 135.46 143.813 137.339 143.129C139.255 142.452 141.26 142.254 143.241 142.279C141.324 142.822 139.39 143.149 137.587 143.815C135.783 144.462 134.1 145.422 132.771 146.909V146.909Z" fill="#FFC639"/>
<path d="M94.8189 138.465C93.8797 136.293 93.7702 133.855 93.6799 131.54C93.6139 129.207 93.4303 126.946 93.0712 124.649C92.7544 122.356 92.3448 120.049 92.1855 117.698C92.1139 116.523 92.0759 115.343 92.127 114.164C92.2241 112.987 92.3648 111.814 92.6722 110.683C92.3181 115.369 93.4764 119.854 94.1523 124.494C94.4891 126.808 94.6528 129.208 94.5165 131.539C94.4355 133.865 94.3191 136.171 94.8177 138.465H94.8189Z" fill="#FFC639"/>
<path d="M100.33 71.8097C99.0386 71.2727 97.6724 70.1726 97.8847 68.7857C97.9344 68.4589 98.0732 68.1452 98.0757 67.8147C98.0838 66.7545 96.8384 66.2319 96.0846 65.4891C95.1342 64.5531 94.9443 62.9372 95.6514 61.8041C96.0877 61.1037 96.8066 60.5998 97.1689 59.8584C97.7216 58.7258 97.3095 57.39 97.0736 56.1521C96.8216 54.8306 96.7842 53.4674 96.9635 52.134C97.0438 51.5378 97.2162 50.8755 97.7371 50.5781C98.3926 50.2033 99.3424 50.5656 99.8969 50.0536C100.13 49.8391 100.228 49.5191 100.325 49.2167C100.673 48.1278 101.13 47.0502 101.879 46.1883C102.629 45.3264 103.709 44.6997 104.848 44.7122C106.612 44.7309 108.367 46.2157 109.975 45.4855C111.043 45.0009 111.488 43.7524 112.21 42.8269C113.603 41.0415 116.097 40.4746 118.347 40.6854C120.596 40.8962 122.729 41.7462 124.922 42.29C125.729 42.4902 126.561 42.6542 127.28 43.0701C128.04 43.5086 128.62 44.1946 129.25 44.8057C131.517 47.0034 134.498 48.2725 137.125 50.0205C138.41 50.8755 139.757 52.2288 139.371 53.7274C139.304 53.9856 139.187 54.2319 139.159 54.497C139.076 55.2827 139.765 55.902 140.322 56.4602C140.878 57.0189 141.371 57.9164 140.897 58.5475C140.725 58.777 140.455 58.9123 140.255 59.1181C139.544 59.8477 139.943 61.0613 140.413 61.965C140.883 62.8692 141.375 64.0124 140.774 64.8349C140.362 65.3987 139.58 65.5602 139.098 66.0647C138.785 66.3915 138.624 66.8343 138.517 67.2746C138.22 68.4963 138.272 69.7766 138.048 71.0139C137.824 72.2512 137.23 73.5346 136.096 74.0691C135.341 74.4239 134.423 74.4127 133.76 74.9191C132.871 75.5989 132.809 76.8904 132.359 77.9169C131.67 79.4891 129.962 80.4576 128.254 80.5736C126.547 80.6896 122.314 81.7816 120.866 80.8679C119.421 79.9562 120.713 77.0419 119.258 76.147C116.804 74.6372 113.912 74.051 111.087 73.491C110.145 73.3039 109.179 73.1162 108.229 73.2646C107.404 73.3931 106.638 73.7691 105.824 73.9562C103.802 74.4208 102.23 72.601 100.33 71.8109L100.33 71.8097Z" fill="#4D3932"/>
<path d="M139.222 45.4342C138.928 44.331 138.621 43.2016 137.962 42.2699C136.396 40.0566 133.304 39.5253 131.357 37.6381C131.014 37.3057 130.673 36.9122 130.202 36.8324C129.895 36.78 129.584 36.8736 129.29 36.9752C127.152 37.7117 125.032 38.7875 123.384 40.3615C122.554 41.1548 121.906 42.0647 121.463 43.1242C120.896 44.4763 121.105 46.1283 121.439 47.5215C121.454 47.5826 121.469 47.6431 121.484 47.7042C121.74 48.7051 122.106 49.6724 122.5 50.6259C122.678 51.0594 122.846 51.4865 122.994 51.9268C123.015 51.9873 123.269 52.6933 123.13 52.5561C124.189 53.6025 126.334 54.1158 127.759 54.4538C129.355 54.8323 131.077 55.035 132.798 55.0026C132.799 54.8972 132.816 54.7924 132.854 54.6989C133.017 54.301 133.485 54.1937 133.855 54.3303C133.871 54.3359 133.879 54.339 133.888 54.3428C133.938 54.3528 133.988 54.3677 134.039 54.3771C134.064 54.3815 134.146 54.4027 134.209 54.4101C134.204 54.4083 134.209 54.4051 134.253 54.402C134.301 54.3983 134.35 54.3977 134.398 54.3933C134.476 54.3858 134.552 54.3696 134.631 54.3596C134.669 54.349 134.705 54.339 134.743 54.3272C134.818 54.3041 134.893 54.2779 134.967 54.2505C135.127 54.1906 135.284 54.122 135.44 54.0509C136.122 53.7391 136.785 53.4117 137.538 53.3175C138.282 52.7057 138.809 51.905 138.865 50.9459C138.889 50.5243 138.819 50.0958 138.895 49.6805C138.987 49.181 139.281 48.7426 139.431 48.258C139.714 47.3444 139.468 46.3597 139.222 45.4348L139.222 45.4342Z" fill="#4D3932"/>
<path d="M112.403 45.3068C112.718 44.2229 112.766 43.1079 112.202 41.9572C111.87 41.2825 111.407 40.6776 110.892 40.1331C109.91 39.0954 108.714 38.2267 107.436 37.5906C107.231 37.4883 107.012 37.3898 106.782 37.3985C106.431 37.4116 106.142 37.6667 105.86 37.8774C104.256 39.0717 101.942 39.164 100.585 40.6339C100.013 41.2525 99.681 42.0495 99.3605 42.8285C99.0916 43.4814 98.8171 44.1786 98.9372 44.874C99.0007 45.2432 99.1744 45.5924 99.1937 45.9666C99.2099 46.2778 99.1177 46.5846 99.0953 46.8958C99.0381 47.681 99.4233 48.3813 100.004 48.927C100.556 49.1908 100.966 49.5681 101.248 50.0109C103.071 50.5802 105.066 50.7143 106.887 50.5272C107.963 50.4162 109.581 50.2466 110.456 49.5824C110.2 49.777 110.933 48.6152 111.228 48.024C111.669 47.139 112.133 46.2341 112.403 45.3068Z" fill="#4D3932"/>
<path d="M104.215 47.5807C104.179 47.5713 104.146 47.5507 104.121 47.5202C103.426 46.672 102.896 45.668 102.589 44.6153C102.491 44.2785 102.399 43.88 102.466 43.4815C102.542 43.0288 102.834 42.6564 103.208 42.5336C103.345 42.4893 103.48 42.4787 103.61 42.4687C103.724 42.46 103.832 42.4519 103.927 42.4207C104.266 42.3091 104.411 41.9524 104.579 41.5389C104.72 41.1928 104.865 40.8354 105.149 40.5841C105.584 40.2 106.276 40.1476 107.049 40.4319L107.203 40.4912C107.4 40.5685 107.585 40.6409 107.776 40.6583C107.969 40.6752 108.206 40.6153 108.299 40.4425C108.348 40.354 108.456 40.3209 108.547 40.369C108.635 40.417 108.669 40.5286 108.621 40.6172C108.469 40.8972 108.125 41.0568 107.743 41.0232C107.501 41.0007 107.282 40.9159 107.069 40.8323L106.922 40.7756C106.619 40.6633 105.859 40.4438 105.391 40.8585C105.171 41.0531 105.041 41.3705 104.917 41.6773C104.731 42.1332 104.54 42.6047 104.041 42.7687C103.904 42.8136 103.769 42.8242 103.637 42.8342C103.523 42.8429 103.416 42.851 103.321 42.8822C103.075 42.9633 102.88 43.2227 102.826 43.5433C102.771 43.8688 102.852 44.2168 102.938 44.5136C103.231 45.5189 103.737 46.4787 104.402 47.2888C104.466 47.3668 104.454 47.4821 104.377 47.5464C104.329 47.585 104.268 47.5962 104.214 47.5819L104.215 47.5807Z" fill="#382924"/>
<path d="M124.739 60.9152C124.678 60.9158 124.618 60.8915 124.574 60.8428C122.889 58.9395 120.714 57.4889 118.61 56.0851C116.519 54.69 114.357 53.247 112.646 51.3492L112.526 51.2145C112.211 50.8603 111.913 50.526 111.528 50.319C111.423 50.2629 111.384 50.1319 111.44 50.0265C111.495 49.9211 111.626 49.8818 111.731 49.9386C112.184 50.1812 112.522 50.5603 112.848 50.927L112.968 51.0605C114.642 52.9183 116.782 54.3458 118.851 55.7259C120.977 57.144 123.175 58.6108 124.898 60.5566C124.977 60.6457 124.968 60.7823 124.88 60.8615C124.84 60.8971 124.79 60.9151 124.74 60.9158L124.739 60.9152Z" fill="#382924"/>
<path d="M98.562 60.2378C98.5651 60.481 98.5794 60.7236 98.6031 60.9637C98.6149 61.0822 98.7207 61.1689 98.839 61.157C98.9572 61.1452 99.045 61.0423 99.0319 60.9206C98.8558 59.1626 99.2909 57.2281 100.256 55.4738C101.088 53.9634 102.334 52.5147 103.961 51.1695C104.323 50.8696 105.228 50.221 105.828 50.6556C105.924 50.7255 106.058 50.7043 106.128 50.607C106.197 50.5116 106.176 50.375 106.08 50.3058C105.267 49.7165 104.23 50.385 103.686 50.8365C102.018 52.2166 100.737 53.7065 99.8784 55.2649C98.9877 56.8832 98.5384 58.5876 98.5614 60.2371L98.562 60.2378Z" fill="#382924"/>
<path d="M133.751 48.5648C133.629 48.5667 133.521 48.4775 133.502 48.3534C133.393 47.6207 133.759 46.9945 134.112 46.389C134.36 45.9624 134.596 45.5596 134.674 45.1274C134.869 44.0585 134.073 43.0413 133.184 42.1009C132.86 41.7585 132.493 41.37 132.044 41.2122C131.799 41.1268 131.532 41.1074 131.28 41.1C128.814 41.0251 126.392 42.0872 124.776 43.9425C124.761 43.9593 124.748 43.9849 124.74 44.0105C124.804 44.0522 124.847 44.1233 124.851 44.2057C124.857 44.3422 124.752 44.4588 124.616 44.4651C124.452 44.4657 124.338 44.3977 124.274 44.2661C124.176 44.0641 124.263 43.7772 124.402 43.6163C126.115 41.6494 128.694 40.5287 131.295 40.6042C131.574 40.6129 131.9 40.636 132.208 40.7445C132.771 40.9422 133.2 41.3956 133.544 41.7604C134.523 42.7956 135.396 43.9313 135.162 45.2178C135.068 45.736 134.799 46.1957 134.54 46.6409C134.215 47.1966 133.909 47.7217 133.993 48.2823C134.013 48.4177 133.92 48.5443 133.785 48.5642C133.774 48.5661 133.763 48.5667 133.752 48.5667L133.751 48.5648Z" fill="#382924"/>
<path d="M129.473 68.304C129.552 67.2738 129.095 66.0346 128.147 65.6954C127.122 65.3287 126.691 65.3474 125.553 66.7113C125.553 66.7113 125.539 66.672 125.513 66.6034C121.569 64.783 117.564 63.5438 113.637 60.8073C112.088 59.7284 106.723 55.2763 106.518 54.2642C106.479 54.261 104.941 56.1968 104.754 56.445C100.856 61.6405 100.68 65.4409 101.548 71.9298C102.016 75.4303 103.038 78.8846 104.792 81.9928C106.19 84.4686 108.296 86.4779 110.868 87.5543C115.089 89.3217 120.672 88.1038 125.84 75.6217C125.84 75.6217 128.7 78.4561 129.473 68.3034V68.304Z" fill="#F9D9B7"/>
<path d="M113.638 60.8078C112.089 59.7289 106.723 55.2768 106.518 54.2647C106.503 54.2634 106.24 54.5815 105.922 54.9756C105.922 54.9743 105.921 54.9737 105.92 54.9725C105.918 54.9768 105.916 54.9818 105.913 54.9862C105.826 55.0941 105.735 55.207 105.645 55.3205C106.09 55.6878 106.475 56.1393 106.672 56.6706C107.911 58.1106 109.276 59.4489 110.803 60.5827C111.742 61.2805 112.741 61.8998 113.794 62.4099C114.66 62.829 115.56 63.1739 116.458 63.5175C117.696 63.9921 118.934 64.4667 120.172 64.9413C121.929 65.6142 123.405 66.1704 125.306 66.5097C121.428 64.7411 117.496 63.4963 113.638 60.8084L113.638 60.8078Z" fill="#F9D9B7"/>
<path d="M128.073 70.4416C127.903 70.075 127.704 69.7182 127.483 69.3815C127.421 69.2861 127.272 69.0603 127.043 68.9905C127.131 68.9075 127.223 68.8308 127.313 68.7572C127.559 68.5527 127.866 68.2988 128.206 68.2552C128.29 68.2446 128.349 68.1673 128.339 68.0824C128.328 67.9976 128.251 67.9384 128.166 67.949C127.738 68.0039 127.393 68.2895 127.116 68.519C126.865 68.7267 126.553 68.9848 126.406 69.3453C126.324 69.5455 126.3 69.7619 126.279 69.9533L126.089 71.6696C126.079 71.7544 126.14 71.8305 126.225 71.8398C126.309 71.8492 126.385 71.7881 126.394 71.7033L126.584 69.987C126.604 69.808 126.625 69.6222 126.69 69.4619C126.719 69.3927 126.756 69.3272 126.799 69.2642C126.827 69.2861 126.862 69.2991 126.899 69.2985C126.991 69.2967 127.09 69.3815 127.21 69.5648C127.423 69.8885 127.613 70.2315 127.777 70.5832C127.802 70.6368 127.852 70.6705 127.906 70.6761C127.935 70.6793 127.965 70.6749 127.993 70.6612C128.074 70.6219 128.109 70.5233 128.071 70.441L128.073 70.4416Z" fill="#FCA388"/>
<path d="M115.84 70.9931C115.911 71.9136 115.486 72.7 114.891 72.7493C114.296 72.7991 113.756 72.0932 113.685 71.1727C113.615 70.2522 114.039 69.4658 114.634 69.4166C115.229 69.3667 115.769 70.0726 115.84 70.9931Z" fill="#4D3932"/>
<path d="M106.338 71.5449C106.409 72.4653 105.984 73.2517 105.389 73.301C104.794 73.3509 104.254 72.6449 104.184 71.7245C104.113 70.804 104.537 70.0176 105.132 69.9683C105.727 69.9184 106.267 70.6244 106.338 71.5449Z" fill="#4D3932"/>
<path d="M114.945 65.4592C114.408 65.3002 113.848 65.1399 113.294 65.2322C112.741 65.3245 112.201 65.751 112.174 66.3123C112.701 66.6653 113.393 66.5736 114.026 66.535C115.464 66.4476 116.74 66.7988 118.094 67.1991C118.931 65.9768 115.749 65.6962 114.945 65.4592Z" fill="#4D3932"/>
<path d="M104.302 65.9213C104.734 65.7785 105.183 65.6332 105.634 65.693C106.084 65.7529 106.533 66.084 106.57 66.538C106.152 66.838 105.59 66.7825 105.076 66.7682C103.908 66.7357 102.885 67.0544 101.799 67.4155C101.088 66.4482 103.658 66.1352 104.302 65.9213Z" fill="#4D3932"/>
<path d="M114.521 78.7381L109.329 79.8145C109.214 79.8382 109.176 80.0053 109.261 80.1094C110.094 81.1359 113.464 84.8166 114.703 78.9707C114.731 78.8428 114.631 78.715 114.521 78.7381Z" fill="#FCA388"/>
<path d="M110.048 76.5206C109.722 76.4682 109.47 76.3453 109.288 76.1508C108.711 75.5321 109.032 74.4682 109.342 73.4392C109.446 73.0962 109.543 72.7719 109.597 72.4944C109.63 72.3235 109.787 72.2069 109.966 72.2443C110.137 72.2774 110.249 72.4426 110.216 72.6141C110.156 72.9241 110.054 73.2627 109.946 73.6219C109.711 74.3996 109.419 75.3669 109.749 75.7198C109.906 75.8882 110.32 76.0373 111.402 75.789C111.572 75.7504 111.741 75.8564 111.779 76.026C111.818 76.1957 111.712 76.3653 111.543 76.404C110.934 76.5436 110.438 76.5829 110.048 76.5206Z" fill="#FCA388"/>
<path d="M125.35 98.3057C124.916 97.6153 124.667 96.8133 124.583 95.9995C124.497 95.1838 124.567 94.3525 124.77 93.5542C124.873 93.1551 125.012 92.766 125.177 92.388C125.344 92.0107 125.54 91.6465 125.759 91.2973C126.198 90.5982 126.729 89.959 127.322 89.3846C127.618 89.0978 127.931 88.8271 128.253 88.5702C128.575 88.3145 128.902 88.0725 129.214 87.8199C129.525 87.568 129.822 87.3054 130.084 87.0154C130.346 86.7255 130.577 86.4074 130.777 86.0706C131.175 85.3971 131.447 84.6488 131.574 83.8811C131.703 83.1127 131.681 82.3263 131.51 81.5724C131.342 80.819 131.029 80.0987 130.591 79.4745C130.372 79.1627 130.122 78.8758 129.842 78.6213C129.562 78.365 129.251 78.1361 128.923 77.921C128.267 77.4888 127.543 77.1153 126.839 76.6419C126.487 76.4062 126.141 76.1424 125.821 75.8362C125.502 75.5319 125.211 75.1776 124.977 74.796C124.507 74.0308 124.237 73.1751 124.1 72.3177C124.032 71.888 123.998 71.4558 123.991 71.0236C123.99 70.917 123.99 70.8053 123.991 70.7024L123.998 70.3919C124.004 70.1854 124.011 69.979 124.019 69.7732C124.054 68.9494 124.107 68.1281 124.184 67.3043C124.222 66.892 124.27 66.4798 124.326 66.0645C124.384 65.6485 124.45 65.2332 124.553 64.8022L125.781 65.1141C125.685 65.4733 125.612 65.8612 125.548 66.2503C125.485 66.6407 125.429 67.0361 125.382 67.4334C125.287 68.2291 125.214 69.0317 125.16 69.8343C125.147 70.0352 125.134 70.2353 125.124 70.4355L125.11 70.7355C125.106 70.8365 125.102 70.9282 125.1 71.0249C125.092 71.4071 125.111 71.7894 125.157 72.1661C125.251 72.9182 125.46 73.6522 125.823 74.289C126.004 74.6076 126.224 74.8958 126.484 75.162C126.743 75.4283 127.038 75.6703 127.354 75.8979C127.985 76.3551 128.697 76.7542 129.385 77.24C129.728 77.4826 130.066 77.7482 130.377 78.052C130.689 78.3557 130.966 78.6962 131.202 79.0579C131.675 79.7832 131.994 80.5976 132.153 81.4383C132.314 82.2789 132.307 83.1514 132.138 83.9846C131.971 84.8184 131.65 85.6166 131.195 86.3294C130.967 86.6855 130.706 87.0204 130.412 87.3241C130.118 87.6291 129.794 87.896 129.465 88.1436C129.136 88.3918 128.801 88.6232 128.477 88.8626C128.155 89.1027 127.843 89.3541 127.546 89.6235C126.952 90.1617 126.415 90.7653 125.965 91.4308C125.74 91.7632 125.538 92.1112 125.363 92.4729C125.19 92.8358 125.041 93.2106 124.928 93.5966C124.702 94.3687 124.606 95.1832 124.663 95.9908C124.719 96.7965 124.938 97.5997 125.348 98.3045L125.35 98.3057Z" fill="#4D3932"/>
<path d="M96.5496 83.0043C97.1434 82.5148 97.5996 81.8737 97.8971 81.1715C98.1971 80.4693 98.349 79.7084 98.3583 78.9501C98.3627 78.1911 98.2313 77.4347 97.9923 76.7162C97.7533 75.9972 97.4141 75.3137 97.0095 74.6745C96.8073 74.3539 96.5875 74.0471 96.3535 73.7471C96.1201 73.4465 95.8749 73.149 95.6402 72.8372C95.4056 72.5254 95.1809 72.1974 94.9948 71.8413C94.8087 71.4864 94.6605 71.1116 94.5516 70.7256C94.3338 69.9536 94.2715 69.1353 94.3748 68.3327C94.4763 67.5301 94.7551 66.745 95.1809 66.0527C95.6054 65.3592 96.1705 64.7506 96.8384 64.276C97.1714 64.039 97.533 63.8357 97.9096 63.6729C98.2849 63.512 98.6695 63.3861 99.0517 63.2825C99.8167 63.0736 100.575 62.9383 101.286 62.7387C101.997 62.5404 102.659 62.2716 103.191 61.8457C103.73 61.421 104.164 60.856 104.491 60.2286C104.655 59.9149 104.793 59.585 104.906 59.2464C104.935 59.1616 104.962 59.0761 104.986 58.9907L105.064 58.7219C105.115 58.5404 105.166 58.3577 105.214 58.175C105.407 57.4422 105.582 56.702 105.733 55.9623C105.808 55.5925 105.876 55.2227 105.933 54.8554C105.99 54.4887 106.036 54.1207 106.053 53.7759L107.318 53.8526C107.286 54.2754 107.223 54.6702 107.151 55.0618C107.079 55.4528 106.998 55.8376 106.909 56.2193C106.731 56.982 106.531 57.7347 106.311 58.4831C106.256 58.6702 106.199 58.8572 106.141 59.0443C106.111 59.1391 106.083 59.2296 106.05 59.3275C106.018 59.4248 105.984 59.522 105.947 59.6181C105.802 60.0035 105.629 60.3802 105.424 60.7406C105.015 61.4609 104.472 62.127 103.783 62.6308C103.439 62.884 103.059 63.0867 102.676 63.2439C102.291 63.4029 101.9 63.5164 101.512 63.6112C100.737 63.7983 99.976 63.9056 99.2527 64.0764C98.8911 64.1606 98.5401 64.2629 98.2046 64.3926C97.871 64.523 97.5535 64.687 97.2535 64.884C96.6541 65.2782 96.1319 65.7995 95.7323 66.4038C95.3315 67.0081 95.0583 67.6948 94.9406 68.4151C94.8217 69.1347 94.8504 69.8837 95.0253 70.5984C95.1124 70.9557 95.2363 71.305 95.3956 71.6367C95.5543 71.9685 95.7541 72.2847 95.9707 72.5946C96.1873 72.9052 96.4207 73.2095 96.6473 73.5245C96.8751 73.8388 97.0917 74.1656 97.2884 74.5023C97.6818 75.1759 98.0067 75.8924 98.2264 76.642C98.4461 77.391 98.5538 78.1743 98.5214 78.9545C98.484 79.7327 98.3011 80.5036 97.9712 81.2051C97.6438 81.9067 97.1595 82.5366 96.549 83.0043H96.5496Z" fill="#4D3932"/>
<path d="M107.707 52.9662C107.569 53.4483 107.524 53.9653 107.565 54.4891C107.566 54.5546 107.578 54.6201 107.586 54.6856L107.611 54.8827L107.649 55.0797C107.662 55.1452 107.673 55.2113 107.692 55.2768C107.726 55.4071 107.755 55.5393 107.799 55.6684L107.86 55.8636L107.931 56.0563C108.124 56.5702 108.377 57.0704 108.678 57.5443C108.981 58.0164 109.315 58.4823 109.703 58.8652C109.898 59.0566 110.107 59.2288 110.334 59.3653C110.447 59.4358 110.566 59.4919 110.687 59.5443C110.81 59.5917 110.935 59.6329 111.073 59.6653C111.345 59.7351 111.653 59.785 111.953 59.9272C112.102 59.9965 112.245 60.0956 112.362 60.2104C112.481 60.3251 112.576 60.4554 112.657 60.5895C112.819 60.8583 112.922 61.1439 113.019 61.4202C113.117 61.6952 113.213 61.9665 113.358 62.2091C113.429 62.3301 113.516 62.4436 113.615 62.5403C113.715 62.6369 113.835 62.7136 113.965 62.7697C114.095 62.8265 114.237 62.8558 114.38 62.8539C114.522 62.8521 114.665 62.8072 114.786 62.7242C114.673 62.8178 114.531 62.8776 114.382 62.8932C114.233 62.9088 114.081 62.8914 113.938 62.844C113.795 62.7966 113.657 62.7261 113.538 62.6301C113.418 62.5328 113.315 62.4199 113.226 62.297C113.047 62.0507 112.922 61.7757 112.799 61.51C112.679 61.2437 112.555 60.9855 112.394 60.7654C112.313 60.6563 112.225 60.5565 112.125 60.4766C112.025 60.3962 111.918 60.3351 111.797 60.2921C111.558 60.2029 111.278 60.1786 110.98 60.1324C110.831 60.1112 110.673 60.0769 110.519 60.032C110.366 59.9827 110.215 59.9272 110.073 59.8555C109.784 59.7164 109.522 59.5362 109.281 59.3391C109.04 59.1408 108.82 58.9238 108.614 58.6993C108.51 58.5877 108.413 58.4723 108.315 58.3557C108.216 58.2409 108.124 58.1199 108.03 57.9996C107.659 57.5169 107.33 56.9949 107.06 56.4343L106.96 56.2235L106.87 56.0064C106.806 55.863 106.757 55.7127 106.704 55.5643C106.676 55.4907 106.655 55.4134 106.633 55.3373L106.567 55.1078L106.514 54.8733C106.498 54.7947 106.477 54.7174 106.467 54.6369C106.357 54.0015 106.349 53.3304 106.476 52.6719L107.709 52.9669L107.707 52.9662Z" fill="#4D3932"/>
<g opacity="0.29">
<path d="M117.744 74.8402C117.589 75.0366 117.439 75.2455 117.373 75.4875C117.218 76.0612 117.597 76.6755 118.114 76.9661C118.632 77.2567 119.252 77.291 119.844 77.2773C120.195 77.2692 120.552 77.2455 120.876 77.1108C121.259 76.9518 121.565 76.6499 121.834 76.3344C122.187 75.9203 122.5 75.4613 122.673 74.9449C122.846 74.4286 122.868 73.8473 122.653 73.3472C122.57 73.1526 122.447 72.9686 122.272 72.8495C122.118 72.7448 121.933 72.6967 121.75 72.6637C120.054 72.3612 118.724 73.6029 117.744 74.8395V74.8402Z" fill="#F9C5E6"/>
</g>
<g opacity="0.29">
<path d="M103.903 76.6983C103.401 76.1008 102.811 75.5096 102.141 75.103C102.453 76.4133 102.855 77.7023 103.353 78.9558C103.436 78.9203 103.517 78.881 103.596 78.8342C104.104 78.5286 104.465 77.9031 104.294 77.3344C104.221 77.0949 104.065 76.8897 103.904 76.6983H103.903Z" fill="#F9C5E6"/>
</g>
<path d="M109.616 153.257H26.3906V155.814H109.616V153.257Z" fill="#B2CFED"/>
<path d="M73.1007 152.591H108.228C109.353 152.591 110.268 153.507 110.268 154.636C110.268 155.045 109.935 155.378 109.527 155.378H73.1007C72.6917 155.378 72.3594 155.045 72.3594 154.636V153.334C72.3594 152.924 72.6917 152.591 73.1007 152.591Z" fill="#71A379"/>
<path d="M3.94994 120.037L24.684 154.001C25.2062 154.856 26.1355 155.378 27.1369 155.378H79.511L57.9411 120.045C56.6346 117.905 54.3093 116.6 51.8034 116.6H5.87695C4.11364 116.6 3.03063 118.532 3.94994 120.037Z" fill="#71A379"/>
<path d="M4.47065 120.908L24.6688 154.035C25.1773 154.87 26.0829 155.378 27.0582 155.378H78.0792L57.0663 120.915C55.7935 118.828 53.5285 117.555 51.0874 117.555H6.34787C4.62999 117.555 3.57499 119.44 4.47065 120.908Z" fill="#99C6A2"/>
<path d="M40.367 139.929C41.2935 139.317 41.291 137.675 40.3612 136.261C39.4315 134.848 37.9266 134.197 37 134.809C36.0734 135.421 36.076 137.063 37.0057 138.477C37.9355 139.89 39.4404 140.541 40.367 139.929Z" fill="#71A379"/>
<path d="M1.94693 155.091H203.052C204.127 155.091 204.999 155.966 204.999 157.042V158.049C204.999 159.126 204.127 160 203.052 160H1.94693C0.872632 160 0 159.126 0 158.049V157.042C0 155.966 0.872632 155.091 1.94693 155.091Z" fill="#7AC48C"/>
<path d="M16.7559 56.9127V62.5498C16.7559 62.962 17.0926 63.2994 17.504 63.2994H23.9025C24.3139 63.2994 24.6506 62.962 24.6506 62.5498V56.9127C24.6506 56.6265 24.4882 56.3764 24.2517 56.2504V53.822C24.2517 53.3905 24.167 52.9714 24.0008 52.5772C23.8402 52.1962 23.6099 51.8545 23.3168 51.5607C23.0236 51.267 22.6825 51.0362 22.3022 50.8753C21.9082 50.7082 21.4906 50.624 21.0599 50.624H20.3472C19.9165 50.624 19.4982 50.7088 19.1049 50.8753C18.7246 51.0362 18.3835 51.267 18.0903 51.5607C17.7972 51.8545 17.5669 52.1962 17.4063 52.5772C17.2606 52.9221 17.1779 53.2851 17.1592 53.6599H17.8731C17.9571 52.3658 19.0345 51.3381 20.3472 51.3381H21.0599C22.4273 51.3381 23.5396 52.4525 23.5396 53.8226V56.1638L17.1555 56.2511C16.9189 56.377 16.7565 56.6271 16.7565 56.9134L16.7559 56.9127ZM19.8891 59.0761C19.8891 58.6252 20.2539 58.2604 20.7032 58.2604C21.1526 58.2604 21.5174 58.6259 21.5174 59.0761C21.5174 59.3873 21.3437 59.658 21.0879 59.7952V61.0231C21.0879 61.1422 20.9914 61.2389 20.8725 61.2389H20.5339C20.4151 61.2389 20.3186 61.1422 20.3186 61.0231V59.7952C20.0628 59.6574 19.8891 59.3873 19.8891 59.0761Z" fill="#99C6A2"/>
<path d="M9.43416 46.3016C10.1481 46.3016 10.834 46.3235 11.5186 46.2979C14.4316 46.1894 16.9872 45.1186 19.2858 43.3699C19.6773 43.0725 20.0694 42.7738 20.4379 42.4488C20.6402 42.2705 20.7678 42.2917 20.9632 42.4563C22.0755 43.393 23.2556 44.2281 24.5484 44.906C26.6048 45.9848 28.8175 46.3247 31.1006 46.3609C31.3807 46.3653 31.6601 46.3609 31.9863 46.3609C31.9863 46.528 31.9863 46.659 31.9863 46.79C31.9863 51.2602 31.9508 55.731 32.0012 60.2006C32.033 63.0113 30.9506 65.2489 28.7192 66.8697C26.9129 68.1824 24.9965 69.3436 23.1218 70.561C22.4004 71.0293 21.6628 71.4734 20.9209 71.9093C20.8126 71.9729 20.6041 71.9866 20.5026 71.9242C18.3372 70.5891 16.17 69.2563 14.027 67.8856C12.9272 67.1821 11.9164 66.3583 11.0761 65.3424C9.99122 64.0303 9.42793 62.5086 9.41797 60.8217C9.38997 56.0933 9.40802 51.3643 9.40864 46.6353C9.40864 46.5629 9.41922 46.4906 9.43416 46.3004V46.3016ZM12.3172 49.171C12.3035 49.2477 12.2917 49.2832 12.2917 49.3188C12.2917 52.9751 12.2898 56.6309 12.2942 60.2872C12.296 61.4865 12.5238 62.6315 13.3778 63.5301C13.9168 64.097 14.4919 64.657 15.1386 65.088C16.9063 66.2666 18.7182 67.3786 20.5207 68.5036C20.6128 68.561 20.8039 68.5429 20.906 68.4849C21.4188 68.1949 21.9286 67.895 22.4203 67.5707C23.9776 66.5429 25.5573 65.5451 27.0692 64.4544C28.4117 63.4859 29.1007 62.1301 29.0964 60.4357C29.087 56.7425 29.1001 53.05 29.1026 49.3568C29.1026 49.2982 29.0839 49.2396 29.0752 49.1872C29.0478 49.181 29.036 49.1766 29.0242 49.1753C26.0322 48.8922 23.3241 47.8551 20.8948 46.0877C20.7068 45.9505 20.5985 46.0416 20.4429 46.1326C19.4476 46.7151 18.4717 47.3381 17.4397 47.847C15.837 48.6372 14.1054 48.9989 12.3172 49.1716V49.171Z" fill="#99C6A2"/>
<path d="M99.2589 0.000135352C99.3193 0.00574805 99.3791 0.0138553 99.4394 0.0169735C99.8247 0.0400479 100.212 0.0506497 100.596 0.087444C101.658 0.189096 102.704 0.387412 103.732 0.677401C104.563 0.912511 105.374 1.20312 106.167 1.54675C106.877 1.85482 107.568 2.20343 108.239 2.59008C109.069 3.06841 109.864 3.59912 110.619 4.18908C110.864 4.37991 111.11 4.57012 111.338 4.78029C111.616 5.03785 111.737 5.37024 111.735 5.75191C111.732 6.3799 111.227 6.96175 110.594 7.05655C110.186 7.11766 109.822 7.00915 109.512 6.736C108.962 6.25268 108.38 5.8124 107.77 5.40953C106.881 4.82332 105.944 4.3269 104.96 3.92217C104.038 3.543 103.091 3.2449 102.113 3.05095C101.681 2.96489 101.247 2.89317 100.811 2.83018C100.514 2.78778 100.212 2.77219 99.9137 2.74475C99.3367 2.69298 98.7585 2.6961 98.1809 2.71107C97.8149 2.72042 97.4496 2.75223 97.0848 2.78528C95.8107 2.90003 94.5684 3.16944 93.3565 3.57854C92.2978 3.93589 91.2864 4.39613 90.3204 4.95927C89.5417 5.41327 88.8042 5.92715 88.1108 6.50401C88.0075 6.59007 87.9066 6.67863 87.8052 6.76656C87.316 7.18938 86.5379 7.16631 86.0693 6.72103C85.8402 6.50338 85.684 6.24894 85.6317 5.93463C85.6249 5.8916 85.6155 5.84919 85.6074 5.80679V5.62157C85.613 5.60099 85.6217 5.58103 85.6249 5.55983C85.6634 5.24364 85.7941 4.97049 86.03 4.75971C86.5541 4.29136 87.1137 3.86853 87.6931 3.47128C88.9349 2.62064 90.2556 1.91906 91.6561 1.36963C93.0995 0.803375 94.5883 0.408615 96.1251 0.202193C96.557 0.144195 96.9908 0.0967985 97.4253 0.0606278C97.7726 0.0319407 98.1224 0.0288225 98.4716 0.0138553C98.4971 0.012608 98.522 0.00450079 98.5469 -0.000488281C98.7847 -0.000488281 99.0224 -0.000488281 99.2596 -0.000488281L99.2589 0.000135352Z" fill="#99C6A2"/>
<path d="M98.7017 5.10645C99.0285 5.12079 99.3802 5.1264 99.7306 5.15322C101.363 5.27857 102.925 5.67769 104.414 6.3612C105.504 6.86197 106.518 7.4881 107.44 8.25829C107.693 8.46908 107.823 8.7547 107.865 9.08398C107.953 9.78619 107.444 10.3799 106.905 10.537C106.44 10.6724 106.023 10.5782 105.645 10.2732C104.587 9.41887 103.41 8.78027 102.121 8.35246C101.547 8.16225 100.962 8.01507 100.364 7.93338C100.034 7.88847 99.702 7.85043 99.3702 7.82923C99.0416 7.80803 98.7111 7.79929 98.3818 7.80615C97.9629 7.81488 97.5459 7.85605 97.1308 7.91654C96.1766 8.05623 95.2585 8.32252 94.3741 8.70419C93.4037 9.12264 92.5025 9.65897 91.6777 10.3206C91.1829 10.7173 90.4528 10.7036 89.9785 10.282C89.7327 10.0631 89.5565 9.8049 89.5036 9.47437C89.4227 8.97172 89.5727 8.54641 89.9636 8.22524C90.8001 7.53737 91.712 6.96674 92.6854 6.49403C93.6651 6.0182 94.6859 5.65587 95.7521 5.43198C96.189 5.34031 96.6316 5.27046 97.0741 5.20872C97.3648 5.16818 97.6592 5.15571 97.953 5.13763C98.1939 5.12266 98.436 5.11767 98.7017 5.10707V5.10645Z" fill="#99C6A2"/>
<path d="M98.6861 10.0688C99.8818 10.0788 101.033 10.3002 102.129 10.786C102.633 11.0093 103.117 11.2712 103.555 11.6074C103.846 11.8306 103.997 12.1393 104.035 12.5066C104.113 13.2394 103.524 13.8431 102.988 13.9697C102.62 14.0564 102.271 14.0108 101.951 13.8038C101.609 13.5818 101.256 13.3816 100.881 13.2226C100.405 13.0211 99.9141 12.8808 99.4019 12.8122C99.0919 12.7704 98.7807 12.7517 98.4689 12.7654C97.3765 12.8135 96.3763 13.1446 95.47 13.7576C94.9173 14.1318 94.2339 14.0632 93.7584 13.593C93.454 13.2918 93.3134 12.9295 93.352 12.506C93.3881 12.1106 93.5717 11.7888 93.8991 11.56C94.7723 10.95 95.7296 10.5253 96.7678 10.2921C97.1027 10.2166 97.445 10.1717 97.7861 10.1275C98.0052 10.0988 98.228 10.0969 98.4496 10.0832C98.5286 10.0782 98.607 10.0738 98.6861 10.0695V10.0688Z" fill="#99C6A2"/>
<path d="M98.6982 20.5293C97.1496 20.5455 95.8295 19.2652 95.8301 17.6531C95.8313 16.0479 97.1527 14.7532 98.7505 14.7782C100.253 14.8013 101.591 16.0236 101.576 17.6887C101.56 19.3101 100.229 20.5499 98.6982 20.5293Z" fill="#99C6A2"/>
<path d="M57.5078 94.9482H19.8508C18.176 94.9482 16.8184 96.3086 16.8184 97.9866V103.15C16.8184 104.828 18.176 106.189 19.8508 106.189H57.5078C59.1825 106.189 60.5402 104.828 60.5402 103.15V97.9866C60.5402 96.3086 59.1825 94.9482 57.5078 94.9482Z" fill="#99C6A2"/>
<path d="M22.6973 99.4163C22.7048 99.3097 22.7154 99.2205 22.7166 99.1307C22.7241 98.691 22.7291 98.2514 22.7347 97.8117C22.7384 97.5454 22.7907 97.4001 23.0994 97.4014C23.3328 97.4026 23.5675 97.4101 23.7996 97.4344C23.9665 97.4519 24.0449 97.5679 24.0424 97.7425C24.0349 98.2651 24.0256 98.7871 24.0175 99.3091C24.0175 99.3434 24.0175 99.3783 24.0175 99.4319C24.0785 99.4026 24.132 99.3802 24.1831 99.3515C24.6038 99.1145 25.0233 98.875 25.4441 98.6387C25.4988 98.6081 25.5586 98.5819 25.619 98.5688C25.7086 98.5495 25.7951 98.5694 25.8524 98.6493C26.0074 98.865 26.1511 99.0883 26.2451 99.3396C26.3292 99.5654 26.2949 99.6564 26.0901 99.7743C25.6439 100.03 25.1964 100.284 24.7495 100.54C24.7233 100.555 24.6997 100.575 24.6592 100.603C24.7134 100.641 24.7538 100.674 24.7974 100.7C25.2237 100.953 25.6526 101.203 26.0777 101.458C26.2507 101.562 26.2825 101.66 26.2065 101.847C26.1144 102.074 26.0055 102.294 25.8505 102.485C25.7098 102.657 25.5928 102.687 25.403 102.576C25.0961 102.395 24.7968 102.202 24.4936 102.016C24.3629 101.935 24.2316 101.858 24.0997 101.779C24.0779 101.766 24.0536 101.757 24.0156 101.739C24.0094 101.824 23.9988 101.897 23.9988 101.969C23.9994 102.323 24.0057 102.678 24.0044 103.032C24.0038 103.178 23.9988 103.325 23.977 103.469C23.954 103.62 23.8787 103.685 23.7281 103.704C23.4741 103.738 23.2189 103.745 22.9644 103.708C22.7751 103.68 22.693 103.59 22.6899 103.392C22.6861 103.136 22.6899 102.88 22.6905 102.624C22.6905 102.369 22.6917 102.112 22.6911 101.857C22.6911 101.82 22.6861 101.783 22.6824 101.729C22.6183 101.759 22.5635 101.78 22.5125 101.809C22.1166 102.037 21.722 102.266 21.3268 102.495C21.2994 102.51 21.272 102.526 21.2434 102.541C21.0654 102.629 20.9303 102.61 20.8226 102.444C20.6857 102.233 20.5637 102.012 20.4498 101.787C20.377 101.644 20.4249 101.51 20.5649 101.423C20.7591 101.301 20.9589 101.187 21.1575 101.072C21.3996 100.932 21.6436 100.795 21.8857 100.655C21.9287 100.631 21.9679 100.6 22.022 100.563C21.9772 100.53 21.9448 100.5 21.9081 100.478C21.544 100.259 21.1786 100.042 20.8151 99.8229C20.7293 99.7712 20.644 99.7182 20.5637 99.6583C20.4591 99.5804 20.4243 99.4712 20.4641 99.3477C20.5525 99.0727 20.7 98.8307 20.8911 98.6175C21.0025 98.4934 21.1089 98.4722 21.2527 98.5538C21.5303 98.711 21.8023 98.8788 22.0755 99.044C22.2318 99.1382 22.3855 99.2355 22.5411 99.3303C22.5859 99.3577 22.6332 99.3802 22.6973 99.4145V99.4163Z" fill="white"/>
<path d="M32.9161 99.4163C32.9236 99.3097 32.9335 99.2205 32.9354 99.1307C32.9429 98.691 32.9478 98.2514 32.9534 97.8117C32.9572 97.5454 33.0095 97.4001 33.3182 97.4014C33.5516 97.4026 33.7862 97.4101 34.0184 97.4344C34.1852 97.4519 34.2636 97.5679 34.2611 97.7425C34.2537 98.2651 34.2443 98.7871 34.2362 99.3091C34.2362 99.3434 34.2362 99.3783 34.2362 99.4319C34.2972 99.4026 34.3508 99.3802 34.4018 99.3515C34.8226 99.1145 35.2421 98.875 35.6628 98.6387C35.7176 98.6081 35.7774 98.5819 35.8377 98.5688C35.9274 98.5495 36.0139 98.5694 36.0711 98.6493C36.2261 98.865 36.3699 99.0883 36.4639 99.3396C36.5479 99.5654 36.5137 99.6564 36.3089 99.7743C35.8626 100.03 35.4151 100.284 34.9682 100.54C34.9421 100.555 34.9184 100.575 34.878 100.603C34.9321 100.641 34.9726 100.674 35.0161 100.7C35.4425 100.953 35.8713 101.203 36.2965 101.458C36.4695 101.562 36.5012 101.66 36.4253 101.847C36.3332 102.074 36.2242 102.294 36.0693 102.485C35.9286 102.657 35.8116 102.687 35.6217 102.576C35.3149 102.395 35.0155 102.202 34.7124 102.016C34.5817 101.935 34.4504 101.858 34.3184 101.779C34.2966 101.766 34.2723 101.757 34.2344 101.739C34.2282 101.824 34.2176 101.897 34.2176 101.969C34.2182 102.323 34.2244 102.678 34.2232 103.032C34.2226 103.178 34.2176 103.325 34.1958 103.469C34.1728 103.62 34.0974 103.685 33.9468 103.704C33.6929 103.738 33.4377 103.745 33.1831 103.708C32.9939 103.68 32.9117 103.59 32.9086 103.392C32.9049 103.136 32.9086 102.88 32.9092 102.624C32.9092 102.369 32.9105 102.112 32.9099 101.857C32.9099 101.82 32.9049 101.783 32.9012 101.729C32.837 101.759 32.7823 101.78 32.7312 101.809C32.3354 102.037 31.9408 102.266 31.5455 102.495C31.5181 102.51 31.4908 102.526 31.4621 102.541C31.2841 102.629 31.149 102.61 31.0414 102.444C30.9044 102.233 30.7824 102.012 30.6685 101.787C30.5957 101.644 30.6436 101.51 30.7837 101.423C30.9779 101.301 31.1777 101.187 31.3762 101.072C31.6183 100.932 31.8623 100.795 32.1045 100.655C32.1474 100.631 32.1866 100.6 32.2408 100.563C32.196 100.53 32.1636 100.5 32.1269 100.478C31.7627 100.259 31.3974 100.042 31.0339 99.8229C30.948 99.7712 30.8627 99.7182 30.7824 99.6583C30.6779 99.5804 30.643 99.4712 30.6829 99.3477C30.7712 99.0727 30.9187 98.8307 31.1098 98.6175C31.2212 98.4934 31.3277 98.4722 31.4715 98.5538C31.7491 98.711 32.0211 98.8788 32.2943 99.044C32.4505 99.1382 32.6043 99.2355 32.7599 99.3303C32.8047 99.3577 32.852 99.3802 32.9161 99.4145V99.4163Z" fill="white"/>
<path d="M43.1348 99.4163C43.1423 99.3097 43.1529 99.2205 43.1541 99.1307C43.1616 98.691 43.1666 98.2514 43.1722 97.8117C43.1759 97.5454 43.2282 97.4001 43.5369 97.4014C43.7703 97.4026 44.005 97.4101 44.2371 97.4344C44.404 97.4519 44.4824 97.5679 44.4799 97.7425C44.4724 98.2651 44.4631 98.7871 44.455 99.3091C44.455 99.3434 44.455 99.3783 44.455 99.4319C44.516 99.4026 44.5695 99.3802 44.6206 99.3515C45.0413 99.1145 45.4608 98.875 45.8816 98.6387C45.9364 98.6081 45.9961 98.5819 46.0565 98.5688C46.1461 98.5495 46.2326 98.5694 46.2899 98.6493C46.4449 98.865 46.5886 99.0883 46.6826 99.3396C46.7667 99.5654 46.7324 99.6564 46.5277 99.7743C46.0814 100.03 45.6339 100.284 45.187 100.54C45.1608 100.555 45.1372 100.575 45.0967 100.603C45.1509 100.641 45.1913 100.674 45.2349 100.7C45.6612 100.953 46.0901 101.203 46.5152 101.458C46.6882 101.562 46.72 101.66 46.644 101.847C46.5519 102.074 46.443 102.294 46.288 102.485C46.1474 102.657 46.0303 102.687 45.8405 102.576C45.5336 102.395 45.2343 102.202 44.9311 102.016C44.8004 101.935 44.6691 101.858 44.5372 101.779C44.5154 101.766 44.4911 101.757 44.4531 101.739C44.4469 101.824 44.4363 101.897 44.4363 101.969C44.4369 102.323 44.4432 102.678 44.4419 103.032C44.4413 103.178 44.4363 103.325 44.4145 103.469C44.3915 103.62 44.3162 103.685 44.1656 103.704C43.9116 103.738 43.6564 103.745 43.4019 103.708C43.2126 103.68 43.1305 103.59 43.1274 103.392C43.1236 103.136 43.1274 102.88 43.128 102.624C43.128 102.369 43.1292 102.112 43.1286 101.857C43.1286 101.82 43.1236 101.783 43.1199 101.729C43.0558 101.759 43.001 101.78 42.95 101.809C42.5541 102.037 42.1595 102.266 41.7643 102.495C41.7369 102.51 41.7095 102.526 41.6809 102.541C41.5029 102.629 41.3678 102.61 41.2601 102.444C41.1232 102.233 41.0012 102.012 40.8873 101.787C40.8145 101.644 40.8624 101.51 41.0024 101.423C41.1966 101.301 41.3964 101.187 41.595 101.072C41.8371 100.932 42.0811 100.795 42.3232 100.655C42.3662 100.631 42.4054 100.6 42.4595 100.563C42.4147 100.53 42.3823 100.5 42.3456 100.478C41.9815 100.259 41.6161 100.042 41.2526 99.8229C41.1668 99.7712 41.0815 99.7182 41.0012 99.6583C40.8966 99.5804 40.8618 99.4712 40.9016 99.3477C40.99 99.0727 41.1375 98.8307 41.3286 98.6175C41.44 98.4934 41.5464 98.4722 41.6902 98.5538C41.9678 98.711 42.2398 98.8788 42.513 99.044C42.6693 99.1382 42.823 99.2355 42.9786 99.3303C43.0234 99.3577 43.0707 99.3802 43.1348 99.4145V99.4163Z" fill="white"/>
<path d="M53.3536 99.4163C53.3611 99.3097 53.371 99.2205 53.3729 99.1307C53.3804 98.691 53.3853 98.2514 53.3909 97.8117C53.3947 97.5454 53.447 97.4001 53.7557 97.4014C53.9891 97.4026 54.2237 97.4101 54.4559 97.4344C54.6227 97.4519 54.7011 97.5679 54.6986 97.7425C54.6912 98.2651 54.6818 98.7871 54.6737 99.3091C54.6737 99.3434 54.6737 99.3783 54.6737 99.4319C54.7347 99.4026 54.7883 99.3802 54.8393 99.3515C55.2601 99.1145 55.6796 98.875 56.1003 98.6387C56.1551 98.6081 56.2149 98.5819 56.2752 98.5688C56.3649 98.5495 56.4514 98.5694 56.5086 98.6493C56.6636 98.865 56.8074 99.0883 56.9014 99.3396C56.9854 99.5654 56.9512 99.6564 56.7464 99.7743C56.3001 100.03 55.8526 100.284 55.4057 100.54C55.3796 100.555 55.3559 100.575 55.3155 100.603C55.3696 100.641 55.4101 100.674 55.4536 100.7C55.88 100.953 56.3088 101.203 56.7339 101.458C56.907 101.562 56.9387 101.66 56.8628 101.847C56.7707 102.074 56.6617 102.294 56.5068 102.485C56.3661 102.657 56.2491 102.687 56.0592 102.576C55.7524 102.395 55.453 102.202 55.1499 102.016C55.0192 101.935 54.8879 101.858 54.7559 101.779C54.7341 101.766 54.7098 101.757 54.6719 101.739C54.6656 101.824 54.6551 101.897 54.6551 101.969C54.6557 102.323 54.6619 102.678 54.6607 103.032C54.66 103.178 54.6551 103.325 54.6333 103.469C54.6103 103.62 54.5349 103.685 54.3843 103.704C54.1304 103.738 53.8752 103.745 53.6206 103.708C53.4314 103.68 53.3492 103.59 53.3461 103.392C53.3424 103.136 53.3461 102.88 53.3467 102.624C53.3467 102.369 53.348 102.112 53.3474 101.857C53.3474 101.82 53.3424 101.783 53.3387 101.729C53.2745 101.759 53.2198 101.78 53.1687 101.809C52.7729 102.037 52.3783 102.266 51.983 102.495C51.9556 102.51 51.9283 102.526 51.8996 102.541C51.7216 102.629 51.5865 102.61 51.4789 102.444C51.3419 102.233 51.2199 102.012 51.106 101.787C51.0332 101.644 51.0811 101.51 51.2212 101.423C51.4154 101.301 51.6152 101.187 51.8137 101.072C52.0558 100.932 52.2998 100.795 52.542 100.655C52.5849 100.631 52.6241 100.6 52.6783 100.563C52.6335 100.53 52.6011 100.5 52.5644 100.478C52.2002 100.259 51.8349 100.042 51.4714 99.8229C51.3855 99.7712 51.3002 99.7182 51.2199 99.6583C51.1154 99.5804 51.0805 99.4712 51.1204 99.3477C51.2087 99.0727 51.3562 98.8307 51.5473 98.6175C51.6587 98.4934 51.7652 98.4722 51.909 98.5538C52.1866 98.711 52.4586 98.8788 52.7318 99.044C52.888 99.1382 53.0418 99.2355 53.1974 99.3303C53.2422 99.3577 53.2895 99.3802 53.3536 99.4145V99.4163Z" fill="white"/>
<path d="M183.604 52.8135V51.5382C183.604 50.8122 183.462 50.1075 183.182 49.444C182.911 48.8035 182.525 48.2279 182.032 47.734C181.539 47.2401 180.965 46.8522 180.325 46.5815C179.663 46.3009 178.959 46.1587 178.235 46.1587H177.036C176.312 46.1587 175.608 46.3009 174.946 46.5815C174.307 46.8528 173.732 47.2401 173.239 47.734C172.746 48.2279 172.359 48.8029 172.089 49.444C171.809 50.1075 171.667 50.8122 171.667 51.5382V52.8135C171.269 53.0255 170.996 53.4465 170.996 53.9273V63.409C170.996 64.1025 171.562 64.67 172.255 64.67H183.017C183.709 64.67 184.275 64.1025 184.275 63.409V53.9273C184.275 53.4458 184.003 53.0255 183.604 52.8135H183.604ZM178.283 58.776V60.8415C178.283 61.0423 178.12 61.2045 177.921 61.2045H177.351C177.151 61.2045 176.989 61.0417 176.989 60.8415V58.776C176.559 58.5447 176.266 58.0894 176.266 57.5662C176.266 56.8085 176.879 56.1936 177.636 56.1936C178.393 56.1936 179.006 56.8079 179.006 57.5662C179.006 58.0894 178.713 58.5447 178.283 58.776H178.283ZM182.406 52.6669H172.866V51.5382C172.866 49.2338 174.737 47.3592 177.037 47.3592H178.235C180.535 47.3592 182.406 49.2338 182.406 51.5382V52.6669H182.406Z" fill="#99C6A2"/>
</g>
<defs>
<clipPath id="clip0_3544_32894">
<rect width="205" height="160" fill="white"/>
</clipPath>
</defs>
</svg>
