<svg width="312" height="164" viewBox="0 0 312 164" fill="none" xmlns="http://www.w3.org/2000/svg">
<path d="M96.7243 151.462C96.3108 151.311 96.0495 150.882 96.124 150.431C96.2348 149.761 96.329 149.071 96.4051 148.385C96.4613 147.87 96.9244 147.501 97.437 147.559C97.9497 147.617 98.3184 148.078 98.2622 148.592C98.1828 149.311 98.0836 150.033 97.9662 150.736C97.8819 151.245 97.4006 151.59 96.8929 151.505C96.8351 151.495 96.7788 151.48 96.7243 151.461V151.462Z" fill="#F7F6F5"/>
<path d="M254.074 10.8845C255.43 11.4317 256.748 12.0486 257.993 12.7169C258.033 12.7384 258.074 12.7567 258.116 12.7716C258.546 12.9291 259.035 12.75 259.257 12.3338C259.5 11.8778 259.329 11.3107 258.875 11.0669C257.57 10.3655 256.189 9.72041 254.77 9.14832C254.291 8.95264 253.748 9.18645 253.555 9.66568C253.361 10.1449 253.593 10.6905 254.072 10.8828L254.074 10.8845Z" fill="#F7F6F5"/>
<path d="M261.666 14.983C262.853 15.8188 263.981 16.7275 265.018 17.686C265.112 17.7722 265.218 17.8352 265.33 17.8766C265.674 18.0027 266.074 17.9181 266.337 17.6312C266.686 17.2515 266.663 16.6595 266.283 16.3096C265.185 15.2964 263.992 14.3363 262.739 13.4524C262.317 13.1556 261.735 13.2568 261.437 13.6796C261.141 14.1025 261.242 14.6862 261.664 14.983H261.666Z" fill="#F7F6F5"/>
<path d="M270.478 24.3271C270.592 24.5095 270.761 24.6405 270.948 24.7085C271.209 24.8047 271.51 24.7815 271.765 24.6223C272.202 24.347 272.334 23.7699 272.059 23.3322C271.228 22.0056 270.339 20.7602 269.417 19.6293C269.091 19.2297 268.502 19.17 268.102 19.4983C267.703 19.825 267.644 20.4153 267.971 20.8149C268.845 21.8845 269.688 23.0668 270.478 24.3271Z" fill="#F7F6F5"/>
<path d="M278.779 44.5641C279.167 45.8459 279.577 47.2339 280.029 48.8076C280.115 49.106 280.337 49.3299 280.608 49.4277C280.786 49.4924 280.988 49.504 281.185 49.4476C281.681 49.305 281.967 48.786 281.823 48.2902C281.368 46.7082 280.957 45.312 280.565 44.0202C280.414 43.526 279.893 43.2475 279.399 43.3967C278.906 43.5476 278.627 44.0699 278.777 44.5641H278.779Z" fill="#F7F6F5"/>
<path d="M276.003 36.1921C276.489 37.5187 276.964 38.8801 277.448 40.3543C277.541 40.6362 277.756 40.8451 278.016 40.9397C278.206 41.0093 278.421 41.0176 278.627 40.948C279.117 40.7854 279.383 40.2565 279.221 39.7656C278.728 38.2732 278.249 36.8919 277.754 35.5454C277.576 35.0612 277.04 34.8124 276.555 34.9899C276.071 35.169 275.823 35.7062 276.001 36.1904L276.003 36.1921Z" fill="#F7F6F5"/>
<path d="M274.404 32.0993C274.509 32.3497 274.71 32.5305 274.947 32.6167C275.16 32.6946 275.402 32.6946 275.626 32.6001C276.103 32.4011 276.326 31.8523 276.128 31.3763C275.506 29.8856 274.896 28.5457 274.264 27.2805C274.032 26.8178 273.472 26.6321 273.01 26.8626C272.549 27.0931 272.362 27.6552 272.594 28.1179C273.205 29.3433 273.797 30.645 274.404 32.0977V32.0993Z" fill="#F7F6F5"/>
<path d="M219.271 9.56716C219.436 9.62852 219.622 9.64178 219.807 9.59701C221.26 9.25044 222.701 8.94366 224.093 8.68497C224.601 8.59045 224.935 8.10293 224.841 7.59551C224.746 7.08808 224.26 6.75146 223.753 6.84598C222.33 7.10964 220.857 7.42305 219.374 7.77791C218.872 7.89731 218.562 8.40308 218.682 8.90552C218.758 9.22225 218.987 9.46435 219.271 9.56716Z" fill="#F7F6F5"/>
<path d="M281.236 53.0706L281.448 53.8251C281.777 54.9991 282.106 56.1732 282.44 57.3439C282.526 57.644 282.747 57.8679 283.019 57.9674C283.197 58.0321 283.397 58.0437 283.593 57.9873C284.089 57.8464 284.376 57.329 284.236 56.8315C283.903 55.6608 283.574 54.4901 283.245 53.3177L283.034 52.5632C282.895 52.0657 282.379 51.7755 281.883 51.9165C281.386 52.0558 281.097 52.5731 281.236 53.0706Z" fill="#F7F6F5"/>
<path d="M91.8588 39.3862C92.1548 39.4939 92.4971 39.4492 92.7617 39.2386C93.8879 38.3381 95.0703 37.4742 96.2725 36.6699C96.7009 36.3831 96.8183 35.8027 96.5305 35.3732C96.2444 34.9437 95.664 34.8276 95.2357 35.1145C93.9888 35.9469 92.7634 36.8441 91.5958 37.7777C91.1923 38.0994 91.1262 38.688 91.4486 39.0926C91.5594 39.2319 91.7017 39.3314 91.8571 39.3878L91.8588 39.3862Z" fill="#F7F6F5"/>
<path d="M245.611 8.40553C245.657 8.42211 245.705 8.43538 245.753 8.44533C247.187 8.72391 248.606 9.06718 249.975 9.46681C250.469 9.61108 250.989 9.32586 251.133 8.83004C251.276 8.33423 250.992 7.8152 250.498 7.67093C249.075 7.25637 247.599 6.89819 246.11 6.60799C245.604 6.51016 245.115 6.84015 245.016 7.34757C244.926 7.80525 245.188 8.24966 245.611 8.40387V8.40553Z" fill="#F7F6F5"/>
<path d="M227.982 7.96153C228.115 8.01128 228.264 8.02952 228.416 8.01128C229.882 7.82887 231.344 7.69455 232.764 7.61164C233.278 7.58179 233.672 7.13904 233.642 6.62333C233.612 6.10761 233.171 5.71295 232.657 5.7428C231.195 5.82737 229.691 5.96501 228.185 6.15405C227.674 6.21872 227.31 6.68468 227.375 7.19874C227.419 7.55858 227.664 7.84545 227.982 7.96153Z" fill="#F7F6F5"/>
<path d="M236.817 7.47061C236.911 7.50543 237.012 7.52368 237.116 7.52699C238.565 7.5585 240.026 7.65136 241.457 7.80226C241.97 7.85698 242.429 7.48387 242.484 6.96982C242.538 6.45576 242.166 5.99643 241.654 5.94171C240.17 5.78418 238.657 5.688 237.156 5.65649C236.64 5.64488 236.213 6.05447 236.201 6.57184C236.193 6.98309 236.449 7.33795 236.815 7.47061H236.817Z" fill="#F7F6F5"/>
<path d="M289.729 78.4252C290.363 79.8149 291.027 81.1696 291.705 82.4531C291.818 82.667 292.001 82.8179 292.211 82.8942C292.451 82.9821 292.726 82.9705 292.969 82.8428C293.425 82.6007 293.599 82.0353 293.357 81.5792C292.696 80.3273 292.048 79.004 291.429 77.6475C291.214 77.1782 290.66 76.971 290.192 77.1849C289.723 77.3988 289.517 77.9543 289.731 78.4252H289.729Z" fill="#F7F6F5"/>
<path d="M283.68 61.6196C284.136 63.1601 284.565 64.5547 284.988 65.8813C285.079 66.1682 285.296 66.3804 285.559 66.4749C285.746 66.5429 285.957 66.5529 286.162 66.4866C286.653 66.329 286.925 65.8017 286.768 65.3109C286.347 63.9975 285.924 62.6162 285.471 61.0873C285.324 60.5915 284.805 60.3096 284.31 60.4572C283.816 60.6048 283.534 61.1255 283.682 61.6196H283.68Z" fill="#F7F6F5"/>
<path d="M310.122 116.782C310.159 118.151 310.086 119.553 309.896 121.068C309.841 121.509 310.103 121.917 310.501 122.063C310.566 122.086 310.635 122.103 310.706 122.113C311.217 122.178 311.685 121.813 311.748 121.3C311.948 119.69 312.028 118.196 311.988 116.732C311.975 116.215 311.545 115.808 311.029 115.822C310.513 115.835 310.106 116.266 310.121 116.782H310.122Z" fill="#F7F6F5"/>
<path d="M304.068 142.262C303.582 143.761 303.125 145.134 302.674 146.459C302.508 146.942 302.761 147.468 303.238 147.64C303.244 147.642 303.249 147.645 303.256 147.647C303.744 147.814 304.275 147.554 304.442 147.065C304.896 145.73 305.356 144.348 305.846 142.841C306.004 142.35 305.736 141.825 305.245 141.662C304.754 141.503 304.228 141.772 304.069 142.262H304.068Z" fill="#F7F6F5"/>
<path d="M306.72 133.809C306.364 134.963 305.895 136.487 305.408 138.042C305.258 138.522 305.513 139.031 305.979 139.201C305.992 139.206 306.005 139.211 306.02 139.215C306.513 139.369 307.036 139.095 307.191 138.603C307.679 137.042 308.15 135.515 308.506 134.359C308.658 133.865 308.382 133.343 307.889 133.19C307.396 133.038 306.874 133.315 306.722 133.809H306.72Z" fill="#F7F6F5"/>
<path d="M309.615 112.557C309.686 112.882 309.918 113.131 310.209 113.237C310.369 113.295 310.548 113.312 310.726 113.272C311.231 113.162 311.55 112.663 311.439 112.159C311.127 110.721 310.669 109.247 310.08 107.778C309.888 107.299 309.344 107.067 308.864 107.259C308.386 107.451 308.155 107.997 308.347 108.476C308.897 109.849 309.324 111.222 309.615 112.557Z" fill="#F7F6F5"/>
<path d="M308.64 130.736C309.134 130.881 309.653 130.596 309.797 130.1C310.278 128.445 310.644 127.065 310.945 125.758C311.061 125.254 310.748 124.752 310.245 124.637C309.743 124.521 309.242 124.835 309.126 125.339C308.833 126.611 308.478 127.957 308.005 129.577C307.866 130.053 308.122 130.551 308.58 130.718C308.6 130.725 308.62 130.731 308.64 130.738V130.736Z" fill="#F7F6F5"/>
<path d="M302.401 150.068C301.917 149.89 301.381 150.141 301.204 150.627C300.685 152.051 300.159 153.441 299.641 154.754C299.453 155.235 299.688 155.777 300.167 155.968C300.175 155.971 300.182 155.974 300.19 155.976C300.663 156.149 301.192 155.913 301.378 155.44C301.9 154.112 302.433 152.709 302.957 151.268C303.134 150.782 302.884 150.245 302.4 150.069L302.401 150.068Z" fill="#F7F6F5"/>
<path d="M294.665 87.5202C295.191 88.3344 295.762 89.1785 296.41 90.1021C296.524 90.2646 296.679 90.379 296.853 90.4421C297.131 90.5432 297.452 90.5117 297.711 90.3276C298.133 90.0308 298.234 89.4471 297.938 89.0243C297.303 88.1205 296.746 87.2964 296.235 86.5021C295.995 86.1323 295.757 85.7525 295.523 85.3745C295.252 84.935 294.677 84.7974 294.238 85.0693C293.8 85.3413 293.663 85.9167 293.934 86.3561C294.174 86.7458 294.42 87.1372 294.667 87.5186L294.665 87.5202Z" fill="#F7F6F5"/>
<path d="M85.1509 45.3188C85.2402 45.3984 85.3411 45.4564 85.447 45.4946C85.7975 45.6222 86.206 45.531 86.469 45.2326C87.4149 44.153 88.4286 43.0984 89.4804 42.0968C89.8541 41.7403 89.869 41.1483 89.5135 40.7735C89.1579 40.3988 88.5675 40.3838 88.1938 40.7404C87.1023 41.7801 86.0506 42.8762 85.0666 43.9972C84.7259 44.3852 84.764 44.9755 85.1509 45.3171V45.3188Z" fill="#F7F6F5"/>
<path d="M286.405 70.114C286.919 71.57 287.447 72.9795 287.974 74.3027C288.077 74.5598 288.282 74.7471 288.522 74.835C288.73 74.9113 288.965 74.913 289.187 74.8251C289.666 74.6344 289.899 74.0888 289.707 73.6096C289.188 72.3079 288.669 70.9216 288.165 69.4905C287.993 69.003 287.458 68.7476 286.972 68.9201C286.486 69.0925 286.231 69.6265 286.403 70.114H286.405Z" fill="#F7F6F5"/>
<path d="M299.74 94.6542C300.378 95.5115 301.036 96.3987 301.675 97.2726C301.787 97.4285 301.939 97.5379 302.108 97.5993C302.391 97.7021 302.718 97.6673 302.979 97.4766C303.396 97.1715 303.487 96.5861 303.183 96.1699C302.539 95.2893 301.878 94.3989 301.238 93.5382C301.005 93.2248 300.772 92.9114 300.54 92.598C300.233 92.1834 299.647 92.0972 299.234 92.4057C298.82 92.7141 298.734 93.2995 299.042 93.714C299.275 94.0274 299.508 94.3425 299.741 94.6559L299.74 94.6542Z" fill="#F7F6F5"/>
<path d="M306.479 104.585C306.593 104.789 306.771 104.935 306.975 105.01C307.221 105.099 307.502 105.086 307.749 104.949C308.2 104.698 308.362 104.128 308.111 103.677C307.434 102.458 306.662 101.201 305.751 99.8312C305.465 99.4017 304.884 99.2856 304.456 99.5725C304.028 99.8594 303.912 100.44 304.198 100.869C305.083 102.196 305.829 103.411 306.48 104.585H306.479Z" fill="#F7F6F5"/>
<path d="M296.545 161.986H298.602C298.963 161.195 299.322 160.387 299.674 159.57C299.879 159.096 299.661 158.545 299.186 158.34C298.716 158.137 298.162 158.353 297.959 158.827C297.496 159.902 297.021 160.96 296.545 161.984V161.986Z" fill="#F7F6F5"/>
<path d="M78.2111 85.7584C77.7762 84.3224 77.3991 82.9029 77.0932 81.5365C76.9807 81.0324 76.4813 80.7157 75.9769 80.8284C75.4742 80.9412 75.1583 81.442 75.2708 81.9461C75.5866 83.3573 75.9753 84.8232 76.4234 86.3023C76.5127 86.5942 76.731 86.8114 76.9973 86.9092C77.1808 86.9756 77.3875 86.9855 77.5876 86.9242C78.0804 86.7733 78.3599 86.2509 78.2094 85.7568L78.2111 85.7584Z" fill="#F7F6F5"/>
<path d="M147.173 26.2682C145.902 26.2483 144.539 26.2152 142.756 26.1654C142.24 26.1505 141.81 26.5584 141.797 27.0742C141.786 27.4871 142.044 27.8452 142.411 27.9796C142.503 28.0127 142.601 28.0326 142.703 28.0359C144.494 28.0873 145.864 28.1189 147.144 28.1388C147.66 28.147 148.085 27.7358 148.093 27.2184C148.101 26.7011 147.689 26.2765 147.175 26.2682H147.173Z" fill="#F7F6F5"/>
<path d="M155.976 26.1748C154.584 26.2378 153.145 26.2759 151.582 26.2892C151.066 26.2942 150.653 26.7154 150.656 27.2328C150.66 27.634 150.914 27.974 151.27 28.1033C151.372 28.1398 151.481 28.1614 151.597 28.1597C153.185 28.1464 154.643 28.1083 156.061 28.0436C156.575 28.0204 156.973 27.5826 156.95 27.0669C156.927 26.5512 156.491 26.1516 155.975 26.1748H155.976Z" fill="#F7F6F5"/>
<path d="M173.257 23.4976C171.809 23.879 170.373 24.2239 168.992 24.5191C168.488 24.6269 168.167 25.1244 168.275 25.6301C168.344 25.9568 168.577 26.2072 168.868 26.3133C169.027 26.3714 169.204 26.3863 169.383 26.3482C170.793 26.0464 172.257 25.6948 173.734 25.3068C174.233 25.1758 174.531 24.6634 174.398 24.1642C174.268 23.6651 173.757 23.3666 173.257 23.4976Z" fill="#F7F6F5"/>
<path d="M164.688 25.3203C163.909 25.443 163.125 25.5525 162.359 25.6486C161.704 25.7299 161.028 25.8045 160.348 25.8692C159.836 25.9189 159.459 26.375 159.508 26.889C159.545 27.2605 159.791 27.5589 160.119 27.6783C160.246 27.7248 160.383 27.7447 160.527 27.7297C161.223 27.6634 161.916 27.5871 162.589 27.5026C163.375 27.4047 164.178 27.292 164.977 27.1659C165.486 27.0863 165.835 26.6071 165.754 26.0964C165.675 25.5856 165.197 25.2374 164.688 25.317V25.3203Z" fill="#F7F6F5"/>
<path d="M138.323 26.0356C136.527 25.9841 135.158 25.9526 133.883 25.9327C133.367 25.9244 132.942 26.3373 132.934 26.8531C132.927 27.2627 133.183 27.6142 133.547 27.7469C133.643 27.7817 133.746 27.8016 133.852 27.8032C135.118 27.8231 136.481 27.8547 138.269 27.9061C138.785 27.921 139.215 27.513 139.228 26.9973C139.243 26.4816 138.836 26.0505 138.322 26.0356H138.323Z" fill="#F7F6F5"/>
<path d="M129.436 25.9122C127.849 25.9271 126.389 25.9652 124.975 26.0315C124.459 26.0564 124.062 26.4942 124.085 27.0099C124.103 27.3979 124.355 27.7196 124.698 27.8457C124.811 27.8871 124.933 27.907 125.061 27.9004C126.451 27.8357 127.887 27.7976 129.453 27.7826C129.969 27.7777 130.382 27.3548 130.379 26.8391C130.374 26.3217 129.952 25.9072 129.436 25.9122Z" fill="#F7F6F5"/>
<path d="M206.562 11.634C205.247 12.0967 203.88 12.5925 202.382 13.153C201.899 13.3338 201.652 13.8727 201.832 14.3569C201.932 14.6239 202.14 14.8195 202.388 14.9091C202.59 14.982 202.816 14.987 203.033 14.9074C204.521 14.3519 205.877 13.8594 207.181 13.4001C207.667 13.2293 207.923 12.6953 207.753 12.2078C207.582 11.7203 207.048 11.4632 206.562 11.6357V11.634Z" fill="#F7F6F5"/>
<path d="M215.051 8.90947C213.683 9.29915 212.246 9.73527 210.781 10.2079C210.29 10.3654 210.02 10.8927 210.178 11.3852C210.27 11.6704 210.485 11.8827 210.746 11.9772C210.935 12.0452 211.147 12.0552 211.352 11.9888C212.795 11.5229 214.211 11.0934 215.559 10.7087C216.055 10.5677 216.343 10.0503 216.202 9.55286C216.061 9.05539 215.546 8.76685 215.049 8.90781L215.051 8.90947Z" fill="#F7F6F5"/>
<path d="M120.51 26.3488C118.979 26.4981 117.482 26.6921 116.06 26.9243C115.551 27.0072 115.205 27.4881 115.288 27.9971C115.344 28.3437 115.584 28.614 115.89 28.7268C116.035 28.7798 116.196 28.7981 116.359 28.7699C117.742 28.5444 119.2 28.3553 120.692 28.2094C121.205 28.1596 121.58 27.702 121.53 27.1879C121.481 26.6739 121.024 26.2974 120.51 26.3472V26.3488Z" fill="#F7F6F5"/>
<path d="M181.666 20.9368C180.199 21.4343 178.83 21.877 177.477 22.2916C176.985 22.4425 176.707 22.9648 176.857 23.459C176.947 23.7508 177.165 23.9681 177.431 24.0659C177.615 24.1322 177.821 24.1438 178.023 24.0808C179.392 23.6613 180.78 23.2136 182.265 22.7095C182.753 22.5436 183.016 22.013 182.85 21.5238C182.685 21.0346 182.154 20.7726 181.666 20.9384V20.9368Z" fill="#F7F6F5"/>
<path d="M198.226 14.7317L197.799 14.8959C196.941 15.2275 196.081 15.5608 195.221 15.8958L194.093 16.3336C193.612 16.5193 193.374 17.0615 193.559 17.5441C193.66 17.8061 193.866 17.9968 194.11 18.0847C194.315 18.1593 194.546 18.1626 194.766 18.078L195.894 17.6403C196.752 17.307 197.612 16.9736 198.469 16.642L198.894 16.4778C199.375 16.2921 199.615 15.7515 199.43 15.269C199.244 14.7864 198.704 14.546 198.222 14.7317H198.226Z" fill="#F7F6F5"/>
<path d="M189.963 17.9237C188.441 18.5041 187.087 19.0082 185.825 19.4692C185.341 19.6466 185.091 20.1823 185.268 20.6681C185.365 20.9384 185.575 21.1358 185.825 21.227C186.024 21.2999 186.248 21.3049 186.463 21.227C187.735 20.7627 189.096 20.2552 190.626 19.6715C191.107 19.4875 191.35 18.9469 191.167 18.4643C190.983 17.9818 190.444 17.7397 189.963 17.9221V17.9237Z" fill="#F7F6F5"/>
<path d="M86.9527 106.276L86.8287 106.022C86.6021 105.558 86.0432 105.365 85.5801 105.592C85.1171 105.82 84.9252 106.38 85.1518 106.844L85.2758 107.098C85.8728 108.322 86.4913 109.586 87.0916 110.831C87.2024 111.06 87.3926 111.222 87.6125 111.304C87.8408 111.386 88.102 111.381 88.3385 111.267C88.8032 111.042 88.9967 110.483 88.7735 110.018C88.1715 108.77 87.5514 107.503 86.9527 106.277V106.276Z" fill="#F7F6F5"/>
<path d="M80.1112 52.595C80.1608 52.6248 80.212 52.648 80.265 52.6679C80.68 52.8205 81.158 52.658 81.3895 52.2617C82.1105 51.0279 82.9093 49.8058 83.7626 48.6268C84.0652 48.2089 83.9726 47.6236 83.5559 47.3201C83.1375 47.0166 82.5554 47.1095 82.2511 47.5274C81.363 48.7545 80.5296 50.028 79.7788 51.3148C79.5175 51.7609 79.668 52.333 80.1128 52.595H80.1112Z" fill="#F7F6F5"/>
<path d="M83.008 98.0332C82.7931 97.5639 82.2391 97.3583 81.7694 97.5739C81.3014 97.7895 81.0947 98.345 81.3097 98.8142C81.8653 100.028 82.4871 101.348 83.2065 102.847C83.3173 103.076 83.5075 103.24 83.7274 103.32C83.9556 103.403 84.2153 103.398 84.4517 103.283C84.9164 103.059 85.1116 102.501 84.8883 102.035C84.1739 100.545 83.5571 99.2371 83.0064 98.0332H83.008Z" fill="#F7F6F5"/>
<path d="M111.644 27.8203C110.197 28.1802 108.741 28.6113 107.319 29.1022C106.831 29.2713 106.573 29.8036 106.74 30.2911C106.836 30.568 107.048 30.772 107.304 30.8649C107.498 30.9362 107.718 30.9428 107.928 30.8698C109.299 30.3972 110.699 29.981 112.093 29.6345C112.594 29.5101 112.899 29.0027 112.775 28.5019C112.651 28.0011 112.145 27.6943 111.644 27.8187V27.8203Z" fill="#F7F6F5"/>
<path d="M81.2271 93.9989C80.6235 92.5628 80.0926 91.2246 79.6081 89.9113C79.4295 89.4271 78.892 89.18 78.4091 89.3591C77.9262 89.5382 77.6782 90.0771 77.8568 90.5613C78.3513 91.9029 78.892 93.266 79.5072 94.7269C79.6114 94.9773 79.8131 95.1563 80.048 95.2426C80.2613 95.3205 80.5044 95.3205 80.731 95.226C81.2056 95.0253 81.4288 94.4765 81.2287 94.0005L81.2271 93.9989Z" fill="#F7F6F5"/>
<path d="M76.611 60.7333C76.6209 60.7366 76.6292 60.7399 76.6391 60.7432C77.1286 60.9041 77.6562 60.6371 77.8182 60.1463C77.9456 59.7566 78.0828 59.3636 78.2234 58.9772C78.5723 58.0171 78.9659 57.0536 79.3942 56.1101C79.6075 55.6391 79.4008 55.0853 78.9312 54.8714C78.4632 54.6575 77.9075 54.8647 77.6942 55.3357C77.246 56.3223 76.8343 57.3305 76.4688 58.3354C76.3216 58.7401 76.1794 59.1513 76.0454 59.5609C75.8867 60.0418 76.1397 60.5592 76.6127 60.7316L76.611 60.7333Z" fill="#F7F6F5"/>
<path d="M74.8304 69.4079C74.9065 69.4361 74.9875 69.4543 75.0719 69.461C75.5862 69.5041 76.0376 69.1227 76.0823 68.6086C76.2047 67.1825 76.413 65.7432 76.7041 64.3287C76.8083 63.8229 76.4841 63.3288 75.9781 63.2227C75.4737 63.1182 74.9793 63.4432 74.8751 63.949C74.5691 65.4348 74.3492 66.9487 74.2202 68.4478C74.1838 68.8789 74.4434 69.2653 74.8304 69.4063V69.4079Z" fill="#F7F6F5"/>
<path d="M75.5206 78.3068C76.0316 78.2389 76.3905 77.7679 76.3227 77.2572C76.1292 75.8029 76.0101 74.3503 75.9671 72.9358C75.9506 72.4184 75.5206 72.0138 75.0047 72.0287C74.4887 72.0453 74.0836 72.4764 74.1001 72.9922C74.1447 74.4697 74.2704 75.987 74.4705 77.5026C74.5185 77.8608 74.7599 78.1427 75.0774 78.2587C75.2147 78.3085 75.3652 78.3267 75.519 78.3068H75.5206Z" fill="#F7F6F5"/>
<path d="M92.4901 118.118C91.9427 116.834 91.3474 115.501 90.6743 114.042C90.4577 113.573 89.9037 113.369 89.434 113.586C88.966 113.803 88.7626 114.359 88.9793 114.828C89.6457 116.271 90.2328 117.589 90.7735 118.854C90.8794 119.101 91.0778 119.28 91.3126 119.365C91.5276 119.443 91.7724 119.443 91.9989 119.347C92.4736 119.143 92.6935 118.594 92.4901 118.118Z" fill="#F7F6F5"/>
<path d="M97.3374 138.869C96.8231 138.912 96.4427 139.364 96.4857 139.878C96.6081 141.346 96.6643 142.807 96.6495 144.223C96.6461 144.631 96.9025 144.979 97.263 145.112C97.3606 145.147 97.4647 145.167 97.5739 145.168C98.0898 145.173 98.5115 144.759 98.5165 144.243C98.5314 142.769 98.4735 141.248 98.3462 139.723C98.3032 139.208 97.8517 138.825 97.3374 138.869Z" fill="#F7F6F5"/>
<path d="M103.128 30.7591C101.762 31.3677 100.404 32.0426 99.091 32.7689C98.6395 33.0176 98.4742 33.5864 98.7239 34.0391C98.838 34.2447 99.0166 34.3923 99.2216 34.4669C99.4664 34.5565 99.7459 34.5432 99.9923 34.4072C101.259 33.7075 102.57 33.0558 103.887 32.4688C104.358 32.2582 104.57 31.706 104.361 31.2334C104.151 30.7608 103.601 30.5485 103.129 30.7591H103.128Z" fill="#F7F6F5"/>
<path d="M95.6427 126.504C95.436 125.849 95.2144 125.182 94.9846 124.524C94.7299 123.789 94.4537 123.032 94.1643 122.269C93.9808 121.786 93.4416 121.542 92.9604 121.726C92.4775 121.911 92.2361 122.449 92.418 122.934C92.7008 123.68 92.9703 124.423 93.22 125.141C93.4433 125.784 93.6583 126.434 93.8617 127.071C93.9526 127.36 94.1693 127.572 94.4322 127.668C94.6191 127.736 94.8291 127.746 95.0342 127.681C95.5253 127.525 95.7982 127 95.6427 126.507V126.504Z" fill="#F7F6F5"/>
<path d="M97.012 136.321C97.5197 136.235 97.8637 135.752 97.7777 135.243C97.5346 133.797 97.2254 132.313 96.8615 130.832C96.7392 130.33 96.2331 130.025 95.7321 130.147C95.231 130.27 94.925 130.777 95.0491 131.28C95.4013 132.718 95.7006 134.155 95.9371 135.556C95.995 135.9 96.2331 136.168 96.5391 136.279C96.6863 136.332 96.8483 136.351 97.0137 136.323L97.012 136.321Z" fill="#F7F6F5"/>
<path d="M245.703 101.725V2L103.735 2V101.725L245.703 101.725Z" fill="#D4C3A5"/>
<path d="M241.168 6.5498H108.275V97.1746H241.168V6.5498Z" fill="#3F6E4F"/>
<path d="M111.249 9.52967H241.168V6.5498H108.275V97.1746H111.249V9.52967Z" fill="#365E44"/>
<path d="M52.1725 96.1947C51.9922 97.1233 52.151 98.0668 52.5975 98.8661C52.7463 99.1331 52.9266 99.3835 53.1383 99.6123C54.7787 101.284 56.9484 102.499 58.1391 104.625C58.3772 105.05 58.5757 105.511 58.7129 106.016C59.2454 107.764 57.9192 109.159 57.1551 110.553C55.2269 114.258 58.9627 117.135 60.4361 120.014C60.704 120.432 60.9852 120.838 61.2878 121.221C61.8914 121.987 62.5777 122.67 63.4227 123.194C63.9652 123.521 64.5175 123.445 65.0202 123.168C65.2716 123.028 65.5097 122.839 65.7264 122.62C65.8752 122.453 66.0753 122.279 66.1563 122.062C66.7583 120.705 67.3272 119.306 68.0168 118.024C68.2466 117.596 68.4897 117.183 68.7527 116.787C70.0128 114.868 72.1825 114.258 73.99 113.213C76.2804 111.95 75.1956 108.506 73.7899 106.544C73.1466 105.628 73.2673 104.365 73.8048 103.378C73.9867 103.025 74.2215 102.698 74.4762 102.403C77.4463 99.0916 81.182 94.951 79.735 89.895C79.2538 88.2815 77.8878 87.1058 76.3201 86.7559C75.9894 86.6681 75.6404 86.615 75.2898 86.5619C74.2397 86.4027 73.1764 86.2551 72.5447 85.2751C70.6164 82.2671 72.9862 78.8677 73.3881 75.6855C73.5088 74.9874 73.5088 74.2909 73.5104 73.5795C73.5038 73.2512 73.4873 72.9212 73.4592 72.5929C73.3418 71.2812 73.0093 69.9994 72.1742 69.0011C71.7558 68.502 71.2812 68.099 70.7917 67.7524C69.3249 66.7094 67.7439 66.1406 66.0968 66.1406C65.5478 66.1406 65.0054 66.2036 64.4729 66.3264C63.9404 66.4491 63.4178 66.6315 62.9051 66.8703C62.2684 67.1406 61.6963 67.4904 61.1803 67.9067C60.666 68.3212 60.2079 68.8005 59.8027 69.3311C57.2709 72.8947 57.4512 77.1083 58.3839 81.2671C58.5707 82.0996 58.7874 82.9287 59.0172 83.7512C59.3579 85.174 60.0243 86.5387 60.3352 87.9499C60.413 88.3031 60.4692 88.6579 60.4923 89.0178C60.6131 89.7176 60.4824 90.4704 60.155 91.0773C59.9913 91.3808 59.7796 91.6461 59.5249 91.8501C59.3265 92.0308 59.0453 92.1618 58.8039 92.2049C56.5548 92.5979 53.5004 92.2049 52.4933 94.9294C52.356 95.3274 52.2486 95.7503 52.1741 96.198L52.1725 96.1947Z" fill="#3F6E4F"/>
<path d="M64.2284 122.516C64.2284 122.516 64.2235 122.516 64.2218 122.516C64.1143 122.512 64.03 122.421 64.0333 122.313L64.1656 118.705C64.1937 117.927 64.2268 117.09 64.288 116.166C64.4103 114.205 64.7163 112.251 65.014 110.362C65.2686 108.736 65.5332 107.053 65.6804 105.361C65.8706 102.642 65.6556 99.9006 65.4472 97.249L65.4142 96.8295C65.3745 96.3304 65.3298 95.7384 65.2868 95.1298C64.6716 91.1168 64.3905 87.2299 64.4484 83.5801C64.5112 79.5738 64.9858 75.7117 65.859 72.1017C65.8838 71.9973 65.9896 71.9326 66.0955 71.9575C66.1997 71.9823 66.2642 72.0885 66.2394 72.1946C64.5641 79.1294 64.3789 86.6164 65.6754 95.0784V95.095C65.7201 95.7052 65.7664 96.3005 65.8061 96.8013L65.8392 97.2208C66.0492 99.8873 66.2658 102.645 66.0723 105.393V105.396C65.9235 107.102 65.6572 108.792 65.4009 110.425C65.1066 112.306 64.8006 114.249 64.6799 116.193C64.6204 117.112 64.5873 117.946 64.5592 118.722L64.4269 122.33C64.4236 122.436 64.3359 122.519 64.2317 122.519L64.2284 122.516Z" fill="#30543C"/>
<path d="M65.6935 106.729C65.6787 106.729 65.6621 106.727 65.6472 106.724C65.543 106.699 65.4786 106.593 65.5034 106.489C66.226 103.487 67.2183 100.817 68.4503 98.5523C69.4376 96.7349 70.5819 95.1728 71.8503 93.9092C74.0217 91.7452 75.7878 91.208 75.8623 91.1864C75.9664 91.1566 76.0739 91.2162 76.1054 91.3191C76.1351 91.4235 76.0756 91.5313 75.9731 91.5612C75.9466 91.5695 74.2036 92.1067 72.105 94.2077C70.1586 96.1562 67.4994 99.8839 65.8854 106.578C65.8639 106.668 65.7845 106.727 65.6952 106.727L65.6935 106.729Z" fill="#30543C"/>
<path d="M64.7364 113.157C64.6372 113.157 64.5528 113.083 64.5429 112.982C63.7541 105.47 61.8093 101.709 60.3193 99.8765C58.7334 97.9281 57.3443 97.7158 57.331 97.7142C57.2235 97.6992 57.1491 97.6014 57.164 97.4936C57.1789 97.3858 57.2765 97.3112 57.384 97.3261C57.4468 97.3344 58.9401 97.5616 60.6219 99.6294C61.596 100.827 62.4361 102.4 63.1191 104.309C63.9691 106.684 64.5793 109.587 64.9315 112.94C64.9431 113.048 64.8654 113.144 64.7579 113.156C64.7513 113.156 64.7447 113.156 64.7364 113.156V113.157Z" fill="#30543C"/>
<path d="M56.5322 122.931C59.9769 122.327 65.626 121.831 72.4112 123.092C74.1576 123.417 75.3333 125.214 75.0307 127.109L73.4001 137.356C72.871 140.682 70.2118 143.112 67.1011 143.112H62.3897C59.7421 143.112 57.4186 141.203 56.7009 138.439L53.8548 127.481C53.3141 125.4 54.5659 123.276 56.5339 122.932L56.5322 122.931Z" fill="#E4B752"/>
<path d="M56.2643 122.884C59.408 122.344 64.5643 121.899 70.7558 123.028C72.35 123.319 73.4216 124.929 73.1471 126.624L71.6587 135.792C71.1758 138.769 68.7482 140.942 65.9104 140.942H61.6107C59.1947 140.942 57.0746 139.234 56.4181 136.76L53.8201 126.954C53.3273 125.091 54.47 123.191 56.2643 122.883V122.884Z" fill="#F6C55A"/>
<path d="M249.143 164C251.107 157.658 253.345 151.408 255.935 144.222L257.377 164H281.513C282.418 152.039 282.926 139.914 280.556 128.328C280.383 127.485 275.481 110.727 273.664 111.474C273.66 111.474 265.351 114.886 253.238 115.375C249.361 115.531 242.274 114.179 242.274 114.179L230.346 163.998H249.145L249.143 164Z" fill="#4D4445"/>
<path d="M290.985 68.9521C290.942 66.4972 291.897 63.2015 291.101 60.9113C290.626 59.5382 290.067 58.5049 289.429 57.5046C288.369 55.8472 287.932 53.8361 288.191 51.8563C288.356 50.6046 288.421 49.332 288.226 48.2468C288.008 47.0297 287.723 45.7607 286.972 44.8557C285.902 43.5676 284.161 43.3283 282.922 42.2517C280.966 40.5527 280.748 37.3003 279.27 35.0674C277.937 33.0528 275.722 32.0733 273.577 31.4162C271.88 30.8961 270.113 30.22 268.654 29.0862C267.373 28.091 267.444 26.8601 266.265 25.7367C265.442 24.9514 263.78 23.7621 262.734 23.5124C260.386 22.9542 260.032 24.3602 258.962 24.218C257.295 23.9961 257.274 22.7062 254.821 23.4465C252.843 24.0429 251.627 25.1733 250.125 27.0422C248.482 29.0827 245.913 30.3171 244.081 32.2241C243.005 33.3424 242.059 34.5871 241.115 35.8267C239.95 37.3575 238.766 38.9231 238.112 40.7521C236.902 44.1414 237.988 47.2447 238.612 50.5786C239.29 54.1933 239.341 58.0264 238.09 61.5319C236.983 64.6248 231.831 66.726 231.058 69.9247C230.449 72.4506 229.673 77.3587 230.655 79.7425C231.916 82.8024 238.807 84.6991 241.956 85.708C245.479 86.8384 248.948 84.6852 252.506 85.0388C256.062 85.3908 260.578 82.0673 264.135 82.421C267.501 82.7539 269.014 90.6039 272.387 90.4583C274.823 90.6993 280.76 94.4059 290.882 84.543C294.02 81.4848 291.812 77.0241 292.348 75.0095C293.319 71.3463 291.025 71.1452 290.987 68.9503L290.985 68.9521Z" fill="#4D3932"/>
<path d="M263.838 49.708C263.838 49.708 260.842 61.0272 265.959 65.3042L266.409 71.0149L252.812 71.7101L252.314 64.4703C253.118 64.3402 253.796 63.7993 254.104 63.0434C254.6 61.8281 255.285 59.8968 255.463 58.1354C255.677 56.0186 253.36 50.6719 253.36 50.6719L263.838 49.708Z" fill="#F9D9B7"/>
<path d="M254.436 141.165C253.262 139.737 252.992 137.7 252.776 136.061C252.283 132.339 251.775 128.49 251.851 124.676C251.859 124.293 251.872 123.908 251.885 123.525C251.923 122.417 251.956 121.278 251.851 120.153C251.792 120.148 251.735 120.146 251.676 120.139C251.604 120.129 251.538 120.115 251.469 120.101C251.581 121.233 251.55 122.388 251.512 123.513C251.498 123.9 251.484 124.284 251.477 124.671C251.4 128.513 251.911 132.376 252.406 136.113C252.629 137.798 252.906 139.894 254.147 141.406C254.176 141.441 254.216 141.463 254.258 141.472C254.309 141.483 254.366 141.469 254.41 141.432C254.489 141.366 254.501 141.248 254.436 141.169V141.165Z" fill="#382D2F"/>
<path d="M286.639 77.0496C286.218 75.7615 285.733 74.6034 285.201 73.558C282.723 66.0078 275.662 64.7526 275.662 64.7526C272.922 63.858 269.329 63.6223 264.995 64.203L264.78 64.1996C264.511 64.6451 264.13 65.0109 263.636 65.2259C261.673 66.0789 256.972 67.7883 254.787 67.7571C252.565 67.7259 253.357 65.8015 252.088 64.0921C252.088 64.0418 252.088 64.0141 252.088 64.0141C251.6 64.0782 251.134 64.1649 250.681 64.2707C248.506 64.3504 246.884 64.9659 245.544 65.9939C242.389 67.8334 239.741 70.6974 237.027 73.1055C235.034 74.8738 233.315 76.982 231.1 78.4903C231.064 78.4903 229.803 80.4459 222.715 78.362C221.705 78.0655 218.193 76.8363 217.205 76.4775C212.652 74.827 209.862 73.8804 205.027 74.1145C204.198 74.1544 202.306 74.6814 202.429 75.7823C202.571 77.0704 202.657 77.2455 202.118 78.407C201.504 79.7298 200.83 79.846 200.888 81.3023C200.918 82.0582 201.129 84.2773 204.848 86.7894C209.599 89.9984 214.359 92.9162 219.741 94.9515C221.332 95.5531 222.958 96.0888 224.639 96.3471C229.055 97.0233 232.98 94.9637 236.833 93.0965C236.704 96.2674 236.712 98.7431 236.769 99.5007C237.195 105.151 235.658 118.956 240.072 121.87C241.858 122.822 243.253 123.103 245.212 123.524C245.591 123.606 245.969 123.679 246.35 123.748C246.953 123.894 247.807 124.013 248.815 124.112C248.912 124.124 249.01 124.136 249.109 124.14C253.129 124.507 259.339 124.564 262.211 124.57C262.211 124.582 262.213 124.592 262.214 124.604C262.73 124.596 263.245 124.584 263.767 124.568C267.595 124.445 271.407 124.07 275.128 123.19C276.221 122.931 277.07 122.692 277.931 122.397C279.272 121.938 280.26 120.782 280.515 119.382C280.903 117.264 281.089 115.05 281.112 112.879C287.013 112.313 292.615 110.808 292.755 105.742C292.973 97.8693 290.808 89.773 286.643 77.0496H286.639Z" fill="#CAE0FF"/>
<path d="M201.009 75.2002C200.106 75.1638 198.635 74.4894 197.838 74.2086C196.588 73.7682 195.832 72.5391 194.996 71.5092C194.43 70.8123 193.787 70.1778 193.085 69.6213C191.913 68.6903 190.481 67.9569 188.989 68.0523C188.647 68.0748 188.291 68.1477 188.037 68.3782C187.782 68.6071 187.677 69.0301 187.888 69.3005C187.99 69.4323 188.147 69.5069 188.296 69.5814C188.751 69.8068 189.191 70.0599 189.618 70.3373C189.914 70.5297 190.206 70.7395 190.412 71.0238C190.725 71.4572 190.805 72.0224 190.763 72.5547C190.692 73.4874 190.293 74.3611 190.099 75.2765C189.905 76.1919 186.963 76.4762 187.651 77.109C188.417 77.8146 192.601 78.4804 193.638 78.5462C196.228 78.7109 198.51 80.2921 201.009 80.9717V75.2002Z" fill="#F9D9B7"/>
<path d="M198.737 82.4833L197.628 83.3294C197.423 83.4871 197.091 83.397 196.894 83.1283L166.141 41.494C165.947 41.2322 165.954 40.8994 166.156 40.7451C166.357 40.5908 166.679 40.674 166.879 40.9289L198.74 81.7171C198.946 81.9806 198.944 82.3238 198.738 82.4816L198.737 82.4833Z" fill="#382D2F"/>
<path d="M191.679 73.9935C191.598 73.8409 191.436 73.7525 191.277 73.6831C190.898 73.5167 190.497 73.404 190.085 73.3485C190.334 73.1006 190.556 72.7591 190.419 72.4349C190.113 71.7085 188.764 71.8714 188.764 71.8714C188.764 71.8714 189.921 71.3357 189.755 70.7931C189.66 70.4845 189.37 70.273 189.069 70.1551C188.804 70.0493 188.519 69.9973 188.234 69.9991C187.924 70.0025 187.62 70.0719 187.317 70.1395C186.894 70.2366 186.47 70.3319 186.047 70.429C185.566 70.5382 185.042 70.6769 184.762 71.0826C184.547 71.3929 184.532 71.8281 184.724 72.154C184.914 72.4782 185.303 72.6759 185.677 72.6395C185.379 72.8648 185.113 73.1492 184.983 73.5011C184.855 73.853 184.886 74.2778 185.132 74.5604C185.376 74.843 185.849 74.9227 186.133 74.68C185.92 75.0666 186.002 75.5919 186.318 75.897C186.634 76.2039 187.162 76.2628 187.539 76.0357C187.226 76.1502 187.174 76.6096 187.362 76.8835C187.483 77.0586 187.663 77.1748 187.858 77.2614C187.872 77.2545 187.884 77.2476 187.9 77.2424C188.405 77.0569 188.92 76.8974 189.432 76.7327C189.923 76.5749 190.438 76.457 190.955 76.4414C191.083 76.4379 191.2 76.4449 191.311 76.464C191.662 76.3963 191.942 76.0583 191.942 75.6994C191.942 75.3405 191.66 75.0007 191.308 74.9348C191.567 74.68 191.847 74.3142 191.678 73.9917L191.679 73.9935Z" fill="#F9D9B7"/>
<path d="M185.877 72.5737C186.705 72.1646 187.632 71.849 188.564 71.908C187.668 72.09 186.776 72.3951 185.877 72.5737Z" fill="#E9866A"/>
<path d="M186.268 74.5839C187.272 73.757 188.617 73.3825 189.905 73.4016C188.643 73.6287 187.398 73.9685 186.268 74.5839Z" fill="#E9866A"/>
<path d="M187.541 76.0347C188.507 75.1678 189.918 74.9893 191.17 74.9927C191.013 75.0274 190.855 75.0499 190.698 75.0794C189.621 75.2857 188.492 75.4608 187.539 76.0364L187.541 76.0347Z" fill="#E9866A"/>
<path d="M190.29 71.0275C190.572 71.3396 190.826 71.6794 191.087 72.0088C191.173 72.1163 191.317 72.326 191.465 72.3468C191.623 72.3694 191.844 72.2168 191.989 72.1665C192.522 71.9845 193.054 71.8007 193.587 71.6187C193.67 71.591 194.609 71.1991 194.655 71.2529C194.144 70.6582 193.58 70.1104 192.966 69.6232C191.794 68.6922 190.362 67.9589 188.87 68.0543C188.528 68.0768 188.172 68.1496 187.918 68.3802C187.663 68.609 187.558 69.032 187.769 69.3025C187.871 69.4343 188.028 69.5088 188.177 69.5834C188.744 69.8642 189.36 70.1728 189.842 70.5872C190.001 70.7241 190.148 70.8732 190.29 71.0275Z" fill="#F9D9B7"/>
<path d="M202.797 74.9632L200.066 74.665C200.066 74.665 201.236 78.5831 197.635 79.7135L200.902 81.5997C200.902 81.5997 204.874 79.3477 202.797 74.9615V74.9632Z" fill="white"/>
<path d="M283.882 70.5474C283.83 70.5318 283.79 70.4867 283.785 70.4295C283.652 69.0512 283 67.7353 282.369 66.4628C281.561 64.8349 280.726 63.1498 281.001 61.3381C281.053 61 281.143 60.6689 281.229 60.3464C281.305 60.0638 281.385 59.7708 281.437 59.4796C281.613 58.4636 281.447 57.4061 281.262 56.5063C281.093 55.6811 280.856 54.7224 280.389 53.859C279.647 52.4911 278.373 51.4596 277.108 50.5494C276.926 50.4194 276.744 50.2911 276.561 50.1611C275.453 49.3757 274.307 48.5643 273.42 47.5033C272.237 46.0921 271.748 44.3983 272.113 42.9732C272.132 42.9004 272.206 42.8571 272.279 42.8744C272.349 42.8935 272.394 42.968 272.377 43.0408C272.035 44.381 272.502 45.9846 273.629 47.3282C274.495 48.3615 275.626 49.1625 276.72 49.9391C276.904 50.0692 277.085 50.1975 277.267 50.3292C278.56 51.2585 279.862 52.3143 280.629 53.7307C281.114 54.6253 281.357 55.6083 281.53 56.4526C281.72 57.3784 281.89 58.4671 281.707 59.5281C281.655 59.8315 281.573 60.1314 281.494 60.4192C281.409 60.733 281.321 61.0572 281.273 61.3797C281.012 63.1064 281.79 64.6789 282.614 66.3432C283.256 67.6365 283.918 68.9749 284.056 70.4035C284.063 70.478 284.008 70.5456 283.933 70.5526C283.916 70.5526 283.899 70.5526 283.883 70.5474H283.882Z" fill="#382924"/>
<path d="M242.305 40.1371C242.308 40.2914 242.317 40.444 242.334 40.5948C242.343 40.6694 242.408 40.7231 242.485 40.7162C242.559 40.7075 242.614 40.6434 242.606 40.5654C242.488 39.4558 242.754 38.2318 243.356 37.1205C243.875 36.1636 244.656 35.243 245.676 34.3865C245.903 34.1958 246.471 33.7832 246.852 34.0554C246.912 34.0988 246.997 34.0849 247.042 34.0242C247.085 33.9635 247.071 33.8768 247.011 33.8335C246.496 33.4642 245.844 33.8907 245.502 34.1785C244.454 35.0575 243.652 36.0023 243.117 36.9905C242.562 38.0169 242.286 39.0935 242.306 40.1354L242.305 40.1371Z" fill="#382924"/>
<path d="M267.25 38.3788C267.212 38.3771 267.174 38.3597 267.15 38.3268C266.162 37.0612 264.848 36.0609 263.579 35.0935C262.317 34.1313 261.012 33.1379 260.007 31.8741L259.937 31.7839C259.752 31.5481 259.577 31.3262 259.342 31.1806C259.278 31.1407 259.259 31.0575 259.297 30.9933C259.337 30.9292 259.42 30.9101 259.484 30.95C259.758 31.1199 259.957 31.373 260.147 31.6175L260.217 31.7059C261.199 32.942 262.49 33.9267 263.74 34.8785C265.025 35.8563 266.351 36.867 267.361 38.1604C267.407 38.2193 267.397 38.306 267.338 38.3511C267.31 38.3719 267.279 38.3805 267.248 38.3805L267.25 38.3788Z" fill="#382924"/>
<path d="M267.699 45.4143C267.816 44.6133 267.528 43.6182 266.805 43.3009C266.023 42.9577 265.686 42.949 264.721 43.9528C264.721 43.9528 264.673 43.9493 264.656 43.8939C264.562 43.8419 264.431 43.7101 264.338 43.6598C261.445 42.096 258.559 40.9657 255.731 38.6842C254.579 37.7549 250.629 33.979 250.523 33.1763C250.494 33.1728 249.185 34.6014 249.026 34.7851C245.696 38.6356 245.352 41.5985 245.677 46.7198C245.852 49.4832 246.462 52.2398 247.664 54.7675C248.622 56.7803 250.157 58.4671 252.109 59.4501C255.311 61.0625 259.74 60.4175 264.46 50.9378C264.46 50.9378 266.54 53.3112 267.699 45.4126V45.4143Z" fill="#F9D9B7"/>
<path d="M255.728 38.6842C254.576 37.7549 250.626 33.979 250.52 33.1763C250.508 33.1745 250.285 33.4086 250.015 33.6998C250.015 33.6998 250.015 33.6981 250.015 33.6964C250.013 33.6998 250.012 33.7033 250.008 33.7068C249.911 33.8108 249.811 33.92 249.711 34.0292C249.732 34.057 249.752 34.0847 249.773 34.1125C248.35 36.5985 247.093 39.4643 247.247 41.3419C247.958 40.352 246.981 39.9602 249.867 35.4959C250.022 35.255 250.169 35.0261 250.313 34.8007C250.314 34.8042 250.318 34.8077 250.321 34.8111C251.258 36.0993 252.313 37.3128 253.523 38.3513C254.22 38.9494 254.967 39.4869 255.762 39.9445C256.416 40.319 257.1 40.638 257.783 40.957C258.726 41.3956 259.666 41.8343 260.608 42.2729C261.945 42.8953 262.875 43.294 264.341 43.6633C261.407 42.0683 258.594 40.9969 255.726 38.6824L255.728 38.6842Z" fill="#F9D9B7"/>
<path d="M250.111 32.8237C250.111 32.8237 250.182 32.8411 250.231 32.8515C250.25 32.8584 250.269 32.8653 250.277 32.8705C250.284 32.874 250.296 32.8827 250.309 32.8896C250.324 32.9035 250.338 32.9174 250.343 32.9243C250.348 32.9312 250.366 32.952 250.381 32.9694C250.404 33.0023 250.433 33.0439 250.438 33.0526C250.506 33.1514 250.568 33.2537 250.632 33.356C250.746 33.538 250.921 33.6663 251.118 33.7339C251.885 34.6007 252.943 35.8715 254.346 37.6451C257.641 41.8146 258.324 41.0119 259.033 42.0035C255.879 41.2199 251.28 35.4815 249.871 33.1635C249.975 33.0664 250.06 32.9503 250.111 32.8237Z" fill="#4D3932"/>
<path d="M250.275 32.8703C250.275 32.8703 250.294 32.8825 250.306 32.8894C250.322 32.9033 250.335 32.9171 250.341 32.9241C250.346 32.931 250.363 32.9518 250.379 32.9691C250.401 33.0021 250.43 33.0437 250.436 33.0524C250.503 33.1512 250.565 33.2535 250.629 33.3557C250.679 33.4355 250.742 33.5048 250.813 33.5638C250.526 34.0197 250.211 34.5104 249.869 35.0409C246.981 39.5051 247.96 39.8969 247.249 40.8868C247.078 38.8047 248.643 35.5038 250.245 32.8564C250.258 32.8616 250.27 32.8651 250.275 32.8686V32.8703Z" fill="#4D3932"/>
<path d="M266.484 47.0078C266.37 46.7114 266.235 46.4219 266.081 46.1462C266.038 46.0682 265.934 45.8844 265.76 45.8168C265.832 45.7561 265.91 45.7024 265.983 45.6486C266.187 45.503 266.441 45.321 266.709 45.3054C266.775 45.3019 266.826 45.2447 266.823 45.1771C266.819 45.1112 266.762 45.0592 266.695 45.0627C266.358 45.0817 266.073 45.2863 265.843 45.451C265.635 45.6001 265.378 45.7839 265.243 46.0578C265.168 46.2104 265.137 46.3785 265.111 46.5259L264.869 47.8573C264.857 47.9232 264.9 47.9856 264.966 47.9978C265.032 48.0099 265.094 47.9666 265.106 47.9007L265.348 46.5692C265.374 46.4305 265.4 46.2866 265.459 46.1653C265.485 46.1133 265.518 46.063 265.556 46.0162C265.576 46.0353 265.602 46.0474 265.632 46.0491C265.704 46.0526 265.777 46.1237 265.86 46.2745C266.009 46.5398 266.138 46.8171 266.247 47.1015C266.264 47.1448 266.301 47.1743 266.342 47.1812C266.365 47.1847 266.389 47.1829 266.411 47.1743C266.477 47.1483 266.51 47.072 266.484 47.0061V47.0078Z" fill="#E7846A"/>
<path d="M256.877 46.4451C256.946 47.1646 256.624 47.7887 256.159 47.8355C255.694 47.8841 255.26 47.338 255.191 46.6185C255.122 45.8973 255.443 45.2749 255.908 45.2281C256.374 45.1796 256.808 45.7257 256.877 46.4451Z" fill="#4A2C28"/>
<path d="M247.526 45.8108C246.944 45.8472 246.482 46.0379 246.176 46.3777C246.105 46.4557 246.112 46.5753 246.19 46.6464C246.268 46.7158 246.387 46.7105 246.458 46.6325C246.871 46.1766 247.59 46.1488 248.123 46.206C248.776 46.2771 249.388 46.4574 249.992 46.7591C250.085 46.8059 250.199 46.7678 250.246 46.6741C250.293 46.5805 250.255 46.4661 250.161 46.4193C249.516 46.0968 248.863 45.9026 248.164 45.8264C247.938 45.8021 247.727 45.7969 247.528 45.809L247.526 45.8108Z" fill="#4A2C28"/>
<path d="M255.788 45.0534C255.205 45.0899 254.744 45.2805 254.438 45.6204C254.367 45.6984 254.374 45.818 254.452 45.8891C254.529 45.9584 254.649 45.9532 254.72 45.8752C255.133 45.4192 255.852 45.3915 256.385 45.4487C257.038 45.5198 257.65 45.7001 258.254 46.0018C258.347 46.0486 258.461 46.0104 258.508 45.9168C258.554 45.8232 258.516 45.7088 258.423 45.662C257.778 45.3395 257.126 45.1453 256.426 45.069C256.2 45.0448 255.989 45.0396 255.79 45.0517L255.788 45.0534Z" fill="#4A2C28"/>
<path d="M248.803 47.1058C248.872 47.8253 248.55 48.4494 248.085 48.4962C247.62 48.5447 247.186 47.9986 247.117 47.2791C247.048 46.5597 247.369 45.9356 247.834 45.8887C248.299 45.8402 248.733 46.3863 248.803 47.1058Z" fill="#4A2C28"/>
<path d="M256.457 42.1961C256.039 42.0626 255.603 41.9274 255.167 41.9915C254.733 42.0557 254.303 42.3816 254.273 42.8202C254.681 43.1046 255.224 43.0439 255.721 43.0248C256.848 42.9797 257.842 43.2745 258.897 43.6108C259.573 42.6659 257.085 42.3955 256.459 42.1961H256.457Z" fill="#4A2C28"/>
<path d="M248.119 42.3885C248.46 42.2828 248.814 42.177 249.165 42.2308C249.516 42.2845 249.863 42.5515 249.884 42.9086C249.552 43.1375 249.113 43.0837 248.71 43.0647C247.796 43.0213 246.99 43.2536 246.132 43.5189C245.591 42.7491 247.609 42.5446 248.117 42.3885H248.119Z" fill="#4A2C28"/>
<path d="M255.035 52.9297L250.896 53.2816C250.804 53.2885 250.759 53.4151 250.816 53.5053C251.37 54.3825 253.648 57.5621 255.156 53.1273C255.189 53.0302 255.123 52.921 255.037 52.9297H255.035Z" fill="#FCA388"/>
<path d="M252.062 50.7767C251.809 50.7178 251.619 50.6085 251.488 50.4456C251.071 49.9307 251.379 49.1158 251.678 48.3288C251.778 48.0652 251.872 47.8173 251.929 47.6041C251.963 47.4723 252.093 47.3891 252.231 47.429C252.363 47.4636 252.441 47.5989 252.406 47.7324C252.342 47.9716 252.243 48.2317 252.14 48.5056C251.915 49.1002 251.633 49.8423 251.872 50.1353C251.986 50.2757 252.3 50.4144 253.16 50.2791C253.295 50.2583 253.421 50.3502 253.442 50.4854C253.462 50.6207 253.371 50.7472 253.236 50.768C252.753 50.8443 252.363 50.8478 252.062 50.7784V50.7767Z" fill="#E7846A"/>
<g opacity="0.29">
<path d="M258.306 49.8576C258.179 50.0067 258.057 50.1662 257.998 50.3535C257.861 50.7973 258.141 51.2879 258.537 51.5289C258.933 51.7699 259.417 51.8132 259.881 51.8184C260.154 51.8219 260.434 51.8132 260.692 51.7161C260.994 51.6017 261.241 51.3746 261.461 51.1354C261.748 50.8216 262.006 50.4714 262.154 50.0709C262.303 49.6721 262.336 49.2179 262.182 48.8209C262.121 48.6666 262.032 48.5192 261.898 48.4222C261.781 48.3355 261.637 48.2939 261.496 48.2626C260.178 47.9801 259.106 48.9162 258.309 49.8559L258.306 49.8576Z" fill="#F9C5E6"/>
</g>
<g opacity="0.29">
<path d="M247.738 51.4468C247.688 51.2578 247.572 51.0931 247.451 50.9388C247.05 50.4274 246.573 49.9159 246.018 49.5796C246.211 50.6493 246.479 51.7051 246.832 52.7366C246.944 52.7019 247.051 52.6586 247.155 52.6014C247.562 52.376 247.859 51.8975 247.74 51.4468H247.738Z" fill="#F9C5E6"/>
</g>
<path d="M260.036 46.099C259.775 44.2925 258.292 42.9541 256.601 43.065C255.102 43.1621 253.914 44.367 253.644 45.91C252.227 45.2755 251.217 45.6309 250.716 45.9291C250.263 44.5421 249.014 43.5799 247.614 43.6701C245.926 43.7793 244.652 45.3743 244.771 47.2241C244.891 49.0739 246.362 50.4904 248.048 50.3811C249.735 50.2719 251.009 48.6769 250.89 46.8271C250.88 46.6693 250.856 46.515 250.826 46.3642C251.196 46.1111 252.152 45.6621 253.591 46.3573C253.582 46.5133 253.579 46.6711 253.591 46.8306C253.717 48.7914 255.275 50.291 257.061 50.1748C258.802 50.0621 260.124 48.4533 260.073 46.5566L264.713 43.9388C264.609 43.8677 264.447 43.7394 264.341 43.6649L260.035 46.1007L260.036 46.099ZM248.02 49.9546C246.568 50.05 245.3 48.8122 245.197 47.1981C245.093 45.5841 246.189 44.1919 247.641 44.0983C249.094 44.0029 250.361 45.2408 250.465 46.8548C250.569 48.4689 249.472 49.861 248.02 49.9546ZM257.033 49.7466C255.48 49.8472 254.128 48.5261 254.016 46.8028C253.904 45.0778 255.076 43.5938 256.629 43.4915C258.179 43.391 259.533 44.712 259.646 46.4353C259.758 48.1603 258.586 49.6443 257.033 49.7466Z" fill="white"/>
<path d="M250.797 64.1403C250.805 64.1195 250.992 64.1212 251.02 64.1195C251.094 64.116 251.17 64.116 251.245 64.1143C251.411 64.1108 251.578 64.0918 251.744 64.0692C252.234 64.0068 252.737 63.8941 253.2 63.7225C253.264 63.6982 253.167 65.0591 253.262 65.418C253.501 66.3178 253.864 67.1292 254.792 67.7602L250.48 72.3701C250.544 72.3007 250.377 71.6298 250.366 71.5344C250.285 70.8375 250.228 70.1371 250.216 69.4367C250.187 67.8556 250.124 66.2641 250.574 64.728C250.633 64.5304 250.712 64.3327 250.8 64.1368L250.797 64.1403Z" fill="white"/>
<path d="M264.242 63.9592C264.447 63.9314 265.986 63.9592 266.96 63.9297C263.752 69.9074 255.747 72.9673 255.747 72.9673L254.793 67.7611C260.353 67.0104 262.929 65.1155 264.242 63.9609V63.9592Z" fill="white"/>
<path d="M285.101 99.4964C283.574 98.6174 281.322 98.5671 279.689 99.1704C280.429 99.2294 281.161 99.2277 281.901 99.2589C282.974 99.3057 284.026 99.382 285.103 99.4964H285.101Z" fill="#9DC7F4"/>
<path d="M239.218 80.7544C237.764 83.3306 237.03 87.7879 237.221 91.3558C237.512 89.9134 237.73 88.4571 237.986 87.0008C238.361 84.8875 238.764 82.8365 239.217 80.7544H239.218Z" fill="#9DC7F4"/>
<path d="M261.973 103.308C263.968 101.784 266.477 101.135 268.873 100.548C272.111 99.8386 275.533 99.5369 278.842 99.3843C275.936 94.6063 273.181 88.6772 273.021 83.0098C272.806 88.691 275.363 94.4832 278.202 99.2925L278.401 98.911L276.249 99.0445C271.881 99.4086 265.351 100.369 261.973 103.308Z" fill="#9DC7F4"/>
<path d="M274.583 113.649C273.232 113.772 271.882 113.843 270.546 113.845C268.078 113.786 265.49 113.69 263.215 112.629C267.143 114.774 273.779 114.623 278.07 113.73C278.765 113.586 280.798 112.954 280.798 112.954C280.798 112.954 276.261 113.498 274.581 113.651L274.583 113.649Z" fill="#9DC7F4"/>
<path d="M262.722 110.067C262.722 110.067 262.72 110.063 262.718 110.06C262.711 110.049 262.705 110.039 262.694 110.023C261.639 108.416 260.498 106.844 259.636 105.124C258.481 105.344 257.329 105.518 256.65 105.499C254.876 105.447 253.145 104.991 251.394 104.75C248.949 104.413 246.468 104.496 244.003 104.581C242.678 104.626 241.326 104.679 240.067 105.14C238.79 105.606 237.337 105.587 236.004 105.902C235.731 105.967 235.424 106.074 235.327 106.338C235.233 106.596 235.403 106.889 235.638 107.028C235.875 107.166 236.158 107.187 236.431 107.204C237.291 107.26 238.148 107.315 239.008 107.371C237.766 108.158 236.12 108.186 234.986 109.12C234.926 109.17 234.863 109.226 234.83 109.297C234.699 109.583 235.06 109.841 235.365 109.921C236.788 110.294 238.292 109.883 239.668 109.361C241.044 108.841 242.41 108.2 243.876 108.099C241.637 108.99 240.04 109.758 237.975 111.003C237.939 111.024 237.638 111.126 237.633 111.292C237.621 111.636 238 111.809 238.067 111.83C238.396 111.937 238.772 111.965 239.118 111.977C239.946 112.005 240.74 111.684 241.468 111.32C243.384 110.356 245.175 109.859 247.338 109.843C246.051 110.455 244.765 111.067 243.479 111.677C243.228 111.797 242.996 111.958 242.82 112.173C242.109 113.045 243.608 113.047 244.047 112.919C244.516 112.783 244.934 112.523 245.368 112.301C247.191 111.369 249.26 111.128 251.28 111.116C252.279 111.109 253.287 111.138 254.283 111.209C255.381 111.287 256.465 111.599 257.571 111.466C258.868 111.308 260.102 110.8 261.385 110.563C261.799 110.486 262.316 110.382 262.851 110.273C262.808 110.204 262.765 110.134 262.722 110.065V110.067Z" fill="#F9D9B7"/>
<path d="M244.247 108.135C244.942 108.031 245.663 108.065 246.401 108.007C245.694 107.809 244.953 107.709 244.2 107.809C243.827 107.861 243.459 107.984 243.128 108.136C243.042 108.174 242.956 108.213 242.869 108.251C243.199 108.178 243.896 108.178 244.245 108.135H244.247Z" fill="#EC8E75"/>
<path d="M239.001 107.373C238.913 107.429 240.422 106.974 241.226 106.598C241.524 106.458 241.809 106.345 242.118 106.305C242.428 106.257 242.758 106.264 243.09 106.244C243.75 106.22 244.413 106.175 245.073 106.109C244.411 106.049 243.75 106.009 243.088 105.99C242.76 105.977 242.426 105.964 242.079 105.997C241.728 106.029 241.389 106.161 241.088 106.298C240.286 106.68 238.88 107.364 238.999 107.371L239.001 107.373Z" fill="#EC8E75"/>
<path d="M260.855 103.898L257.66 104.94C257.66 104.94 261.026 108.677 257.748 111.71L262.005 111.646C262.005 111.646 265.287 107.532 260.857 103.896L260.855 103.898Z" fill="white"/>
<path d="M155.44 147.834H0V163.999H155.44V147.834Z" fill="#E6E3DF"/>
<path d="M162.115 141.12H0V148.954H162.115V141.12Z" fill="#CCC5B8"/>
<path d="M140.288 131.825H137.238V139.233H140.288V131.825Z" fill="#A37D62"/>
<path d="M149.908 133.073C149.744 133.073 149.584 132.992 149.489 132.841L127.259 97.2636C127.115 97.0331 127.184 96.728 127.414 96.5837C127.644 96.4378 127.948 96.5091 128.094 96.7396L150.325 132.317C150.468 132.548 150.399 132.853 150.169 132.997C150.088 133.049 149.997 133.072 149.908 133.072V133.073Z" fill="#B88D6E"/>
<path d="M149.206 125.113C154.976 119.328 154.976 109.948 149.206 104.162C143.437 98.3766 134.082 98.3766 128.312 104.162C122.543 109.948 122.543 119.328 128.312 125.113C134.082 130.899 143.437 130.899 149.206 125.113Z" fill="#7693DB"/>
<path d="M136.917 127.499C145.076 127.499 151.691 120.866 151.691 112.685C151.691 109.227 150.51 106.045 148.529 103.524C151.598 106.239 153.533 110.212 153.533 114.638C153.533 122.82 146.918 129.453 138.759 129.453C134.047 129.453 129.852 127.242 127.146 123.798C129.751 126.101 133.171 127.499 136.915 127.499H136.917Z" fill="#6982C2"/>
<path d="M124.94 109.393C124.976 109.295 125.014 109.197 125.054 109.1C125.165 109.116 125.302 109.136 125.293 109.255C125.291 109.285 125.125 109.264 125.099 109.325C125.097 109.328 125.16 109.478 125.145 109.529C125.13 109.584 125.094 109.595 125.08 109.639C125.084 109.629 125.003 109.854 125.014 109.847C124.946 109.889 124.882 109.859 124.809 109.847C124.797 109.846 124.787 109.844 124.777 109.841C124.801 109.771 124.825 109.703 124.85 109.634C124.94 109.574 125.008 109.498 124.94 109.391V109.393Z" fill="#A2B9F2"/>
<path d="M138.371 104.091C138.097 103.996 137.794 104.164 137.543 104.253C137.659 104.116 137.836 104.109 137.817 103.9C137.819 103.925 137.685 103.686 137.705 103.698C137.612 103.637 137.457 103.648 137.368 103.703C137.285 103.753 137.34 103.885 137.239 103.899C137.204 103.904 137.206 103.801 137.171 103.792C137.151 103.773 137.143 103.748 137.148 103.718C137.09 103.695 137.04 103.706 137.001 103.753C136.91 103.746 136.709 103.734 136.607 103.758C136.825 103.522 136.337 103.557 136.203 103.547C136.243 103.322 135.631 103.278 135.461 103.257C135.36 103.244 135.257 103.257 135.158 103.227C135.147 103.167 135.11 103.134 135.051 103.126C134.983 103.108 134.914 103.103 134.844 103.109C134.613 103.111 134.262 103.189 134.027 103.237C133.602 103.322 133.769 103.436 133.987 103.625C133.853 103.643 133.741 103.567 133.614 103.562C133.519 103.557 133.415 103.584 133.321 103.593C133.157 103.608 132.994 103.612 132.831 103.627C132.785 103.635 132.737 103.642 132.691 103.65C132.613 103.686 132.575 103.67 132.578 103.597C132.41 103.58 132.213 103.59 132.041 103.613C131.808 103.645 131.661 103.841 131.449 103.928C131.477 103.719 131.08 103.882 130.915 103.832C130.756 103.786 130.733 103.691 130.486 103.71C130.002 103.744 129.534 103.909 129.058 103.915C128.863 103.918 128.682 103.947 128.502 103.978C127.072 105.363 125.919 107.034 125.137 108.9C125.218 108.95 125.269 109.014 125.362 109.134C125.491 109.301 125.883 109.795 126.053 109.543C126.015 109.6 126.033 109.313 126.043 109.394C126.031 109.308 126.079 109.445 126.035 109.243C126.002 109.092 125.821 109.094 125.995 108.956C126.117 108.86 126.276 108.928 126.418 108.812C126.661 108.615 126.445 108.789 126.344 108.533C126.304 108.436 126.364 108.099 126.43 108.006C126.594 107.776 126.647 107.956 126.842 108.009C126.928 108.033 126.876 108.079 126.991 108.064C127.048 108.057 127.181 107.898 127.252 107.89C127.313 107.883 127.482 107.96 127.53 107.971C127.698 108.009 127.847 107.953 127.998 107.971C128.173 107.993 128.208 108.172 128.386 108.291C128.545 108.397 128.682 108.485 128.839 108.601C129.14 108.822 128.937 108.548 129.073 108.462C129.228 108.364 129.306 108.646 129.441 108.701C129.41 108.711 129.124 108.933 129.13 108.93C129.069 108.95 128.841 108.752 128.724 108.916C128.629 109.047 128.988 109.081 129 109.232C129.005 109.291 128.732 109.532 128.667 109.62C128.386 109.999 128.323 110.309 128.547 110.799C128.656 111.037 128.925 111.238 129.162 111.341C129.321 111.41 129.589 111.362 129.648 111.546C129.656 111.571 129.428 112.059 129.782 111.943C130.014 111.866 129.737 111.631 129.792 111.527C129.919 111.284 130.214 111.566 130.232 111.737C130.257 111.974 129.918 112.162 129.802 112.336C129.684 112.515 129.544 112.842 129.684 113.047C129.752 113.145 129.871 113.16 129.956 113.235C130.01 113.283 130.045 113.42 130.129 113.448C130.318 113.511 130.177 113.445 130.28 113.283C130.336 113.195 130.366 113.254 130.472 113.145C130.533 113.082 130.544 112.987 130.615 112.928C130.74 112.823 130.824 112.865 130.888 112.71C130.933 112.757 130.997 113.072 130.993 113.145C130.984 113.278 130.945 113.258 130.912 113.341C130.811 113.586 130.731 113.661 130.559 113.825C130.308 114.064 130.068 114.966 130.665 114.455C130.753 114.249 130.811 114.021 130.918 113.825C131.029 113.626 131.133 113.619 131.166 113.397C131.196 113.2 131.128 113.004 131.178 112.805C131.231 112.596 131.346 112.382 131.439 112.19C131.461 112.251 131.578 112.366 131.654 112.366C131.904 112.369 131.791 112.236 131.831 112.095C131.922 111.77 132.165 111.581 132.325 111.289C132.464 111.389 132.65 111.337 132.78 111.427C132.914 111.517 132.795 111.492 132.886 111.596C133.043 111.779 133.247 111.961 133.422 112.127C133.483 112.185 133.686 112.313 133.711 112.367C133.744 112.442 133.69 112.767 133.696 112.863C133.701 112.948 133.681 113.09 133.703 113.162C133.726 113.246 133.931 113.501 134.016 113.513C134.207 113.541 134.305 113.178 134.379 113.014C134.487 112.778 134.591 112.543 134.694 112.308C134.811 112.039 134.813 111.754 134.905 111.483C135.104 111.679 135.277 111.462 135.405 111.314C135.348 111.264 135.353 111.23 135.416 111.21C135.466 111.178 135.512 111.145 135.557 111.109C135.631 111.046 135.716 110.888 135.79 110.852C135.959 110.769 136.322 110.895 136.521 110.875C136.635 110.863 136.809 110.852 136.911 110.802C136.976 110.77 137.057 110.676 137.098 110.658C137.252 110.595 137.444 110.654 137.647 110.561C137.664 110.555 137.88 110.432 137.903 110.404C137.961 110.334 137.96 110.193 138.044 110.14C138.241 110.016 138.332 110.152 138.239 110.339C138.145 110.53 137.983 110.53 137.983 110.769C137.736 110.528 137.879 110.804 137.791 110.905C137.726 110.978 137.803 110.968 137.64 110.986C137.371 111.017 137.381 110.663 137.196 110.663C137.161 110.842 137.062 110.944 136.948 111.047C136.842 111.142 136.743 111.047 136.678 111.258C136.645 111.369 136.696 111.44 136.746 111.54C136.812 111.671 136.872 111.787 136.964 111.891C137.034 111.968 137.158 112.089 137.237 112.132C137.371 112.203 137.513 112.208 137.616 112.306C137.68 112.366 137.669 112.422 137.773 112.48C137.837 112.515 137.92 112.508 137.988 112.535C138.252 112.639 138.532 112.881 138.834 112.813C138.739 113.062 138.72 113.162 138.426 113.099C138.299 113.072 137.814 112.843 137.722 112.972C137.568 113.19 137.97 113.826 138.061 113.997C138.244 114.339 138.504 114.453 138.75 114.719C138.972 114.956 139.205 115.241 139.332 115.539C139.425 115.757 139.349 115.687 139.326 115.884C139.311 116.014 139.393 116.141 139.341 116.287C139.271 116.48 139.231 116.461 139.223 116.68C139.216 116.851 139.155 117.042 139.207 117.209C139.312 117.553 139.731 117.619 139.933 117.888C140.085 118.091 139.981 118.116 139.957 118.344C139.942 118.488 139.972 118.68 140.095 118.776C140.268 118.914 140.272 118.796 140.354 118.997C140.44 119.208 140.445 119.302 140.591 119.493C140.766 119.722 140.925 120.012 141.201 120.141C141.393 120.231 141.593 120.217 141.795 120.241C141.924 120.256 142.112 120.342 142.238 120.3C142.501 120.214 142.375 120.017 142.413 119.838C142.488 119.488 142.767 119.272 142.84 118.926C142.866 118.801 142.876 118.674 142.891 118.549C142.918 118.332 142.972 118.259 143.073 118.063C143.257 117.71 143.298 117.486 143.175 117.098C143.131 116.956 143.025 116.843 142.984 116.712C142.936 116.558 143.027 116.384 143.053 116.239C143.126 115.853 143.253 115.583 143.486 115.254C143.683 114.979 143.569 114.81 143.549 114.496C143.539 114.349 143.503 114.283 143.63 114.188C143.768 114.087 143.931 114.224 144.072 114.132C144.197 114.049 144.159 113.888 144.336 113.836C144.494 113.79 144.675 113.881 144.816 113.936C145 114.007 145.084 114.047 145.261 114.05C145.431 114.054 145.54 114.022 145.717 114.067C145.934 114.122 145.937 114.16 146.142 114.042C146.261 113.974 146.357 113.863 146.463 113.78C146.714 113.579 146.791 113.306 147.024 113.07C147.24 112.85 147.303 112.636 147.24 112.369C147.171 112.075 147.121 111.881 147.161 111.585C147.168 111.541 147.222 111.531 147.222 111.447C147.222 111.357 147.173 111.301 147.136 111.226C147.073 111.095 146.964 111.042 146.9 110.93C146.853 110.848 146.858 110.731 146.807 110.639C146.751 110.538 146.614 110.432 146.518 110.356C146.387 110.253 146.25 110.223 146.175 110.049C146.122 109.925 146.172 109.805 146.078 109.676C146 109.57 145.851 109.532 145.765 109.44C145.729 109.401 145.707 109.309 145.673 109.28C145.56 109.188 145.621 109.195 145.482 109.187C145.408 109.183 145.277 109.253 145.172 109.24C144.995 109.218 144.909 109.11 144.742 109.051C144.434 108.941 144.095 108.991 143.784 108.953C143.706 108.943 143.462 108.865 143.382 108.956C143.306 109.042 143.379 109.019 143.376 109.124C143.362 109.167 143.347 109.208 143.334 109.251C143.359 109.303 143.384 109.354 143.41 109.406C143.362 109.62 143.136 109.568 142.964 109.621C142.805 109.671 142.711 109.777 142.574 109.855C142.511 109.89 142.284 110.024 142.21 109.966C142.101 109.883 142.238 109.752 142.051 109.649C141.785 109.503 141.31 109.862 141.024 109.885C140.859 109.898 140.733 109.84 140.566 109.845C140.356 109.852 140.315 109.943 140.202 109.756C140.134 109.643 140.105 109.429 140.09 109.299C140.05 108.938 140.202 109.14 140.391 109.142C140.493 109.142 140.554 109.071 140.649 109.059C140.725 109.049 140.791 109.115 140.835 109.107C140.895 109.097 141.128 109.066 141.176 109.034C141.226 109.001 141.335 108.865 141.361 108.8C141.393 108.721 141.323 108.469 141.457 108.437C141.469 108.487 141.398 108.623 141.457 108.671C141.533 108.734 141.652 108.588 141.735 108.6C142.018 108.641 141.831 108.751 141.922 108.873C141.934 108.89 142.061 108.991 142.056 108.981C142.119 109.1 142.16 109.105 142.173 109.281C142.182 109.387 142.162 109.523 142.261 109.588C142.299 109.613 142.564 109.571 142.593 109.532C142.651 109.454 142.582 109.283 142.555 109.203C142.511 109.072 142.385 108.966 142.344 108.848C142.286 108.679 142.324 108.777 142.39 108.639C142.407 108.606 142.502 108.369 142.522 108.353C142.699 108.212 142.63 108.396 142.828 108.389C143.042 108.381 143.189 107.963 143.261 107.789C143.384 107.489 143.295 107.363 143.235 107.064C143.576 107.233 143.412 108.187 143.873 108.021C143.797 107.862 143.708 107.752 143.686 107.591C143.686 107.591 143.789 107.611 143.769 107.532C143.754 107.472 143.685 107.446 143.658 107.397C143.586 107.265 143.336 106.621 143.179 106.608C143.144 106.643 143.132 106.684 143.146 106.733C142.989 106.613 142.853 106.57 142.704 106.514C142.554 106.457 142.416 106.366 142.435 106.187C142.489 105.678 143.068 105.804 143.397 105.902C143.566 105.951 143.668 106.086 143.849 106.097C144.179 106.119 143.933 106.063 143.964 105.922C144.032 105.617 144.199 105.839 144.343 105.905C144.503 105.98 144.444 105.918 144.561 105.947C144.68 105.975 144.575 105.764 144.738 105.998C144.573 106.086 144.654 106.185 144.581 106.301C144.48 106.462 144.442 106.298 144.403 106.457C144.348 106.674 144.619 106.951 144.718 107.114C144.78 107.212 145.011 107.716 145.152 107.591C145.198 107.55 145.188 107.359 145.193 107.325C145.205 107.235 145.317 107.308 145.219 107.139C145.401 107.112 145.302 106.854 145.248 106.736C145.148 106.522 144.976 106.474 144.963 106.238C145.047 106.238 145.112 106.281 145.162 106.288C145.186 106.291 145.34 106.258 145.34 106.26C145.4 106.273 145.514 106.361 145.57 106.356C145.702 106.343 145.683 106.245 145.783 106.192C145.859 106.152 145.906 106.127 145.988 106.124C146.068 106.119 146.207 106.242 146.271 106.132C146.323 106.044 145.931 105.816 145.899 105.784C146.197 105.532 146.587 106.217 146.784 105.958C146.977 105.704 146.05 105.32 145.864 105.207C145.466 104.963 144.976 104.774 144.53 104.632C144.436 104.602 144.336 104.58 144.239 104.572C144.224 104.645 144.188 104.658 144.13 104.61C144.062 104.583 143.992 104.557 143.923 104.534C143.721 104.467 143.491 104.442 143.303 104.343C143.152 104.263 143.051 104.151 142.878 104.086C142.671 104.011 142.501 104.04 142.301 104.01C142.079 103.977 141.9 103.932 141.667 103.952C141.424 103.973 141.333 104.073 141.118 104.117C140.895 104.164 140.564 104.199 140.372 104.331C140.085 104.529 140.364 104.632 140.596 104.645C140.706 104.651 140.792 104.583 140.824 104.706C140.827 104.719 140.702 104.821 140.688 104.824C140.672 104.827 140.652 104.703 140.602 104.7C140.523 104.693 140.422 104.754 140.351 104.781C140.341 104.623 140.114 104.552 139.971 104.529C140.028 104.459 140.015 104.361 140.062 104.278C139.911 104.237 139.585 104.23 139.774 104.418C139.63 104.507 139.512 104.376 139.354 104.315C139.154 104.239 139.031 104.24 138.828 104.245C138.715 104.247 138.504 104.239 138.409 104.214C138.368 104.202 138.433 104.121 138.381 104.103L138.371 104.091ZM141.213 108.424C141.211 108.401 141.3 108.384 141.303 108.417C141.274 108.419 141.242 108.422 141.213 108.424ZM139.602 108.255C139.537 108.12 139.833 107.97 139.926 107.913C140.139 107.786 140.234 107.749 140.462 107.786C140.611 107.809 140.511 107.882 140.649 107.802C140.698 107.772 140.771 107.683 140.753 107.626C140.907 107.562 140.915 107.504 141.067 107.628C141.143 107.691 141.259 107.95 141.267 108.036C141.297 108.311 141.092 108.356 140.831 108.288C140.525 108.208 140.483 108.155 140.176 108.256C140.063 108.293 139.683 108.422 139.602 108.255ZM139.078 112.036C139.22 111.792 139.418 111.624 139.511 111.361C139.592 111.13 139.749 110.949 139.881 110.741C139.923 110.674 140.03 110.444 140.1 110.414C140.157 110.389 140.195 110.429 140.262 110.409C140.27 110.575 140.06 110.959 139.966 111.102C139.901 111.2 139.823 111.255 139.767 111.361C139.699 111.49 139.727 111.626 139.675 111.752C139.628 111.861 139.546 111.893 139.489 111.986C139.441 112.065 139.446 112.16 139.407 112.238C139.298 112.45 139.046 112.575 138.882 112.765C138.801 112.556 138.978 112.208 139.078 112.036ZM137.125 104.015C137.029 104.239 136.868 104.326 137.072 104.544C136.749 104.625 136.928 104.366 136.898 104.234C137.058 104.222 137.04 104.108 137.125 104.016V104.015Z" fill="#A2B9F2"/>
<path d="M151.559 107.385C151.328 107.442 151.323 107.493 151.254 107.298C151.186 107.106 151.186 106.96 151.428 107.013C151.501 107.134 151.57 107.255 151.64 107.379C151.607 107.379 151.578 107.38 151.557 107.385H151.559Z" fill="#A2B9F2"/>
<path d="M152.392 120.301C152.09 120.29 152.004 120.444 151.834 120.097C151.719 119.867 151.66 119.681 151.523 119.49C151.455 119.396 151.402 119.384 151.374 119.273C151.342 119.149 151.44 119.016 151.412 118.893C151.359 118.658 151.022 118.558 150.821 118.494C150.529 118.399 150.522 118.398 150.42 118.137C150.329 117.905 150.215 117.653 150.213 117.391C150.211 117.054 150.253 116.932 150.044 116.643C149.867 116.398 149.667 116.181 149.725 115.854C149.775 115.575 150.024 115.531 150.234 115.375C150.458 115.21 150.696 115.255 150.95 115.154C151.046 115.205 151.101 115.179 151.116 115.078C151.141 115.058 151.164 115.036 151.189 115.016C151.324 114.95 151.491 114.953 151.612 114.902C151.585 114.914 151.781 114.774 151.784 114.769C151.842 114.69 151.853 114.604 151.888 114.506C151.956 114.31 152.039 114.08 152.227 113.962C152.46 113.818 152.736 113.919 152.938 113.736C153.016 113.667 153.041 113.565 153.123 113.501C153.256 113.398 153.289 113.448 153.357 113.294C153.375 113.252 153.297 113.154 153.335 113.119C153.39 113.073 153.426 113.078 153.454 113.108C153.505 113.61 153.532 114.121 153.532 114.637C153.532 116.811 153.064 118.877 152.225 120.737C152.184 120.596 152.267 120.383 152.392 120.298V120.301Z" fill="#A2B9F2"/>
<path d="M124.39 117.984C124.446 117.898 124.583 117.855 124.628 117.769C124.724 117.583 124.653 117.303 124.744 117.107C124.775 117.056 124.823 117.032 124.884 117.037C124.876 116.949 124.881 116.863 124.903 116.779C124.914 116.711 124.934 116.482 125.04 116.483C125.121 116.667 125.189 116.848 125.248 117.041C125.28 117.143 125.316 117.425 125.399 117.49C125.574 117.628 125.882 117.266 126.007 117.123C125.941 116.949 125.705 116.817 125.891 116.684C125.956 116.638 126.424 116.553 126.5 116.583C126.447 116.808 126.513 116.658 126.672 116.74C126.803 116.81 126.918 117.007 126.923 117.147C127.157 117.094 127.178 116.9 127.439 117.06C127.565 117.137 127.767 117.337 127.757 117.483C127.932 117.43 127.843 117.376 127.987 117.556C128.046 117.633 128.058 117.783 128.18 117.858C128.322 117.944 128.527 117.977 128.688 118.036C129.096 118.181 129.47 118.361 129.354 118.886C129.54 118.802 129.392 119.425 129.384 119.533C129.378 119.637 129.346 119.767 129.373 119.866C129.392 119.943 129.526 120.064 129.535 120.117C129.621 120.617 128.933 120.214 128.696 120.196C128.245 120.16 127.768 119.763 127.284 119.83C127.072 119.86 126.993 119.972 126.922 120.143C126.796 120.443 126.808 120.263 126.535 120.15C126.599 120.243 126.697 120.282 126.723 120.4C126.346 120.38 126.616 120.667 126.442 120.846C126.285 121.009 126.111 120.876 125.968 120.881C125.865 120.884 125.824 120.974 125.711 120.974C125.63 120.974 125.536 120.871 125.458 120.84C125.399 120.816 125.351 120.797 125.313 120.78C124.914 119.903 124.597 118.979 124.375 118.019C124.38 118.007 124.385 117.994 124.392 117.984H124.39Z" fill="#A2B9F2"/>
<path d="M148.451 104.679C148.279 104.648 148.142 104.59 147.993 104.5C147.823 104.398 147.778 104.394 147.595 104.358C147.299 104.298 147.009 104.238 146.798 104.049C146.723 103.983 146.634 104.068 146.667 103.892C146.687 103.786 146.817 103.801 146.869 103.726C146.634 103.623 146.173 103.656 146.273 103.267C146.158 103.238 146.062 103.179 146.191 103.078C146.07 102.962 145.938 102.904 145.776 102.855C145.7 102.832 145.42 102.819 145.395 102.749C145.342 102.595 145.756 102.65 145.881 102.643C145.92 102.642 145.956 102.637 145.992 102.63H147.41C148.393 103.343 149.286 104.175 150.067 105.106C149.988 105.293 149.849 105.359 149.642 105.401C149.467 105.437 149.465 105.5 149.306 105.32C149.229 105.232 149.143 105.144 149.076 105.059C148.855 104.782 148.767 104.741 148.455 104.683L148.451 104.679Z" fill="#A2B9F2"/>
<path d="M125.51 116.173C125.467 116.186 125.394 116.12 125.333 116.138C125.277 116.155 125.249 116.226 125.198 116.251C124.844 116.424 124.779 115.908 124.5 116.142C124.424 116.205 124.395 116.298 124.336 116.371V115.674C124.377 115.646 124.419 115.618 124.447 115.593C124.601 115.455 124.695 115.359 124.892 115.276C125.07 115.2 125.384 115.017 125.581 115.031C125.755 115.042 125.806 115.246 125.932 115.296C126.074 115.14 126.17 114.633 126.517 114.931C126.633 115.031 126.577 114.969 126.492 115.065C126.453 115.11 126.309 115.196 126.244 115.201C126.299 115.221 126.352 115.24 126.406 115.26C126.365 115.349 126.347 115.47 126.248 115.512C126.22 115.523 126.16 115.44 126.094 115.457C125.823 115.522 125.613 115.674 125.518 115.928C125.692 116.07 125.656 116.128 125.512 116.175L125.51 116.173Z" fill="#A2B9F2"/>
<path d="M128.534 115.122C128.492 115.029 128.438 114.977 128.373 114.886C128.403 114.929 128.243 114.649 128.244 114.694C128.221 114.55 128.388 114.347 128.294 114.16C128.195 113.961 128.107 113.958 128.395 113.81C128.583 113.714 128.469 113.643 128.646 113.843C128.74 113.949 128.843 114.026 128.95 114.12C128.979 114.175 129.012 114.225 129.048 114.273C129.099 114.301 129.156 114.319 129.213 114.329C129.366 114.477 129.309 114.518 129.538 114.487C129.662 114.681 129.625 115.082 129.455 115.253C129.309 115.399 129.111 115.367 128.955 115.38C128.803 115.394 128.81 115.558 128.625 115.425C128.532 115.359 128.585 115.229 128.537 115.118L128.534 115.122Z" fill="#A2B9F2"/>
<path d="M138.052 117.843C137.94 117.487 137.718 117.054 138.001 116.716C138.094 116.732 138.22 117.056 138.279 117.119C138.423 117.275 138.678 117.295 138.773 117.487C138.826 117.593 138.782 117.704 138.79 117.812C138.805 117.999 138.846 118.016 138.899 118.187C138.955 118.371 138.987 118.716 138.782 118.837C138.327 119.102 138.13 118.089 138.052 117.843Z" fill="#A2B9F2"/>
<path d="M131.299 113.944C131.701 113.802 131.496 114.084 131.355 114.248C131.066 114.588 130.908 114.991 130.619 115.347C130.548 115.435 130.33 115.755 130.211 115.763C129.981 115.782 129.971 115.384 130.032 115.226C130.062 115.148 130.196 115.04 130.245 114.951C130.27 114.938 130.297 114.924 130.321 114.911C130.305 114.86 130.308 114.808 130.333 114.76C130.419 114.642 130.555 114.545 130.66 114.453C130.907 114.472 131.064 114.027 131.295 113.944H131.299Z" fill="#A2B9F2"/>
<path d="M127.666 115.681C127.634 115.487 127.682 115.458 127.724 115.274C127.732 115.236 127.805 115.176 127.795 115.14C127.782 115.09 127.644 115.077 127.629 115.029C127.59 114.905 127.527 114.926 127.709 114.919C127.798 114.916 127.854 114.903 127.906 114.982C128.157 114.914 127.879 114.779 127.763 114.775C127.641 114.772 127.315 114.842 127.329 114.591C127.337 114.427 127.446 114.594 127.515 114.609C127.668 114.643 127.82 114.55 127.957 114.611C128.131 114.687 128.126 114.853 128.162 115.012C128.174 115.065 128.212 115.147 128.217 115.196C128.228 115.351 128.188 115.311 128.175 115.443C128.122 115.966 127.962 115.591 127.995 115.264C127.902 115.361 127.965 115.662 127.76 115.561C127.745 115.633 127.739 115.667 127.664 115.677L127.666 115.681Z" fill="#A2B9F2"/>
<path d="M146.117 104.574C146.246 104.515 146.52 104.593 146.672 104.591C146.694 104.607 146.717 104.624 146.738 104.641C146.785 104.576 146.848 104.546 146.927 104.548C146.97 104.55 147.147 104.637 147.115 104.69C147.079 104.751 146.983 104.685 146.927 104.72C147.048 104.854 146.896 104.788 146.963 104.915C146.732 105.165 145.7 104.765 146.118 104.574H146.117Z" fill="#A2B9F2"/>
<path d="M129.137 115.862C129.261 115.832 129.389 115.877 129.478 115.865C129.713 115.837 130.006 115.595 130.123 115.898C129.843 116.049 129.466 116.15 129.152 116.178C129.093 116.183 128.722 116.232 128.701 116.148C128.678 116.057 128.922 115.996 128.993 115.982C128.825 115.857 129.088 115.873 129.137 115.862Z" fill="#A2B9F2"/>
<path d="M127.951 111.996C127.994 111.923 128.093 111.808 128.204 111.885C128.293 111.946 128.234 112.072 128.24 112.175C128.255 112.432 128.275 112.462 128.073 112.647C127.951 112.596 127.728 112.752 127.604 112.808C127.569 112.631 127.691 112.603 127.817 112.535C127.916 112.583 127.969 112.555 127.974 112.45C127.999 112.38 127.987 112.319 127.938 112.263C127.941 112.166 127.886 112.108 127.951 111.997V111.996Z" fill="#A2B9F2"/>
<path d="M127.547 113.464C127.575 113.478 127.651 113.444 127.717 113.483C127.762 113.51 127.914 113.666 127.813 113.719C127.76 113.722 127.717 113.701 127.684 113.654C127.489 113.686 127.603 113.805 127.456 113.896C127.325 113.978 127.348 113.93 127.27 113.85C127.209 113.787 127.11 113.366 127.29 113.293C127.394 113.25 127.482 113.43 127.548 113.464H127.547Z" fill="#A2B9F2"/>
<path d="M125.706 121.225C125.826 121.225 126.081 121.17 126.17 121.233C126.232 121.277 126.304 121.549 126.268 121.62C126.135 121.885 125.634 121.426 125.706 121.223V121.225Z" fill="#A2B9F2"/>
<path d="M133.695 113.289C133.73 113.44 133.821 114.088 133.484 113.879C133.277 113.75 133.483 113.243 133.695 113.289Z" fill="#A2B9F2"/>
<path d="M127.614 116.454C127.57 116.467 126.851 116.157 127.257 116.096C127.349 116.083 127.808 116.394 127.614 116.454Z" fill="#A2B9F2"/>
<path d="M128.225 116.213C128.117 116.054 128.523 116.113 128.637 116.075C128.752 116.332 128.308 116.337 128.225 116.213Z" fill="#A2B9F2"/>
<path d="M127.6 112.809C127.577 112.886 127.564 112.953 127.559 113.029C127.552 113.123 127.504 113.211 127.432 113.27C127.377 113.239 127.354 113.024 127.367 112.979C127.407 112.838 127.455 112.815 127.6 112.809Z" fill="#A2B9F2"/>
<path d="M127.773 116.213C127.795 116.004 128.209 116.153 128.171 116.198C128.095 116.289 127.865 116.238 127.773 116.213Z" fill="#A2B9F2"/>
<path d="M126.626 115.411C126.396 115.332 126.785 115.259 126.878 115.251C127.017 115.234 126.767 115.459 126.626 115.411Z" fill="#A2B9F2"/>
<path d="M128.173 112.646C128.085 113.029 127.804 112.833 128.067 112.646C128.037 112.67 128.072 112.67 128.173 112.646Z" fill="#A2B9F2"/>
<path d="M128.138 116.407C127.901 116.486 128.012 116.319 128.151 116.26C128.33 116.27 128.249 116.369 128.138 116.407Z" fill="#A2B9F2"/>
<path d="M128.469 113.502C128.393 113.411 128.081 113.159 128.232 113.05C128.177 113.233 128.543 113.32 128.469 113.502Z" fill="#A2B9F2"/>
<path d="M138.669 132.408C137.819 132.408 136.969 132.347 136.125 132.221C128.545 131.089 122.269 124.732 121.202 117.11C120.112 109.316 124.573 101.398 131.809 98.2834C132.059 98.1756 132.348 98.2917 132.456 98.5421C132.563 98.7925 132.448 99.0827 132.198 99.1905C125.363 102.132 121.149 109.611 122.178 116.972C123.185 124.172 129.112 130.173 136.271 131.243C140.954 131.944 145.907 130.545 149.521 127.502C149.729 127.326 150.04 127.354 150.214 127.561C150.389 127.77 150.362 128.082 150.152 128.256C146.976 130.931 142.821 132.405 138.667 132.405L138.669 132.408Z" fill="#B88D6E"/>
<path d="M147.946 130.971C148.761 130.971 149.422 130.308 149.422 129.491C149.422 128.673 148.761 128.01 147.946 128.01C147.13 128.01 146.469 128.673 146.469 129.491C146.469 130.308 147.13 130.971 147.946 130.971Z" fill="#A37D62"/>
<path d="M129.594 101.513C130.41 101.513 131.071 100.85 131.071 100.033C131.071 99.2147 130.41 98.5518 129.594 98.5518C128.778 98.5518 128.117 99.2147 128.117 100.033C128.117 100.85 128.778 101.513 129.594 101.513Z" fill="#A37D62"/>
<path d="M145.953 141.248C146.047 140.975 146.098 140.689 146.098 140.399C146.098 138.054 142.862 136.152 138.871 136.152C134.881 136.152 131.645 138.053 131.645 140.399C131.645 140.689 131.694 140.975 131.79 141.248H145.954H145.953Z" fill="#B88D6E"/>
<path d="M80.6094 128.209H81.4313L81.5057 125.745H80.6094V125.36H110.626C111.261 125.36 111.78 125.597 111.78 125.886V128.085C111.78 128.373 111.261 128.611 110.626 128.611H80.6094V128.209Z" fill="#E65440"/>
<path d="M80.9121 128.21V125.771H93.0124C93.0124 125.771 93.019 125.771 93.0223 125.771C93.7317 125.771 94.3072 126.316 94.3072 126.991C94.3072 127.666 93.7317 128.21 93.0223 128.21C93.019 128.21 93.0157 128.21 93.0124 128.21H80.9121Z" fill="white"/>
<path d="M80.9043 125.745L93.0128 125.77C93.0128 125.77 93.0194 125.77 93.0227 125.77C93.7322 125.77 94.3077 126.316 94.3077 126.99C94.3077 127.36 94.134 127.692 93.8595 127.916C93.9935 127.723 94.0729 127.491 94.0729 127.243C94.0729 126.569 93.4974 126.024 92.7879 126.024C92.7846 126.024 92.7813 126.024 92.778 126.024H80.9142L80.906 125.745H80.9043Z" fill="#D6D6D6"/>
<path d="M82.2974 127.609H91.1051C91.158 127.609 91.1994 127.571 91.1994 127.523C91.1994 127.475 91.1564 127.437 91.1051 127.437H82.2974C82.2445 127.437 82.2031 127.475 82.2031 127.523C82.2031 127.571 82.2461 127.609 82.2974 127.609Z" fill="#D6D6D6"/>
<path d="M108.946 134.297C108.946 134.297 108.956 134.297 108.961 134.297C110.099 134.297 111.021 135.686 111.021 137.403C111.021 139.119 110.099 140.509 108.961 140.509C108.956 140.509 108.951 140.509 108.946 140.509H81.3008V134.297H108.946Z" fill="white"/>
<path d="M110.637 137.991C110.637 136.22 109.714 134.784 108.576 134.784C108.571 134.784 108.566 134.784 108.561 134.784H81.293V134.117H108.938C108.938 134.117 108.948 134.117 108.953 134.117C110.091 134.117 111.014 135.553 111.014 137.324C111.014 138.298 110.734 139.17 110.294 139.759C110.509 139.251 110.637 138.644 110.637 137.989V137.991Z" fill="#D6D6D6"/>
<path d="M108.909 134.114C108.909 134.114 108.9 134.114 108.895 134.114H80.6094V133.3H112.174C112.174 133.3 112.185 133.3 112.19 133.3C113.49 133.3 114.544 135.054 114.544 137.22C114.544 139.386 113.49 141.14 112.19 141.14C112.185 141.14 112.179 141.14 112.174 141.14H80.6094V140.326H108.895C108.895 140.326 108.905 140.326 108.909 140.326C110.074 140.326 111.018 138.936 111.018 137.22C111.018 135.504 110.074 134.114 108.909 134.114Z" fill="#E65440"/>
<path d="M89.9156 137.01H107.192C107.324 137.01 107.432 136.904 107.432 136.773C107.432 136.642 107.324 136.536 107.192 136.536H89.9156C89.7833 136.536 89.6758 136.642 89.6758 136.773C89.6758 136.904 89.7833 137.01 89.9156 137.01Z" fill="#D6D6D6"/>
<path d="M83.3921 138.981H105.717C105.85 138.981 105.957 138.875 105.957 138.744C105.957 138.613 105.85 138.507 105.717 138.507H83.3921C83.2598 138.507 83.1523 138.613 83.1523 138.744C83.1523 138.875 83.2598 138.981 83.3921 138.981Z" fill="#D6D6D6"/>
<path d="M113.058 132.726L112.287 132.741L112.259 129.269H113.058V128.61H83.041C82.406 128.61 81.8867 128.959 81.8867 129.385V132.623C81.8867 133.049 82.406 133.398 83.041 133.398H113.058V132.726Z" fill="#7693DB"/>
<path d="M112.745 132.732V129.248H100.644C100.644 129.248 100.638 129.248 100.635 129.248C99.9251 129.248 99.3496 130.027 99.3496 130.989C99.3496 131.951 99.9251 132.73 100.635 132.73C100.638 132.73 100.641 132.73 100.644 132.73H112.745V132.732Z" fill="white"/>
<path d="M112.745 129.248H100.644C100.644 129.248 100.638 129.248 100.635 129.248C99.9251 129.248 99.3496 130.041 99.3496 131.019C99.3496 131.556 99.5232 132.039 99.7978 132.364C99.6638 132.084 99.5844 131.749 99.5844 131.387C99.5844 130.409 100.16 129.616 100.869 129.616C100.873 129.616 100.876 129.616 100.879 129.616H112.743V129.248H112.745Z" fill="#D6D6D6"/>
<path d="M110.664 131.948H101.856C101.803 131.948 101.762 131.89 101.762 131.821C101.762 131.751 101.805 131.693 101.856 131.693H110.664C110.717 131.693 110.758 131.751 110.758 131.821C110.758 131.89 110.715 131.948 110.664 131.948Z" fill="#D6D6D6"/>
<path d="M112.207 130.584H103.399C103.346 130.584 103.305 130.526 103.305 130.457C103.305 130.387 103.348 130.329 103.399 130.329H112.207C112.26 130.329 112.301 130.387 112.301 130.457C112.301 130.526 112.258 130.584 112.207 130.584Z" fill="#D6D6D6"/>
<path d="M49.1345 32.5397C44.8001 32.5397 40.727 30.8467 37.661 27.774C34.5966 24.7012 32.9082 20.6153 32.9082 16.2707C32.9082 11.9261 34.5966 7.83852 37.661 4.7658C40.7253 1.69307 44.8001 0 49.1345 0C53.4689 0 57.542 1.69307 60.6064 4.7658C63.6707 7.83852 65.3591 11.9244 65.3591 16.2707C65.3591 20.617 63.6707 24.7012 60.6064 27.774C57.542 30.8467 53.4672 32.5397 49.1345 32.5397ZM49.1345 0.663298C44.977 0.663298 41.0677 2.28672 38.1273 5.23508C35.187 8.18344 33.568 12.1019 33.568 16.2724C33.568 20.4429 35.187 24.3613 38.1273 27.308C41.0677 30.2563 44.9754 31.8798 49.1345 31.8798C53.2936 31.8798 57.2013 30.2563 60.14 27.308C63.0803 24.3596 64.6993 20.4412 64.6993 16.2724C64.6993 12.1035 63.0803 8.18344 60.14 5.23508C57.1997 2.28672 53.2919 0.663298 49.1345 0.663298Z" fill="#DED6CA"/>
<path d="M53.47 25.532C53.336 25.532 53.207 25.4574 53.1458 25.328L48.8693 16.5476L43.0565 13.9624C42.8746 13.8811 42.7919 13.6672 42.8729 13.4848C42.954 13.3024 43.1673 13.2195 43.3492 13.3008L49.4035 15.9921L53.7958 25.0096C53.8834 25.1887 53.809 25.406 53.6304 25.4938C53.5791 25.5187 53.5245 25.5303 53.4716 25.5303L53.47 25.532Z" fill="#DED6CA"/>
<path d="M49.2201 6.35426C48.9919 6.35426 48.8066 6.16854 48.8066 5.9397V2.83546C48.8066 2.60662 48.9919 2.4209 49.2201 2.4209C49.4483 2.4209 49.6335 2.60662 49.6335 2.83546V5.9397C49.6335 6.16854 49.4483 6.35426 49.2201 6.35426Z" fill="#DED6CA"/>
<path d="M49.2201 30.1537C48.9919 30.1537 48.8066 29.968 48.8066 29.7391V26.5835C48.8066 26.3547 48.9919 26.1689 49.2201 26.1689C49.4483 26.1689 49.6335 26.3547 49.6335 26.5835V29.7391C49.6335 29.968 49.4483 30.1537 49.2201 30.1537Z" fill="#DED6CA"/>
<path d="M62.5863 16.8574H59.388C59.1598 16.8574 58.9746 16.6717 58.9746 16.4429C58.9746 16.214 59.1598 16.0283 59.388 16.0283H62.5863C62.8145 16.0283 62.9998 16.214 62.9998 16.4429C62.9998 16.6717 62.8145 16.8574 62.5863 16.8574Z" fill="#DED6CA"/>
<path d="M38.8988 16.8574H35.7005C35.4723 16.8574 35.2871 16.6717 35.2871 16.4429C35.2871 16.214 35.4723 16.0283 35.7005 16.0283H38.8988C39.127 16.0283 39.3123 16.214 39.3123 16.4429C39.3123 16.6717 39.127 16.8574 38.8988 16.8574Z" fill="#DED6CA"/>
<path d="M58.8035 26.0525C58.6976 26.0525 58.5918 26.0127 58.5124 25.9314L56.2551 23.6679C56.0947 23.5071 56.0947 23.2434 56.2551 23.0826C56.4155 22.9217 56.6768 22.9217 56.8388 23.0826L59.0962 25.3461C59.2566 25.5069 59.2566 25.7689 59.0962 25.9314C59.0151 26.0127 58.9093 26.0525 58.8035 26.0525Z" fill="#DED6CA"/>
<path d="M42.0456 9.30247C41.9398 9.30247 41.834 9.26267 41.7546 9.18142L39.4973 6.91791C39.3369 6.75706 39.3369 6.4934 39.4973 6.33255C39.6577 6.1717 39.9206 6.1717 40.081 6.33255L42.3384 8.59605C42.4988 8.7569 42.4988 9.02057 42.3384 9.18142C42.2573 9.26267 42.1515 9.30247 42.0473 9.30247H42.0456Z" fill="#DED6CA"/>
<path d="M39.425 26.0536C39.3192 26.0536 39.2134 26.0138 39.134 25.9326C38.9736 25.7717 38.9736 25.508 39.134 25.3472L41.4178 23.0572C41.5782 22.8963 41.8411 22.8963 42.0015 23.0572C42.1619 23.218 42.1619 23.48 42.0015 23.6425L39.7177 25.9326C39.6367 26.0138 39.5309 26.0536 39.4267 26.0536H39.425Z" fill="#DED6CA"/>
<path d="M56.3157 9.32925C56.2098 9.32925 56.104 9.28944 56.0246 9.20819C55.8642 9.04734 55.8642 8.78368 56.0246 8.62283L58.2687 6.37259C58.4291 6.21174 58.6921 6.21174 58.8525 6.37259C59.0129 6.53344 59.0129 6.7971 58.8525 6.95795L56.6084 9.20819C56.5273 9.28944 56.4215 9.32925 56.3173 9.32925H56.3157Z" fill="#DED6CA"/>
<path d="M49.1326 30.2909C45.3985 30.2909 41.886 28.8333 39.245 26.1851C36.604 23.5369 35.1504 20.0164 35.1504 16.2705C35.1504 12.5245 36.604 9.00404 39.245 6.35582C41.886 3.7076 45.3968 2.25 49.1326 2.25C52.8683 2.25 56.3792 3.70926 59.0202 6.35582C61.6612 9.00404 63.1148 12.5245 63.1148 16.2705C63.1148 20.0164 61.6595 23.5369 59.0202 26.1851C56.3792 28.8333 52.8683 30.2909 49.1326 30.2909ZM49.1326 2.40422C41.5073 2.40422 35.3042 8.62429 35.3042 16.2705C35.3042 23.9166 41.5073 30.1367 49.1326 30.1367C56.7579 30.1367 62.961 23.9166 62.961 16.2705C62.961 8.62429 56.7579 2.40422 49.1326 2.40422Z" fill="#DED6CA"/>
<path d="M49.1299 26.1526C43.6958 26.1526 39.2754 21.7201 39.2754 16.2711C39.2754 10.8221 43.6958 6.38965 49.1299 6.38965C54.564 6.38965 58.9844 10.8221 58.9844 16.2711C58.9844 21.7201 54.564 26.1526 49.1299 26.1526ZM49.1299 6.54386C43.7818 6.54386 39.4292 10.9067 39.4292 16.2711C39.4292 21.6356 43.7801 25.9984 49.1299 25.9984C54.4797 25.9984 58.8306 21.6356 58.8306 16.2711C58.8306 10.9067 54.4797 6.54386 49.1299 6.54386Z" fill="#DED6CA"/>
</svg>
