<svg width="264" height="28" viewBox="0 0 264 28" fill="none" xmlns="http://www.w3.org/2000/svg">
<path d="M264 27.618H247.492V0.417969H264V5.14178H253.557V11.1227H263.277V15.8465H253.557V22.8561H264V27.618Z" fill="#191919"/>
<path d="M235.288 27.618H229.224V5.21797H221.432V0.417969H243.08V5.21797H235.288V27.618Z" fill="#191919"/>
<path d="M219.515 13.981C219.515 16.0889 219.234 18.0063 218.672 19.7333C218.136 21.4349 217.306 22.9079 216.182 24.1524C215.084 25.3968 213.665 26.3492 211.924 27.0095C210.21 27.6698 208.189 28 205.859 28C203.53 28 201.495 27.6698 199.754 27.0095C198.04 26.3238 196.621 25.3714 195.497 24.1524C194.399 22.9079 193.569 21.4222 193.006 19.6952C192.471 17.9683 192.203 16.0508 192.203 13.9429C192.203 11.1238 192.685 8.67302 193.649 6.59048C194.64 4.50794 196.139 2.89524 198.148 1.75238C200.183 0.584127 202.766 0 205.899 0C209.005 0 211.563 0.584127 213.571 1.75238C215.579 2.89524 217.065 4.52064 218.029 6.62857C219.02 8.71111 219.515 11.1619 219.515 13.981ZM198.589 13.981C198.589 15.8857 198.844 17.5238 199.352 18.8952C199.861 20.2667 200.651 21.3206 201.722 22.0571C202.793 22.7936 204.172 23.1619 205.859 23.1619C207.6 23.1619 208.992 22.7936 210.036 22.0571C211.107 21.3206 211.884 20.2667 212.366 18.8952C212.875 17.5238 213.129 15.8857 213.129 13.981C213.129 11.1111 212.567 8.86349 211.442 7.2381C210.317 5.6127 208.47 4.8 205.899 4.8C204.186 4.8 202.793 5.16825 201.722 5.90476C200.651 6.64127 199.861 7.69524 199.352 9.06667C198.844 10.4381 198.589 12.0762 198.589 13.981Z" fill="#191919"/>
<path d="M186.243 27.618H178.531L166.04 7.04654H165.879C165.906 7.68146 165.933 8.32908 165.959 8.9894C165.986 9.62432 166.013 10.2719 166.04 10.9323C166.093 11.5672 166.134 12.2148 166.16 12.8751C166.187 13.51 166.214 14.1577 166.241 14.818V27.618H160.818V0.417969H168.49L180.941 20.7989H181.061C181.035 20.164 181.008 19.5418 180.981 18.9323C180.954 18.2973 180.928 17.6751 180.901 17.0656C180.901 16.4307 180.887 15.8084 180.861 15.1989C180.834 14.564 180.807 13.9291 180.78 13.2942V0.417969H186.243V27.618Z" fill="#191919"/>
<path d="M144.416 27.618H127.908V0.417969H144.416V5.14178H133.973V11.1227H143.693V15.8465H133.973V22.8561H144.416V27.618Z" fill="#191919"/>
<path d="M109.729 12.3399H121.095V26.4352C119.596 26.9177 118.029 27.2987 116.396 27.578C114.789 27.8574 112.955 27.9971 110.893 27.9971C108.055 27.9971 105.632 27.4637 103.623 26.3971C101.642 25.3304 100.129 23.7558 99.0849 21.6733C98.0673 19.5907 97.5586 17.0256 97.5586 13.978C97.5586 11.1336 98.1343 8.67008 99.2857 6.58754C100.464 4.505 102.164 2.8923 104.387 1.74944C106.609 0.606585 109.327 0.0351562 112.54 0.0351562C114.066 0.0351562 115.566 0.187537 117.039 0.4923C118.511 0.797061 119.85 1.20341 121.055 1.71135L119.047 6.32087C118.163 5.88913 117.159 5.53357 116.034 5.2542C114.91 4.97484 113.732 4.83516 112.5 4.83516C110.733 4.83516 109.193 5.21611 107.881 5.97801C106.596 6.73992 105.592 7.81928 104.869 9.21611C104.172 10.5875 103.824 12.2129 103.824 14.0923C103.824 15.8701 104.079 17.4447 104.587 18.8161C105.096 20.1875 105.899 21.2669 106.997 22.0542C108.095 22.8161 109.528 23.1971 111.295 23.1971C111.884 23.1971 112.393 23.1844 112.821 23.159C113.276 23.1082 113.691 23.0574 114.066 23.0066C114.441 22.9304 114.803 22.8669 115.151 22.8161V17.1399H109.729V12.3399Z" fill="#191919"/>
<path d="M92.8909 13.7513C92.8909 16.7989 92.275 19.3513 91.0433 21.4084C89.8116 23.4656 88.0175 25.0148 85.6612 26.0561C83.3316 27.0973 80.5201 27.618 77.2266 27.618H69.1133V0.417969H78.1102C81.1092 0.417969 83.7065 0.925905 85.9022 1.94178C88.1246 2.95765 89.8383 4.45607 91.0433 6.43702C92.275 8.39257 92.8909 10.8307 92.8909 13.7513ZM86.585 13.9037C86.585 11.8973 86.2771 10.2465 85.6612 8.9513C85.0453 7.65606 84.1215 6.70368 82.8898 6.09416C81.6849 5.45924 80.1988 5.14178 78.4315 5.14178H75.1782V22.8561H77.7889C80.7611 22.8561 82.9701 22.1069 84.4161 20.6084C85.862 19.11 86.585 16.8751 86.585 13.9037Z" fill="#191919"/>
<path d="M64.2215 27.618H51.168V24.3418L54.6623 22.818V5.21797L51.168 3.69416V0.417969H64.2215V3.69416L60.7272 5.21797V22.818L64.2215 24.3418V27.618Z" fill="#191919"/>
<path d="M35.3426 0.417969C37.9399 0.417969 40.082 0.72273 41.7689 1.33225C43.4559 1.91638 44.7144 2.81797 45.5444 4.03702C46.3745 5.23067 46.7896 6.74178 46.7896 8.57035C46.7896 9.81479 46.5352 10.9069 46.0264 11.8465C45.5444 12.7608 44.8884 13.5481 44.0583 14.2084C43.255 14.8434 42.3848 15.364 41.4476 15.7704L49.8822 27.618H43.1346L36.3065 17.1799H33.0532V27.618H26.9883V0.417969H35.3426ZM34.9008 5.14178H33.0532V12.4942H35.0213C36.3601 12.4942 37.4445 12.3545 38.2746 12.0751C39.1047 11.7957 39.7071 11.3767 40.082 10.818C40.4569 10.2338 40.6443 9.53543 40.6443 8.72273C40.6443 7.85924 40.4301 7.17353 40.0017 6.66559C39.6 6.13226 38.9708 5.7513 38.1139 5.52273C37.2839 5.26876 36.2128 5.14178 34.9008 5.14178Z" fill="#191919"/>
<path d="M8.9166 0.417969C11.4604 0.417969 13.5891 0.64654 15.3028 1.10368C17.0433 1.53543 18.3419 2.25924 19.1988 3.27511C20.0824 4.26559 20.5242 5.61162 20.5242 7.31321C20.5242 8.32908 20.3502 9.25606 20.0021 10.0942C19.654 10.9323 19.1452 11.618 18.4758 12.1513C17.8332 12.6846 17.0433 13.0275 16.1061 13.1799V13.3703C17.0701 13.5481 17.9403 13.8656 18.7168 14.3227C19.4933 14.7799 20.1092 15.4402 20.5644 16.3037C21.0196 17.1672 21.2472 18.31 21.2472 19.7323C21.2472 21.383 20.8188 22.8053 19.9619 23.9989C19.1319 25.1672 17.9269 26.0688 16.3471 26.7037C14.7673 27.3132 12.8929 27.618 10.724 27.618H0V0.417969H8.9166ZM9.5994 11.1989C11.3667 11.1989 12.585 10.9323 13.2544 10.3989C13.9506 9.86559 14.2987 9.09099 14.2987 8.07511C14.2987 7.03384 13.897 6.28464 13.0937 5.82749C12.2904 5.37035 11.0186 5.14178 9.27808 5.14178H6.06489V11.1989H9.5994ZM6.06489 15.7704V22.8561H10.0412C11.862 22.8561 13.1339 22.5259 13.8569 21.8656C14.5798 21.1799 14.9413 20.2783 14.9413 19.1608C14.9413 18.4751 14.7807 17.8783 14.4593 17.3703C14.1648 16.8624 13.6427 16.4688 12.8929 16.1894C12.1432 15.91 11.1257 15.7704 9.84039 15.7704H6.06489Z" fill="#191919"/>
</svg>
